<?xml version="1.0" encoding="UTF-8" standalone="no"?>
<svg
   width="1155"
   height="842.94501"
   viewBox="0 0 1155 842.94501"
   version="1.1"
   id="svg9"
   sodipodi:docname="Anaconda.svg"
   xmlns:inkscape="http://www.inkscape.org/namespaces/inkscape"
   xmlns:sodipodi="http://sodipodi.sourceforge.net/DTD/sodipodi-0.dtd"
   xmlns="http://www.w3.org/2000/svg"
   xmlns:svg="http://www.w3.org/2000/svg">
  <defs
     id="defs9" />
  <sodipodi:namedview
     id="namedview9"
     pagecolor="#505050"
     bordercolor="#ffffff"
     borderopacity="1"
     inkscape:showpageshadow="0"
     inkscape:pageopacity="0"
     inkscape:pagecheckerboard="1"
     inkscape:deskcolor="#d1d1d1" />
  <g
     id="Anaconda"
     transform="matrix(0.8186775,0,0,0.8186775,-45.931017,-168.16455)">
    <g
       id="Colour"
       style="display:inline">
      <path
         d="m 1462.37,1154.08 c -0.52,-6.29 -1.25,-13.06 -4,-18.55 -4.84,-9.65 -11.22,-18.54 -17.1,-27.65 -7.86,-12.19 -15.63,-24.44 -23.87,-36.37 q -11.7,-17 -24.33,-33.28 c -7.77,-10 -16.11,-19.6 -24.21,-29.37 -9.32,-11.24 -18.49,-22.63 -28,-33.68 -10.77,-12.44 -21.89,-24.58 -32.85,-36.86 q -20.31,-22.74 -40.62,-45.48 c -6,-6.74 -12.15,-13.4 -18.16,-20.15 q -23.16,-26 -46.27,-52.08 c -6.67,-7.48 -13.53,-14.79 -20.22,-22.24 -13.57,-15.14 -26.94,-30.45 -40.67,-45.44 -11.49,-12.56 -23.34,-24.79 -35.08,-37.11 q -22.08,-23.16 -44.27,-46.21 c -13.1,-13.56 -26.16,-27.18 -39.57,-40.44 -7.68,-7.59 -41.08,-38.6 -48.15,-45.38 q -16.69,-16 -33.24,-32.25 c -4.83,-4.71 -9.38,-9.72 -14.36,-14.27 -12.63,-11.54 -25.54,-22.77 -38.12,-34.36 -12.3,-11.33 -25,-22.36 -36.27,-34.65 -8.51,-9.28 -19.08,-14.79 -29.81,-20 -18.2,-8.86 -36.84,-16.52 -55.2,-24.83 -13.33,-6 -26.53,-12.34 -39.83,-18.44 -15.21,-7 -30.47,-13.84 -45.7,-20.76 -12.41,-5.64 -48.65,-22.37 -52.58,-24.05 -5.1,-2.18 -4.8,-2.23 -1.57,-6.75 5,-7 12.28,-12.33 13.08,-22.21 0.86,-10.53 1.75,-10.08 -6.81,-16.44 -7.56,-5.62 -15.45,-10.79 -23.12,-16.26 -13.26,-9.47 -26.45,-19 -39.69,-28.53 -4.53,-3.25 -8.68,-7.76 -13.74,-9.41 -9.18,-3 -18.9,-4.32 -28.42,-6.25 -10.77,-2.18 -21.57,-4.24 -32.35,-6.38 q -13.33,-2.65 -26.66,-5.4 c -6.7,-1.38 -13.45,-2.57 -20,-4.31 -8.43,-2.23 -16.71,-5 -25.1,-7.4 -9.94,-2.84 -19.93,-5.49 -29.88,-8.32 -6.56,-1.88 -13,-4.5 -19.65,-5.74 -6.65,-1.24 -11.6,-7.37 -19,-5.72 -0.23,0.05 -0.55,-0.41 -0.84,-0.44 -4.48,-0.45 -8.95,-1.2 -13.43,-1.21 -6.15,0 -12.31,0.51 -18.46,0.92 a 21.58,21.58 0 0 0 -6.55,1.12 c -1,0.39 -2,2.32 -1.89,3.49 0.27,4.13 1.5,8.24 1.43,12.35 -0.12,6.6 3.55,10.45 8.66,13.22 10.69,5.8 21.54,11.31 33.32,17.46 l -17.52,8.14 c -3.88,1.79 -8,3.23 -11.59,5.43 -7.81,4.76 -15.32,10 -23.11,14.78 -1,0.63 -3,0 -4.48,-0.38 -2.42,-0.57 -4.77,-1.44 -7.18,-2.07 -1.95,-0.5 -4.34,-0.28 -5.84,-1.35 -6,-4.29 -10.34,-3.41 -14.24,2.83 -2.05,3.29 -4.35,6.92 -7.48,9 -8,5.17 -16.41,9.64 -24.8,14.13 -1.29,0.69 -3.49,0.46 -5,-0.12 -3.39,-1.34 -9,-0.18 -10.26,3.12 -2.38,6.15 -6.73,10.11 -12.16,13.46 a 7,7 0 0 0 -2.72,5.45 c 0.76,8.38 2.08,16.71 3.21,25.09 -1.73,1 -3.71,2.31 -5.77,3.44 -2.23,1.23 -4.47,3.14 -6.82,3.34 -7,0.59 -14.13,0.25 -21.17,0.74 a 37.34,37.34 0 0 0 -10.61,2.42 c -3.41,1.31 -5.9,2.37 -10.1,0.72 -19.24,-7.56 -39,-13.88 -58.23,-21.38 -8.84,-3.45 -15.52,-2.48 -21.71,4.79 A 118.17,118.17 0 0 1 68.18,363 c -11.09,9.4 -9.05,20 -4,31.89 4,9.38 9.51,18.1 14.35,27.11 3.75,7 7.95,13.78 11.1,21 1.68,3.88 3.06,9 2,12.79 -7.72,27.86 -16.17,55.51 -24.21,83.28 -1.81,6.24 -3.87,12.65 -4,19 -0.13,4.71 -0.25,10.75 4.32,14.12 13.87,10.25 28,20.2 42.05,30.16 12.64,8.94 25.53,17.53 38,26.7 6.34,4.67 13.09,6.6 20.15,3.73 10.82,-4.39 21.22,-9.8 31.82,-14.72 12.29,-5.7 24.62,-11.35 36.72,-16.92 1.86,2.88 3.14,6.26 5.55,8.32 5.34,4.54 11.28,8.36 16.9,12.58 12.52,9.43 25,18.93 37.51,28.37 3.55,2.69 4.43,4.41 5.37,10.68 0.15,1 0.44,2.17 0.59,3.27 1.1,8.24 2,16.52 3.36,24.72 0.47,2.82 1.39,6.29 3.37,8 8.72,7.54 17.92,14.53 26.91,21.77 a 9.85,9.85 0 0 1 2.79,3.12 c 8.43,17.55 16.59,35.22 25.19,52.68 3.79,7.72 8.22,15.07 16.41,19.32 12.26,6.37 24.28,13.19 36.5,19.63 2.61,1.37 5.22,2.72 7.83,4.07 v 0 l 0.53,0.27 c 10.36,5.35 20.78,10.61 31.13,16 20.37,10.55 40.76,21.06 61,31.82 11.05,5.87 22.32,11.53 32.66,18.51 13.1,8.85 25.38,18.92 38,28.51 14.39,10.94 28.81,21.85 43.08,32.95 3.27,2.54 6.15,2 9.16,0.14 3.82,-2.31 7.39,-5.06 11.32,-7.15 1.68,-0.89 4.36,-1.43 6,-0.72 10.8,4.74 21.41,9.88 32.1,14.86 17.18,8 34.33,16 51.56,23.88 15.7,7.26 31.53,14.16 47.29,21.26 11,5 22,10.19 33,15.07 20,8.78 40,17.4 60,26.06 11.82,5.12 23.83,9.81 35.44,15.37 9.05,4.33 37.49,17.06 40.91,18.14 6.81,2.15 13.37,5.13 20,7.87 q 40.15,16.65 80.28,33.38 c 24.23,10.1 48.4,20.36 72.67,30.39 16.74,6.92 33.52,13.75 50.41,20.28 28.46,11 57,21.9 85.56,32.48 11.75,4.35 23.8,7.92 35.81,11.52 12.01,3.6 23.87,6.73 35.81,10 10.87,3 21.7,6.2 32.65,8.87 6.94,1.69 14.22,4.13 21.1,3.52 13.79,-1.22 27.43,-4.24 41.1,-6.69 a 10.86,10.86 0 0 0 5,-2.58 c 5.32,-4.75 10.32,-9.84 15.69,-14.53 4.87,-4.25 6,-9.62 6.64,-15.79 0.58,-5.18 1.79,-12.58 2.11,-18.87 a 135.12,135.12 0 0 0 -0.4,-18.41 z"
         style="display:none;fill:#2d3b36"
         id="path1" />
      <path
         d="m 1462.37,1154.08 c -0.52,-6.29 -1.25,-13.06 -4,-18.55 -4.84,-9.65 -11.22,-18.54 -17.1,-27.65 -7.86,-12.19 -15.63,-24.44 -23.87,-36.37 q -11.7,-17 -24.33,-33.28 c -7.77,-10 -16.11,-19.6 -24.21,-29.37 -9.32,-11.24 -18.49,-22.63 -28,-33.68 -10.77,-12.44 -21.89,-24.58 -32.85,-36.86 q -20.31,-22.74 -40.62,-45.48 c -6,-6.74 -12.15,-13.4 -18.16,-20.15 q -23.16,-26 -46.27,-52.08 c -6.67,-7.48 -13.53,-14.79 -20.22,-22.24 -13.57,-15.14 -26.94,-30.45 -40.67,-45.44 -11.49,-12.56 -23.34,-24.79 -35.08,-37.11 q -22.08,-23.16 -44.27,-46.21 c -13.1,-13.56 -26.16,-27.18 -39.57,-40.44 -7.68,-7.59 -41.08,-38.6 -48.15,-45.38 q -16.69,-16 -33.24,-32.25 c -4.83,-4.71 -9.38,-9.72 -14.36,-14.27 -12.63,-11.54 -25.54,-22.77 -38.12,-34.36 -12.3,-11.33 -25,-22.36 -36.27,-34.65 -8.51,-9.28 -19.08,-14.79 -29.81,-20 -18.2,-8.86 -36.84,-16.52 -55.2,-24.83 -13.33,-6 -26.53,-12.34 -39.83,-18.44 -15.21,-7 -30.47,-13.84 -45.7,-20.76 -12.41,-5.64 -48.65,-22.37 -52.58,-24.05 -5.1,-2.18 -4.8,-2.23 -1.57,-6.75 5,-7 12.28,-12.33 13.08,-22.21 0.86,-10.53 1.75,-10.08 -6.81,-16.44 -7.56,-5.62 -15.45,-10.79 -23.12,-16.26 -13.26,-9.47 -26.45,-19 -39.69,-28.53 -4.53,-3.25 -8.68,-7.76 -13.74,-9.41 -9.18,-3 -18.9,-4.32 -28.42,-6.25 -10.77,-2.18 -21.57,-4.24 -32.35,-6.38 q -13.33,-2.65 -26.66,-5.4 c -6.7,-1.38 -13.45,-2.57 -20,-4.31 -8.43,-2.23 -16.71,-5 -25.1,-7.4 -9.94,-2.84 -19.93,-5.49 -29.88,-8.32 -6.56,-1.88 -13,-4.5 -19.65,-5.74 -6.65,-1.24 -11.6,-7.37 -19,-5.72 -0.23,0.05 -0.55,-0.41 -0.84,-0.44 -4.48,-0.45 -8.95,-1.2 -13.43,-1.21 -6.15,0 -12.31,0.51 -18.46,0.92 a 21.58,21.58 0 0 0 -6.55,1.12 c -1,0.39 -2,2.32 -1.89,3.49 0.27,4.13 1.5,8.24 1.43,12.35 -0.12,6.6 3.55,10.45 8.66,13.22 10.69,5.8 21.54,11.31 33.32,17.46 l -17.52,8.14 c -3.88,1.79 -8,3.23 -11.59,5.43 -7.81,4.76 -15.32,10 -23.11,14.78 -1,0.63 -3,0 -4.48,-0.38 -2.42,-0.57 -4.77,-1.44 -7.18,-2.07 -1.95,-0.5 -4.34,-0.28 -5.84,-1.35 -6,-4.29 -10.34,-3.41 -14.24,2.83 -2.05,3.29 -4.35,6.92 -7.48,9 -8,5.17 -16.41,9.64 -24.8,14.13 -1.29,0.69 -3.49,0.46 -5,-0.12 -3.39,-1.34 -9,-0.18 -10.26,3.12 -2.38,6.15 -6.73,10.11 -12.16,13.46 a 7,7 0 0 0 -2.72,5.45 c 0.76,8.38 2.08,16.71 3.21,25.09 -1.73,1 -3.71,2.31 -5.77,3.44 -2.23,1.23 -4.47,3.14 -6.82,3.34 -7,0.59 -14.13,0.25 -21.17,0.74 a 37.34,37.34 0 0 0 -10.61,2.42 c -3.41,1.31 -5.9,2.37 -10.1,0.72 -19.24,-7.56 -39,-13.88 -58.23,-21.38 -8.84,-3.45 -15.52,-2.48 -21.71,4.79 A 118.17,118.17 0 0 1 68.18,363 c -11.09,9.4 -9.05,20 -4,31.89 4,9.38 9.51,18.1 14.35,27.11 3.75,7 7.95,13.78 11.1,21 1.68,3.88 3.06,9 2,12.79 -7.72,27.86 -16.17,55.51 -24.21,83.28 -1.81,6.24 -3.87,12.65 -4,19 -0.13,4.71 -0.25,10.75 4.32,14.12 13.87,10.25 28,20.2 42.05,30.16 12.64,8.94 25.53,17.53 38,26.7 6.34,4.67 13.09,6.6 20.15,3.73 10.82,-4.39 21.22,-9.8 31.82,-14.72 12.29,-5.7 24.62,-11.35 36.72,-16.92 1.86,2.88 3.14,6.26 5.55,8.32 5.34,4.54 11.28,8.36 16.9,12.58 12.52,9.43 25,18.93 37.51,28.37 3.55,2.69 4.43,4.41 5.37,10.68 0.15,1 0.44,2.17 0.59,3.27 1.1,8.24 2,16.52 3.36,24.72 0.47,2.82 1.39,6.29 3.37,8 8.72,7.54 17.92,14.53 26.91,21.77 a 9.85,9.85 0 0 1 2.79,3.12 c 8.43,17.55 16.59,35.22 25.19,52.68 3.79,7.72 8.22,15.07 16.41,19.32 12.26,6.37 24.28,13.19 36.5,19.63 2.61,1.37 5.22,2.72 7.83,4.07 v 0 l 0.53,0.27 c 10.36,5.35 20.78,10.61 31.13,16 20.37,10.55 40.76,21.06 61,31.82 11.05,5.87 22.32,11.53 32.66,18.51 13.1,8.85 25.38,18.92 38,28.51 14.39,10.94 28.81,21.85 43.08,32.95 3.27,2.54 6.15,2 9.16,0.14 3.82,-2.31 7.39,-5.06 11.32,-7.15 1.68,-0.89 4.36,-1.43 6,-0.72 10.8,4.74 21.41,9.88 32.1,14.86 17.18,8 34.33,16 51.56,23.88 15.7,7.26 31.53,14.16 47.29,21.26 11,5 22,10.19 33,15.07 20,8.78 40,17.4 60,26.06 11.82,5.12 23.83,9.81 35.44,15.37 9.05,4.33 37.49,17.06 40.91,18.14 6.81,2.15 13.37,5.13 20,7.87 q 40.15,16.65 80.28,33.38 c 24.23,10.1 48.4,20.36 72.67,30.39 16.74,6.92 33.52,13.75 50.41,20.28 28.46,11 57,21.9 85.56,32.48 11.75,4.35 23.8,7.92 35.81,11.52 12.01,3.6 23.87,6.73 35.81,10 10.87,3 21.7,6.2 32.65,8.87 6.94,1.69 14.22,4.13 21.1,3.52 13.79,-1.22 27.43,-4.24 41.1,-6.69 a 10.86,10.86 0 0 0 5,-2.58 c 5.32,-4.75 10.32,-9.84 15.69,-14.53 4.87,-4.25 6,-9.62 6.64,-15.79 0.58,-5.18 1.79,-12.58 2.11,-18.87 a 135.12,135.12 0 0 0 -0.4,-18.41 z"
         style="display:inline;fill:none;stroke:#ffffff;stroke-width:8px;stroke-linejoin:round"
         id="path2" />
    </g>
    <g
       id="Paint"
       style="display:inline">
      <path
         d="m 150,366.82 29.29,195.87 -18.59,-14.35 -27,-187 -10.32,-6.76 27.8,203.23 21.78,15.67 9,49.2 15.33,-8.55 -37.72,-245.3 z M 239.32,390.58 232.74,386 217.16,442.84 236,547.72 221.09,536.21 204,438.43 l 16,-56.22 -7.42,-3.21 -16.82,54 17.68,110.83 17.47,12.58 7.21,39.48 12.3,-6.87 -25.64,-144.58 z M 563.51,301 l 11.84,8.59 6.35,5.24 -108.7,-45.48 -12.59,-5.84 -36.23,-4.39 -2.07,4.39 42.83,5.49 16.9,9.31 153.46,62.9 3.72,-10 -51.13,-20.8 L 573.28,300 456.34,250.28 368.11,242 l 9,5.38 76.28,7.83 z m -67.51,19.85 125.67,37 5.75,-6.28 -55.47,-19.07 -16.26,-15.24 -89.48,-27.06 13.61,10.8 71.92,22.8 10.79,9.89 -81.74,-24.1 z m 7.56,211.15 10,6 c 0,0 3.91,-4.73 9.29,-0.51 l 81.15,62.9 13.69,8 3.43,-17.3 -104,-71.83 z m 165,-37.85 C 660.2,492 626.5,471 624.85,469.66 c -2.64,-2.13 0,-4.71 0,-4.71 l -10.36,-5.9 c 0,0 3.22,-3.88 -7.53,-1.46 -10.75,2.42 -8.32,6.87 -8.32,6.87 0,0 105.14,68.46 110.28,67.54 5.14,-0.92 20.08,3 20.08,3 l -22.65,-17.17 c 0,0 -22.94,-19.91 -37.78,-23.72 z M 538.5,786.76 c -5.87,-1.52 -156,-4.45 -159.42,-4 -3.42,0.45 -1.71,3.67 2.33,4 3.65,0.26 158.07,4.35 161.73,2.88 3.66,-1.47 1.22,-1.37 -4.64,-2.88 z M 893,544.22 c -0.49,-3.48 -20,-44.86 -23,-49.31 -4.89,-7.21 -6.45,-6.41 -4.89,-2.29 6.5,17.19 22,49.94 24,51.48 2,1.54 4.4,3.59 3.89,0.12 z"
         style="display:inline;fill:#dbdbdb"
         id="path3" />
    </g>
    <g
       id="Grey">
      <path
         d="m 648.73,553.56 c -7.16,-2.89 -16,8.44 -15.84,10.22 0.16,1.78 6.33,7.78 12.22,2.11 5.89,-5.67 6.17,-11.3 3.62,-12.33 z m 34.71,-23.12 c -2.11,0.12 -10.77,3.23 -12.22,4.72 -1.45,1.49 -1.78,3.28 2.34,4.41 4.12,1.13 15,-1 15.22,-4 0.22,-3 -1.4,-5.33 -5.34,-5.13 z m 40.23,171.31 c -1.75,0.08 -16.09,9 -17,12.58 -0.91,3.58 13.91,14.5 16.58,14.5 2.67,0 19.83,-11 19.83,-13.39 0,-2.39 -17.17,-13.8 -19.41,-13.69 z m 108.89,-49.81 c 3.83,0.67 17.77,-8.94 18.16,-12.16 0.39,-3.22 -14.88,-12.25 -19,-13.11 -0.65,-0.14 -15.81,9.61 -15.89,12.27 -0.08,2.66 12.89,12.34 16.73,13 z m 166.86,34 c -1.75,0.16 -16.67,3.08 -15.92,5.5 0.75,2.42 16.25,14.33 20.08,17.75 3.83,3.42 24.25,19.75 28.25,23.58 4,3.83 21.75,17.5 24.84,20.25 3.09,2.75 17.83,19.17 20.91,21.08 3.08,1.91 12.5,-0.75 17.25,-1.25 4.75,-0.5 6.25,-1.5 4.34,-4.75 -1.91,-3.25 -94.96,-82.64 -99.75,-82.18 z M 873.67,897.5 c -6.84,-0.83 -4.34,-1.17 -5.67,-5.33 -1.33,-4.16 -20,-16 -24.33,-15.84 -4.33,0.16 -5,-2.33 -5.65,-5.5 -0.65,-3.17 -20.35,-15 -23.78,-15 -3.43,0 -5.07,-1.5 -5.74,-4 -0.67,-2.5 -21.1,-14.61 -25,-15.5 -1.35,-0.3 -19.5,20.5 -19.5,22.5 0,2 117.83,82 119,82 1.17,0 15.17,-25 15,-27.5 -0.17,-2.5 -17.5,-15 -24.33,-15.83 z m 292.44,141.28 c -2.11,-0.11 -11.55,7.66 -11.89,10.35 -0.34,2.69 11.56,10.2 15.67,10.2 4.11,0 9.78,-8.77 9.22,-11.44 -0.56,-2.67 -10.89,-9 -13,-9.11 z m 92.67,-73.89 c -1.61,-0.45 -13,7 -12.45,9 0.55,2 10.11,8.66 14.11,8.88 4,0.22 10.67,-4.78 10.89,-7.78 0.22,-3 -10.09,-9.42 -12.55,-10.1 z M 279.56,285.67 c -2.34,0.45 -3,2.45 -5.23,4.89 -3.77,4.16 -16.66,15.72 -44.11,24.44 -4.2,1.33 -12.66,13.22 -14.66,17.33 -2,4.11 3.33,22.56 5.22,22.3 1.89,-0.26 12.78,-6.52 15.66,-6.74 2.88,-0.22 13.78,8 17,9 3.22,1 42.1,4.78 45.65,5 3.55,0.22 37,-21.11 38.11,-22.65 1.11,-1.54 -3.33,-22.8 -8.44,-31.31 -5.11,-8.51 -45.49,-22.93 -49.2,-22.26 z"
         style="display:inline;fill:#848484"
         id="path4" />
    </g>
    <g
       id="Detail"
       style="display:inline">
      <path
         d="m 274.78,389.34 c -6.34,3 -13.45,-4.67 -11.67,-8.67 1.78,-4 0.64,-11 -3,-12.34 -10.11,-3.66 -18.33,0 -16.67,4.56 1.66,4.56 37.67,31.67 50.89,29.67 13.22,-2 7.45,-10.23 2.89,-16.25 -4.56,-6.02 -16.11,0.02 -22.44,3.03 z M 407,326.44 c -1.67,-8.22 -21.76,-32.2 -26.89,-33 -18.67,-2.88 -21.67,10.45 -17.8,16.14 3.87,5.69 15.1,2.23 21.79,1.23 6.69,-1 14.46,6.41 9.31,8.3 -3.1,1.14 -11.44,3 -13.3,8.89 -2.24,7.14 1.33,13.33 13,13.39 11.67,0.06 15.56,-6.72 13.89,-14.95 z"
         style="fill:#ff7100"
         id="path5" />
    </g>
    <g
       id="Canopy"
       style="display:inline">
      <path
         d="m 739.44,544.44 c -0.55,-4.45 -7.55,-7.11 -9.88,-7.11 -2.33,0 -11.67,31.45 -12.23,34 -0.56,2.55 -40.66,28.11 -42.78,29.11 -2.12,1 -56.74,7.43 -58.2,7.11 -1.46,-0.32 -57.24,-39.11 -57.24,-39.11 -1.44,0.67 -1.55,4.89 0,8.23 1.55,3.34 46,36.11 47.78,39 1.78,2.89 8.67,11.66 9.67,12.44 1,0.78 51.55,-8.22 64.88,-11.11 13.33,-2.89 24.34,-10.78 28.78,-13.33 4.44,-2.55 18.67,-15.89 20.67,-16.56 2,-0.67 9.11,-38.22 8.55,-42.67 z"
         style="fill:#82b3d1"
         id="path6" />
    </g>
    <g
       id="Shadows"
       style="display:inline;opacity:0.2">
      <path
         d="m 1457.21,1173.58 c -5.16,19.5 -16.44,27.57 -27.47,34.41 -11.03,6.84 -29.58,5.19 -39.1,6.19 -9.52,1 -115.79,-30.07 -115.79,-30.07 L 1022,1082.35 616.18,874.83 538.56,782.74 385.9,766.24 c -7,0 -7.82,-0.69 -8.65,-2.2 -0.83,-1.51 -83.88,-184.51 -83.88,-184.51 L 271.16,567.7 c 0,0 -91.35,43.83 -102.25,49.3 -10.9,5.47 -9.88,5.22 -17.4,0 -7.52,-5.22 -76.26,-54.58 -76.26,-54.58 l -6.45,-18 -5.8,13.7 1,9.58 89.73,63 10.6,3.09 71.67,-32.6 42.83,-11.08 44.11,92.13 46.52,102.56 242.78,130.63 423.36,189 c 0,0 289.4,123.79 356.24,126.57 66.84,2.78 69.71,-47.3 69.71,-47.3 0,0 0.82,-29.62 -4.34,-10.12 z M 689.54,667.63 781.77,726 679.08,635.55 l -36.3,28.07 33.72,0.34 z M 326.29,505.89 c 0,0 107.62,80.21 121,87.22 13.38,7.01 109.61,56.48 109.61,56.48 l 40.93,-14 c 0,0 11.8,-0.57 5.85,-22.72 C 597.73,590.72 524.45,544 503.56,532 c -20.89,-12 -55,-59.17 -67.33,-74.37 -12.33,-15.2 -104.35,-52.62 -116,-57.43 -11.65,-4.81 -73.91,-35.2 -85.73,-41.6 -11.82,-6.4 -45.9,30.74 -45.9,30.74 l -43.44,16.77 87.56,60.89 z m 106.6,-121.62 138.35,23.81 -34.76,-37.17 -56.14,-48.83 -37.76,-30.48 -27.4,-16.9 -57.36,5.44 -29.53,23.24 23.06,25.06 z m 105.67,76.17 25.78,14.56 13.92,-4.48 5.34,-6.68 L 567,451.42 Z M 1274,973.9 l -15.8,-11.52 -7.26,5.29 15.38,9.75 z m -91.94,76.49 -1.29,-3.39 -15.37,-10.1 -5.57,7 14.08,9.11 z m 187.18,51.85 c 16,21.21 40.85,51.29 40.85,51.29 l 2.93,-6.69 -11.7,-20.71 -43.77,-56.81 -67.81,-65.92 7.66,23.81 c 0,0 55.81,53.79 71.85,75.03 z M 306.33,305.06 l -25.06,-19.39 -16.14,14.69 50.13,20.73 z m -54.19,21.38 -19.42,-13.37 -9.63,13.37 45.75,23.62 z"
         style="fill:#111111"
         id="path7" />
    </g>
    <g
       id="Outline"
       style="display:inline">
      <path
         d="M 567.64,711.9 Q 537.82,694.65 507.76,677.82 485,665 462.07,652.39 c -2.55,-1.4 -5.57,-2.91 -8.31,-2.8 -10.13,0.41 -30.38,1.71 -30.41,1.42 -6.11,0.45 -12.22,0.94 -18.34,1.33 -4.15,0.27 -5.15,2 -2.86,5.51 q 13,20 26.11,40 a 5.92,5.92 0 0 0 2.17,2.31 c 12.61,5.32 25.27,10.5 37.89,15.79 q 28.62,12 57.2,24.11 16,6.73 31.94,13.46 c 2.39,1 4.26,1 5,-2.31 2.47,-11.49 5.25,-22.91 7.57,-34.43 0.27,-1.45 -1.03,-4.11 -2.39,-4.88 z M 541.89,496.52 c 2.14,-2 5.08,-3.26 7.64,-4.89 13.19,-8.38 43.12,-25.29 40.41,-28 -7.33,-7.27 -17,-11.7 -25.47,-17.63 -4,-2.8 -7.87,-2.94 -11.9,0 -1.85,1.34 -3.83,2.49 -5.5,3.5 a 1.11,1.11 0 0 1 -1.52,-0.4 c -1.19,-2.06 -1.89,-3.84 -3.19,-4.75 -12.28,-8.61 -24.7,-17 -37.11,-25.46 -5.19,-3.52 -6.57,-2.92 -9.42,2.72 -2.23,4.4 -20,11.59 -24.18,13.59 a 33.62,33.62 0 0 0 -3.18,1.84 1.09,1.09 0 0 0 -0.38,1.46 10.12,10.12 0 0 0 2.43,3.54 q 14,10.14 28.17,19.9 c 4.08,2.79 8.42,5.21 12.83,7.83 a 1.1,1.1 0 0 1 0.11,1.81 c -2.55,2 -5.38,4.09 -8,6.4 a 5.51,5.51 0 0 0 -0.95,1.09 2.75,2.75 0 0 0 1,4 c 1.23,0.62 2.4,1.11 3.12,0.74 3.88,-2 6.57,-0.36 9.45,1.62 5.39,3.72 10.71,7.53 16.18,11.12 3.03,1.97 6.07,3.21 9.46,-0.03 z m -13.72,-25.74 c 7.69,-4.66 15,-9.29 22.63,-13.36 1.46,-0.78 4.42,0.8 6.49,1.73 a 25.77,25.77 0 0 1 4.67,3.34 c 3.94,3 7.91,3.67 11.71,-0.1 2.72,-2.7 4,-0.3 6.08,0.93 a 1.1,1.1 0 0 1 0,1.86 c -13.55,8.6 -26.4,16.64 -39.08,24.94 -3,1.95 -4.86,1 -7,-0.79 a 1.1,1.1 0 0 1 0.46,-1.91 6.16,6.16 0 0 0 1.21,-0.37 c 1.56,-0.7 3.94,-1.23 4.36,-2.4 0.77,-2.18 0.52,-4.45 -2.49,-5.9 -3.01,-1.45 -5.84,-3.78 -9.09,-6.15 a 1.1,1.1 0 0 1 0.05,-1.82 z m 328.66,168.91 c 0.49,-1.12 -3.22,-2.91 -3.22,-2.91 -6.08,-4.42 -12.21,-9 -18.51,-13.33 -1.21,-0.83 -3.68,-1.42 -4.65,-0.76 -6.35,4.29 -12.5,8.88 -18.6,13.52 -2.64,2 -2.89,3.67 0.53,5.79 5.65,3.52 10.86,7.76 16.35,11.76 1.46,1.07 3,3.27 4.06,2.62 0.69,-0.43 6.82,-4.45 11.75,-7.65 1.8,-1.26 3.66,-2.46 5.58,-3.57 l 0.11,-0.07 c 3.09,-1.88 6.12,-4.27 6.6,-5.4 z m -22.12,8.77 A 4,4 0 0 1 831,648.4 c -2.81,-2.23 -9.48,-7.29 -13,-10 4.85,-3.27 9.39,-6.44 14.09,-9.36 0.55,-0.34 2.11,0.55 3,1.18 4.05,3 8,6.07 12.54,9.51 -4.63,3.16 -8.63,6.09 -12.92,8.73 z m 292.44,187.87 q -26,-19.17 -52,-38.42 l -0.13,-0.1 a 5.94,5.94 0 0 0 -7,-0.13 v 0 q -14.89,11.32 -29.67,22.78 c -3.76,2.93 -3.58,5.17 0.39,7.91 7.83,5.42 15.76,10.7 23.49,16.26 9,6.43 16.16,11.88 25,18.49 2.1,1.58 5.64,4.58 7.65,4.58 2.01,0 4.21,-1.6 6.43,-3.11 6.89,-5.19 21.33,-16.59 25.76,-20.19 4.43,-3.6 4.6,-4.74 0.08,-8.07 z M 1103.4,856 c -4.73,3.87 -7.25,6.87 -10.71,4.62 -3.8,-2.31 -7.16,-5.34 -10.73,-8 l -38.38,-28.85 11.4,-8.58 c 8.69,6 50.71,36.34 52.59,37.8 a 33,33 0 0 1 -4.17,3.01 z m 8.89,-7.43 c -6.43,-4.54 -43.72,-31.78 -52.74,-36.84 l 12,-9.5 51.53,38.31 z M 703.2,717.94 c 3.93,2.75 7.56,5.93 11.4,8.82 2.41,1.81 4.9,3.51 7.36,5.22 a 3.74,3.74 0 0 0 3.75,0.31 8.68,8.68 0 0 0 2,-1.22 90.27,90.27 0 0 1 14.37,-10.37 c 5.78,-3.25 6.69,-5.49 2.83,-8.44 -5.59,-4.28 -11.06,-8.71 -16.78,-12.8 -1.46,-1 -4.31,-2.07 -5.41,-1.36 -6.86,4.36 -13.49,9.1 -20,14 -2.3,1.74 -2.33,3.9 0.48,5.84 z m 18.87,-12.47 c 0.82,-0.53 2.5,-0.8 3.16,-0.33 4.62,3.29 9.08,6.8 14,10.53 -5.2,3.74 -9.63,7 -14.2,10.1 a 3.14,3.14 0 0 1 -2.84,-0.39 c -4.38,-3.47 -8.63,-7.1 -13.24,-10.94 4.73,-3.27 8.86,-6.22 13.12,-8.97 z m -92.18,-139 c 4,2.27 8.17,4.11 12.28,6 a 2.31,2.31 0 0 0 2,0 c 1.42,-0.72 2.56,-1.13 3.13,-2 2.88,-4.17 5.55,-8.48 8.17,-12.82 a 4.71,4.71 0 0 0 0.66,-3.14 c -0.77,-3.5 -12.54,-8 -15.12,-5.49 a 119.77,119.77 0 0 0 -11.13,12.86 c -0.75,1.04 -0.68,4.19 0.01,4.59 z M 642.79,556 c 1.25,-0.8 3.34,-0.28 5.05,-0.36 -0.37,1.35 -0.37,3 -1.15,4 -5.39,7.11 -5.56,7.11 -11.39,2.68 2.54,-2.2 4.8,-4.6 7.49,-6.32 z M 483.72,482 a 4,4 0 0 0 -2.17,0.5 12.1,12.1 0 0 0 -4,4.19 c -7.3,14.87 -13.56,30.13 -17.12,47.52 -0.43,2.9 1.89,4 3.11,3.5 0.34,-0.15 2.84,-1.33 2.86,-2.09 0.16,-7.82 3.35,-14.72 6,-21.81 3.61,-9.51 6,-19.56 12.87,-27.59 0.48,-0.56 0.32,-1.68 0.16,-2.8 A 1.66,1.66 0 0 0 483.72,482 Z M 671,542.26 a 7.79,7.79 0 0 0 5.69,1.91 128.05,128.05 0 0 0 14.79,-3.38 c 1.24,-0.34 2.26,-1.52 3.11,-2.12 a 20.5,20.5 0 0 0 -0.46,-2.29 c -3.57,-8.94 -8.74,-11.32 -17.84,-8.22 -1,0.36 -2.07,0.8 -3.09,1.24 -10.76,4.6 -10.84,4.7 -2.2,12.86 z m 12.35,-10.26 3.54,3.54 -13.26,2.46 c -0.19,-0.71 -0.39,-1.42 -0.58,-2.13 z M 732,456.48 c 2.16,5.89 3.15,12.17 8.55,16.7 13.31,11.17 26.28,22.75 39.29,34.28 13.01,11.53 25.67,23.08 38.58,34.52 a 11.74,11.74 0 0 0 5.27,2.72 c 10,1.93 20,3.67 30.1,5.29 a 6.24,6.24 0 0 0 2.41,-0.19 2.37,2.37 0 0 0 1.8,-2.8 5.15,5.15 0 0 0 -1,-2.37 c -5.33,-6 -10.84,-11.77 -16.41,-17.52 -12.77,-13.18 -25.62,-26.29 -38.42,-39.44 -0.77,-0.8 -1.33,-1.82 -2.12,-2.6 -8.23,-8.14 -15.08,-17.71 -25.75,-23.28 -10.67,-5.57 -21.1,-11.82 -31.68,-17.68 -4,-2.23 -8.15,-4.23 -11.49,-5.94 -3.55,-2 -4.72,1 -3.69,4.25 1.43,4.71 2.83,9.44 4.56,14.06 z m -626.73,89.76 c -3.34,-1.6 -5.57,-2.73 -6.87,-2 -1.3,0.73 -24.66,14.53 -23.15,18.2 2.28,5.54 8.64,8.8 11.35,10.77 2.71,1.97 14.33,9.73 17.54,7.79 1.84,-1.12 17.08,-19.86 17.73,-22.48 0.65,-2.62 -14.7,-11.36 -16.6,-12.28 z m 45.29,-42.82 c -2.61,0.32 -12.26,8.88 -11.09,11.41 2.29,4.89 16.63,10.1 20.22,8.7 3.59,-1.4 9.12,-11.31 8.15,-13.72 -0.97,-2.41 -14.67,-6.72 -17.28,-6.39 z M 515.47,288 c 5.34,3 9.33,-0.43 11.28,-2.39 1.95,-1.96 -6.32,-7.06 -9.77,-9.85 -2.62,-2.12 -6.52,-0.57 -9.13,0 -2.61,0.57 2.28,9.24 7.62,12.24 z m 511.73,628.47 c -4.62,-3.42 -9.32,-6.75 -13.86,-10.26 -13.3,-10.28 -26.5,-20.67 -39.88,-30.84 -1,-0.75 -3.13,-1 -6.1,1 L 934,900.76 a 2.32,2.32 0 0 0 -0.81,2.68 5,5 0 0 0 1.38,2.31 c 4.14,3.12 8.69,5.69 12.77,8.88 14.44,11.31 23.64,19.89 38.55,30.57 3.94,2.82 10.44,1.38 11.28,0.72 10,-7.79 19.75,-15.79 30,-23.11 4.03,-2.81 2.88,-4.24 0.03,-6.34 z m -31.53,23.63 c -1.53,0.86 -4.54,1 -5.82,0.09 -9.14,-6.74 -18,-13.9 -27,-20.83 -7.35,-5.67 -14.69,-11.34 -22.23,-16.75 l 12.2,-8.4 c 0.24,0.38 44.38,34.22 51.06,39.47 -2.69,2.19 -5.21,4.73 -8.21,6.42 z m 14.1,-11.22 c -9.84,-7.94 -42.32,-33.66 -49.94,-39.48 l 11.88,-8.2 c 9,6.88 18.1,13.71 27.11,20.6 7.74,5.91 15.43,11.89 23.15,17.84 -3.86,2.91 -9.65,7.36 -12.2,9.24 z m 362.3,236.25 c -1.26,-1.39 -2.29,-3.55 -3.84,-4 -10.15,-3.2 -20.41,-6.07 -30.65,-9 -2.58,-0.73 -5.22,-1.22 -7.84,-1.81 -0.55,2.55 -7.9,28.8 -11,39.12 -0.77,2.6 -0.49,4.2 2.71,4.88 5.12,1.09 10.13,2.66 15.18,4.08 11.16,3.11 22.29,6.36 33.51,9.26 1.38,0.36 4.87,1 4.87,-1.73 v 0 l -3,-40.79 z m 89.9,-11.05 c -0.53,-6.29 -1.26,-13.06 -4,-18.55 -4.85,-9.65 -11.22,-18.54 -17.1,-27.65 -7.87,-12.19 -15.64,-24.44 -23.88,-36.37 q -11.7,-17 -24.33,-33.28 c -7.77,-10 -16.11,-19.6 -24.21,-29.37 -9.32,-11.24 -18.49,-22.63 -28,-33.68 -10.76,-12.44 -21.89,-24.58 -32.85,-36.86 q -20.31,-22.74 -40.62,-45.48 c -6,-6.74 -12.14,-13.4 -18.16,-20.15 q -23.14,-26 -46.27,-52.08 c -6.67,-7.48 -13.53,-14.79 -20.22,-22.24 -13.57,-15.14 -26.94,-30.45 -40.67,-45.44 -11.49,-12.56 -23.33,-24.79 -35.08,-37.11 q -22.08,-23.16 -44.27,-46.21 c -13.1,-13.56 -26.15,-27.18 -39.56,-40.44 -7.69,-7.59 -41.09,-38.6 -48.15,-45.38 q -16.71,-16 -33.25,-32.25 c -4.83,-4.71 -9.38,-9.72 -14.36,-14.27 -12.63,-11.54 -25.54,-22.77 -38.12,-34.36 -12.3,-11.33 -25,-22.36 -36.26,-34.65 -8.52,-9.28 -19.09,-14.79 -29.81,-20 -18.12,-8.84 -36.8,-16.5 -55.18,-24.81 -13.33,-6 -26.53,-12.34 -39.83,-18.44 -15.21,-7 -30.47,-13.84 -45.7,-20.76 -12.41,-5.64 -48.65,-22.37 -52.58,-24.05 -5.1,-2.18 -4.79,-2.23 -1.57,-6.75 5,-7 12.28,-12.33 13.09,-22.21 0.86,-10.53 1.74,-10.08 -6.82,-16.44 -7.56,-5.62 -15.45,-10.79 -23.11,-16.26 -13.26,-9.47 -26.46,-19 -39.69,-28.53 -4.54,-3.25 -8.68,-7.76 -13.75,-9.41 -9.18,-3 -18.9,-4.32 -28.42,-6.25 -10.77,-2.18 -21.56,-4.24 -32.34,-6.38 q -13.35,-2.65 -26.67,-5.4 c -6.7,-1.38 -13.45,-2.57 -20.05,-4.31 -8.43,-2.23 -16.71,-5 -25.09,-7.4 -9.94,-2.84 -19.94,-5.49 -29.88,-8.32 -6.57,-1.88 -13,-4.5 -19.66,-5.74 -6.66,-1.24 -11.59,-7.37 -19,-5.72 -0.23,0.05 -0.55,-0.41 -0.84,-0.44 -4.47,-0.45 -8.95,-1.2 -13.43,-1.21 -6.15,0 -12.31,0.51 -18.46,0.92 a 21.58,21.58 0 0 0 -6.55,1.12 4.26,4.26 0 0 0 -1.88,3.49 c 0.26,4.13 1.49,8.24 1.42,12.35 -0.12,6.6 3.55,10.45 8.66,13.22 10.7,5.8 21.55,11.31 33.32,17.46 l -17.52,8.14 c -3.88,1.79 -8,3.23 -11.59,5.43 -7.81,4.76 -15.32,10 -23.11,14.78 -1,0.63 -3,0 -4.48,-0.38 -2.42,-0.57 -4.77,-1.44 -7.18,-2.07 -1.94,-0.5 -4.34,-0.28 -5.84,-1.35 -6,-4.29 -10.34,-3.41 -14.24,2.83 -2.05,3.29 -4.35,6.92 -7.48,9 -8,5.17 -16.41,9.64 -24.8,14.13 -1.29,0.69 -3.49,0.46 -5,-0.12 -3.39,-1.34 -9,-0.18 -10.27,3.12 -2.38,6.15 -6.72,10.11 -12.16,13.46 a 7,7 0 0 0 -2.72,5.45 c 0.77,8.38 2.08,16.71 3.21,25.09 -1.73,1 -3.71,2.31 -5.76,3.44 -2.24,1.23 -4.47,3.14 -6.83,3.34 -7,0.59 -14.13,0.25 -21.17,0.74 a 37.27,37.27 0 0 0 -10.6,2.42 c -3.42,1.31 -5.91,2.37 -10.11,0.72 -19.24,-7.56 -39,-13.88 -58.22,-21.38 -8.85,-3.45 -15.53,-2.48 -21.71,4.79 A 119.07,119.07 0 0 1 67.77,363 c -11.09,9.4 -9,20 -4,31.89 4,9.38 9.51,18.1 14.35,27.11 3.76,7 8,13.78 11.1,21 1.68,3.88 3.06,9 2,12.79 -7.74,27.88 -16.22,55.53 -24.22,83.3 -1.81,6.24 -3.87,12.65 -4,19 -0.13,4.71 -0.25,10.75 4.32,14.12 13.87,10.25 28,20.2 42.06,30.16 12.63,8.94 25.52,17.53 38,26.7 6.34,4.67 13.09,6.6 20.15,3.73 10.82,-4.39 21.22,-9.8 31.83,-14.72 12.29,-5.7 24.61,-11.35 36.71,-16.92 1.86,2.88 3.14,6.26 5.56,8.32 5.33,4.54 11.27,8.36 16.89,12.58 12.53,9.43 25,18.93 37.51,28.37 3.56,2.69 4.59,4.69 5.37,10.68 0.14,1 0.45,2.17 0.59,3.27 1.1,8.24 2,16.52 3.36,24.72 0.47,2.82 1.39,6.29 3.37,8 8.72,7.54 17.92,14.53 26.91,21.77 a 10,10 0 0 1 2.8,3.12 c 8.42,17.55 16.59,35.22 25.18,52.68 3.8,7.72 8.23,15.07 16.41,19.32 12.26,6.37 24.28,13.19 36.51,19.63 2.6,1.37 5.21,2.72 7.82,4.07 h 0.05 l 0.53,0.27 c 10.36,5.35 20.77,10.61 31.12,16 20.37,10.55 40.77,21.06 61,31.82 11,5.87 22.32,11.53 32.66,18.51 13.1,8.85 25.38,18.92 38,28.51 14.39,10.94 28.8,21.85 43.07,32.95 3.27,2.54 6.16,2 9.16,0.14 3.82,-2.31 7.39,-5.06 11.32,-7.15 1.69,-0.89 4.37,-1.43 6,-0.72 10.79,4.74 21.4,9.88 32.1,14.86 17.17,8 34.32,16 51.56,23.88 15.73,7.17 31.57,14.1 47.34,21.21 11,5 21.95,10.19 33,15.07 19.95,8.78 40,17.4 60,26.06 11.82,5.12 23.84,9.81 35.44,15.37 9.05,4.33 37.49,17.06 40.91,18.14 6.81,2.15 13.38,5.13 20,7.87 q 40.16,16.65 80.27,33.38 c 24.24,10.1 48.41,20.36 72.67,30.39 16.74,6.92 33.52,13.75 50.42,20.28 28.45,11 56.94,21.9 85.55,32.48 11.76,4.35 23.8,7.92 35.81,11.52 12.01,3.6 23.87,6.73 35.82,10 10.87,3 21.69,6.2 32.64,8.87 7,1.69 14.22,4.13 21.1,3.52 13.8,-1.22 27.43,-4.24 41.1,-6.69 a 10.9,10.9 0 0 0 5,-2.58 c 5.31,-4.75 10.32,-9.84 15.68,-14.53 4.87,-4.25 5.08,-9.78 6.64,-15.79 1.35,-5.18 1.79,-12.58 2.12,-18.87 A 136.75,136.75 0 0 0 1462,1154.08 Z M 1206.23,834.6 a 4.23,4.23 0 0 1 2.77,1.4 q 10,11 19.94,22.1 c 0.32,0.5 1,1.69 1.81,3.42 L 1190.57,835 c 5.22,-0.13 10.43,-0.32 15.66,-0.4 z m -22.43,1.4 49.73,31.21 c 11.51,24.16 40.08,87.49 46.11,100.08 a 0.29,0.29 0 0 1 -0.46,0.32 c -2.64,-2.56 -5.54,-5.9 -7.9,-8.64 -5.48,-6.34 -23.31,-24 -26.67,-27 -13.79,-12.34 -25.25,-23.16 -38.88,-35.69 -4.74,-4.35 -11,-10.07 -15.45,-14.72 -4.87,-5.14 -21,-20 -21,-20.1 -3.46,-6.16 -33.82,-31.26 -44,-38.61 -10.18,-7.35 -53.41,-44.55 -53.41,-44.55 -1.41,-0.89 -2.85,-1.74 -4.23,-2.68 -4.44,-3.06 -9.14,-5.84 -13.25,-9.3 q -21.23,-17.88 -42.09,-36.21 c -4,-3.47 -7.35,-7.6 -11.32,-11.08 -5,-4.41 -10.21,-8.7 -15.66,-12.59 -4.57,-3.25 -8,-7 -9.75,-13.31 a 0.88,0.88 0 0 1 1,-1.1 5.31,5.31 0 0 1 2.46,0.85 c 5,4.35 9.79,8.87 14.67,13.33 0.58,0.53 9.52,3.8 10.4,6.25 1.89,5.3 8.65,9.8 13.6,14 3.52,2.95 6.39,7.34 12,7.46 0.88,0 1.36,3.28 2.58,4.48 a 125.29,125.29 0 0 0 11.9,10.68 c 3.62,2.74 7.93,4.54 11.64,7.17 1.43,1 1.7,3.56 3.05,4.81 5.78,5.39 11.73,10.6 17.74,15.73 a 5.21,5.21 0 0 0 3.59,0.8 c 7.75,-0.85 15.5,-1.71 23.2,-2.85 3.34,3.48 12,10.18 14.71,12.13 3.1,2.21 47.77,38.79 60.42,46.83 a 27.06,27.06 0 0 0 5.27,2.3 z m -8.87,225.51 c 3,-3.49 5.87,-6.15 8.69,-8.92 2.32,-2.29 2.62,-8 0.54,-9.64 -4,-3.19 -7.78,-7 -12.32,-9 -3.11,-1.42 -8.55,-1.84 -10.86,0 -5.39,4.21 -13.94,6.79 -11.78,17 -8,-3.37 -15.09,-6.18 -18.39,-14.3 -0.93,-2.3 -3.31,-4.34 -5.51,-5.74 -28.65,-18.27 -57.46,-36.28 -86,-54.65 -4.83,-3.11 -9.48,-4.67 -14.45,-3.61 v 0 l -116.2,-71.11 a 14.31,14.31 0 0 0 0.12,-3.26 c -0.9,-8.45 -2.36,-16.84 -3,-25.3 -0.49,-6.92 -2.39,-12.2 -8.69,-16.29 -8.3,-5.37 -15.59,-12.29 -23.81,-17.8 -3.64,-2.44 -8.41,-3.57 -12.84,-4.41 -19.89,-3.79 -39.74,-8 -59.8,-10.59 a 34.69,34.69 0 0 1 -4.93,-1 c 0,0 77.19,-62.67 78.88,-63.88 l 1,-0.41 c 2.95,-1 5.19,0.47 8.33,2.46 3.14,1.99 518.45,393.16 520.41,395.11 1.19,1.2 -2,2.4 -4.66,3.14 a 6.31,6.31 0 0 1 -3.75,-0.08 214.85,214.85 0 0 1 -21,-8.15 c -17.11,-7.78 -34.12,-15.84 -50.81,-24.46 -16.69,-8.62 -32.92,-18.14 -49.42,-27.13 -16.93,-9.22 -33.93,-18.3 -50.92,-27.4 -5.06,-2.7 -12.17,-7.32 -17.6,-7.61 -7.88,-0.44 -23.48,-0.44 -30.11,-0.43 a 1.49,1.49 0 0 1 -1.12,-2.56 z m -5,-5.06 a 3.21,3.21 0 0 1 -3,0.3 c -3.39,-2.36 -6.61,-5 -10.22,-7.76 l 9.13,-7.68 c 1.82,1.44 3.64,2.93 5.51,4.34 1.87,1.41 3.85,2.8 6,4.33 -2.48,2.16 -4.86,4.44 -7.45,6.45 z M 807.14,859.59 c 7.92,-2 13,3.18 18.69,6.9 1.87,1.23 4,2.18 5.51,3.76 a 9.87,9.87 0 0 1 2.81,5.3 c 0.5,5 1.12,5.65 6.06,4.86 3.08,-0.48 5.92,-0.72 8.75,2.06 3.13,3.06 7.22,5.23 11.11,7.41 a 10.13,10.13 0 0 1 5.57,8.83 c 0.12,1.53 0.55,3.59 1.61,4.36 1.06,0.77 4.43,0.79 4.56,0.39 1.73,-5.16 4.56,-2.19 6.65,-0.83 5.48,3.55 10.75,7.44 16.92,11.77 -5.48,8.41 -8,13.86 -14,23 L 766.7,857.71 c 6.23,-6.71 8.93,-9.82 14.53,-15.89 2.88,-3.12 5.52,-3.42 9,-0.35 3.31,2.93 7.36,5 11,7.62 2.35,1.68 4.88,3.3 3.25,7.12 -0.3,0.67 2.04,3.53 2.66,3.38 z m -283,-351.07 c -0.72,-0.71 -4.78,1.1 -6.62,2.6 -2.44,2 -4.2,4.81 -6.42,7.47 -4.7,-3.14 -9.43,-5.81 -13.56,-9.2 -3.73,-3.07 -5.48,-1.43 -6.84,1.93 -2.92,7.23 -8.58,22.77 -8.73,23.22 -2.74,8.11 -2.74,8.11 4.08,13 l -17.12,25.66 c -19.5,-14 -19.11,-14.56 -38.53,-28 -4.58,-4.34 -34.29,-71.49 -35.75,-89.37 -0.49,-6 -47,-9.88 -53,-14.66 -13.8,-11.19 -33.7,-21.46 -41.51,-30.06 -3.83,-4.21 -3.63,-4.27 0.91,-7.32 a 23.67,23.67 0 0 0 7.64,-8.49 c 0.91,-1.77 -0.14,-5.49 -1.59,-7.35 -7.37,-9.48 -17.25,-9.37 -27.67,-6.4 -3.1,0.88 -6,1.77 -7.59,5.12 -0.31,0.66 -2.82,0.91 -3.88,0.41 -0.87,-0.4 -1.85,-2.82 -1.47,-3.29 5.23,-6.5 1.43,-10.63 -2.53,-14.74 v 0 c -0.51,-0.53 -1,-1 -1.52,-1.59 v 0 c -6.37,-5.46 -18.63,-3.26 -25.17,-0.9 -1.71,0.61 -3.95,-0.24 -6.07,-0.79 a 0.49,0.49 0 0 1 -0.09,-0.92 c 10.28,-4.77 30.49,-5.12 44.93,-3 l 24.2,3.23 c 1.56,2 2.41,3.93 3.88,4.9 9.41,6.18 18.95,12.15 28.4,18.17 -3.76,2.51 -8.27,5.14 -12.26,8.41 -1.25,1 -1.57,3.75 -1.52,5.68 0.05,2.37 0.9,4.55 4.3,3.17 0.7,-0.29 2.05,0.59 2.93,1.19 5.52,3.81 11.05,7.6 16.44,11.59 2.59,1.92 6.25,3.09 6.07,7.47 0,0.53 1.65,1.54 2.57,1.58 0.92,0.04 2.69,-0.78 2.73,-1.32 0.48,-6.54 6.39,-8.23 11.57,-10.8 1.54,-0.76 13.06,-6 13.1,-6 l 66.33,30.27 a 59.91,59.91 0 0 0 -4.46,6.14 4.39,4.39 0 0 0 -0.28,2.33 1.64,1.64 0 0 0 1.43,1.53 4.21,4.21 0 0 0 2.61,-0.17 c 1.68,-1.07 2.71,-3.13 4.36,-4.26 11.14,-7.54 22.37,-15 33.58,-22.38 3.46,-2.29 7.27,-4.14 10.42,-6.78 5.59,-4.69 11.09,-1.76 16.56,-0.35 17.06,4.39 46.1,19.44 49.62,19.81 16,1.67 26.25,14 38.86,21.75 6,3.67 11.09,3.7 17.06,2 a 35.2,35.2 0 0 0 5.06,-1.36 c 8.49,-3.77 16.61,0.2 24.85,1.12 3.15,0.35 6.22,1.38 9.37,1.74 1,0.12 3.17,-1 3.13,-1.38 -0.13,-1.59 -0.44,-3.76 -1.54,-4.59 -5.71,-4.35 -11.65,-8.4 -17.57,-12.46 q -11.44,-7.86 -23,-15.58 c -3.17,-2.13 -6.41,-4.16 -9.77,-6.34 l 4.3,-2.49 c 22.82,15.15 45.9,30 68.43,45.57 22.53,15.57 44.33,31.93 66.68,48.1 -4.83,5.35 -0.06,9 1.44,12.65 5,11.94 10.84,23.51 16.28,35.26 a 7.4,7.4 0 0 1 0.66,3.65 c -1,13.1 -2,26.19 -3.12,40.37 l -23.19,-21.46 c 3,-12 5.8,-23.89 9.12,-35.59 0.83,-2.94 0.31,-4.67 -1.75,-6.29 -9.13,-7.17 -18,-14.69 -27.51,-21.31 -11.21,-7.8 -23,-14.79 -34.49,-22.18 a 6.47,6.47 0 0 1 -1.46,-1.49 c 1.42,-2.77 4.17,-5.67 3.58,-7.51 -1.22,-3.87 -5.54,-2.42 -8.57,-2.26 a 94.22,94.22 0 0 0 -14.18,1.93 c -0.94,0.2 -1.66,1.47 -2.42,2.57 a 1,1 0 0 0 0.22,1.39 12.42,12.42 0 0 0 2.73,1.78 c 2.85,1.16 6.08,1.62 8.68,3.16 a 161.7,161.7 0 0 1 15.95,10.61 c 12.7,9.67 27.19,16.66 39.81,26.79 -3.17,10.06 -6.78,20.23 -9.52,30.63 -2,7.5 -7.85,9.86 -13.63,13.07 -5.39,3 -10.37,6.74 -15.45,10.28 a 53.43,53.43 0 0 0 -5.64,4.41 c -6.45,5.92 -14.69,6.46 -22.59,7.63 q -19.24,2.82 -38.6,4.77 c -2.43,0.24 -5.46,-0.94 -7.54,-2.41 -16.95,-12 -33.66,-24.36 -50.65,-36.32 -2.4,-1.69 -2.22,-6 -6.81,-5.65 -2.32,0.17 -3.86,-0.51 -5.48,2 -3.45,5.36 -7.56,10.3 -11.18,15.57 a 5.77,5.77 0 0 0 -0.64,2.93 1.52,1.52 0 0 0 1.31,1.6 10.2,10.2 0 0 0 3.34,0.11 12.11,12.11 0 0 0 5.25,-2.16 c 1.1,-0.9 1.37,-4.41 2,-4 a 53.24,53.24 0 0 1 7.34,5.21 c 14.35,11.33 28.64,22.75 42.59,34.57 a 57.85,57.85 0 0 1 10.73,13 c 2.17,3.36 4.57,3.41 7.77,2.92 12.31,-1.9 24.67,-3.56 37,-5.66 6.11,-1 12.06,-3 18.13,-4.2 1.49,-0.31 3.69,-0.12 4.71,0.79 11.22,10 22.19,20.27 33.39,30.29 13.7,12.25 27.57,24.29 41.3,36.51 5.08,4.51 9.84,9.41 15,13.78 1.31,1.1 4.78,1.79 5.51,1 1.86,-2 0.33,-3.45 -1.78,-5.2 -7.57,-6.3 -14.67,-13.16 -22,-19.73 -14.95,-13.39 -30,-26.69 -44.92,-40.1 -5.65,-5.08 -11.13,-10.35 -17.5,-16.29 20.12,-6.15 35.28,-18.39 48.76,-33.61 6.32,6.31 12.14,12.3 18.15,18.09 14.94,14.42 30,28.72 45,43.15 q 9.13,8.82 18,18 c 2.45,2.52 4.71,3.9 7.69,0.66 7.2,8.31 18.21,13 21.21,25.24 -1.52,1.11 -4.24,2.92 -4.66,2.55 -8.28,-7.4 -27.36,-21.71 -29.48,-23.5 -1.77,-1.5 -3.77,-0.68 -3.84,-0.19 -0.2,1.3 -0.24,3.06 0.49,4 1.41,1.73 3.41,3 5.23,4.51 l -28.7,20 c -1.57,-2.22 -2.72,-4.34 -4.37,-6 a 4.37,4.37 0 0 0 -3.81,-0.9 c -0.71,0.26 -1.38,2.47 -1,3.45 a 13.72,13.72 0 0 0 3.15,5.18 c 6.24,6.14 12.72,12 19,18.19 1.06,1 2.89,3.94 2,4.3 l -4.94,1.86 a 3,3 0 0 1 -2.62,-0.27 C 771,713.9 737.51,695.57 717,682.69 c -10.92,-6.85 -21.79,-13.8 -33,-20.25 -2.85,-1.65 -6.72,-2.17 -10.11,-2.15 -14.12,0.07 -28.27,0 -42.34,1 -16.42,1.16 -31.77,-3.31 -47.29,-7.25 -11.4,-2.89 -23,-5.24 -34.15,-8.78 -4.83,-1.53 -9,-5.27 -13.31,-8.29 -12.52,-8.85 -25.06,-17.67 -37.34,-26.84 -7.71,-5.75 -14.83,-12.29 -22.47,-18.15 -10,-7.69 -20.27,-15.06 -30.44,-22.55 -12.31,-9.09 -24.75,-18 -36.88,-27.34 a 27.94,27.94 0 0 1 -6.32,-7.5 0.67,0.67 0 0 1 0.95,-0.9 c 5.31,3.73 10.63,7.42 15.89,11.22 11.14,8 22.23,16.18 33.35,24.25 4.52,3.28 9.05,6.55 13.63,9.74 2.74,1.9 4.52,0.87 6.27,-1.81 7.91,-12.18 15.86,-24.34 24.11,-36.28 2.74,-3.95 6.35,-7.32 9.71,-10.8 4.76,-4.92 9.72,-9.65 14.48,-14.57 1.88,-1.93 5.52,-3.84 2.4,-6.92 z M 332.26,463.11 c -3.59,-4.31 -6.1,-7.89 -9.8,-12.13 -11.09,-12.73 -21.66,-25.94 -33.14,-38.3 -4.45,-4.78 -10.66,-8 -16.28,-11.6 -14.83,-9.49 -29.76,-18.8 -44.66,-28.17 a 1.07,1.07 0 0 1 -0.4,-1.36 v 0 a 1.08,1.08 0 0 1 1.36,-0.55 c 3.53,1.31 7.3,2.25 10.37,4.27 15.21,10 30,20.6 45.32,30.35 8.78,5.58 16.57,13.69 23.18,21.22 5,5.69 10,11.38 15,17.12 9.87,11.45 19.63,23 29.58,34.38 6.49,7.42 12.27,14.59 18.88,21.9 5.85,6.46 10.87,12.8 16.39,19.53 1.36,1.66 1.44,5.14 1.61,7 0.17,1.86 0.25,3 -1.67,1 -4,-4.18 -8.27,-8.17 -12,-12.59 -8.78,-10.43 -17.37,-21 -25.9,-31.64 -5.44,-6.77 -12.34,-13.83 -17.84,-20.43 z m 9.36,28.16 c -6.59,4.06 -12.47,-2.29 -16.34,-5.09 -13.32,-9.65 -20.46,-14.77 -31.57,-22.54 -7.51,-5.25 -15,-10.58 -22.44,-15.87 a 0.57,0.57 0 0 1 0.52,-1 c 5.79,2.06 11.59,4.08 17.36,6.19 13.68,5 23.38,15.8 34.78,24.1 6.07,4.42 11.74,9.41 17.69,14.21 z M 246,370.15 c 2.38,-1.62 6.86,-0.89 9.67,-0.92 a 6,6 0 0 1 5.13,2.77 11,11 0 0 1 1.17,5.21 c -1.24,4.06 -9.44,0.8 -16.44,-4.38 -0.95,-1.15 -0.7,-1.83 0.47,-2.68 z m 52.73,20.55 -0.79,-0.26 -0.62,-0.21 -0.68,-0.19 -0.61,-0.17 -0.67,-0.15 -0.61,-0.13 -0.68,-0.12 -0.61,-0.1 -0.68,-0.08 -0.59,-0.07 h -0.69 -0.59 -1.28 -0.71 -0.56 l -0.73,0.07 -0.54,0.07 c -0.26,0 -0.51,0.08 -0.76,0.12 l -0.52,0.08 -0.84,0.19 -0.43,0.09 c -0.85,0.21 -1.7,0.46 -2.55,0.76 l -0.35,0.14 c -0.31,0.11 -0.62,0.22 -0.93,0.35 l -0.46,0.2 -0.83,0.35 -0.48,0.24 -0.83,0.4 a 0.72,0.72 0 0 1 -1,-0.83 v -0.07 a 2.88,2.88 0 0 1 0.19,-0.47 2.86,2.86 0 0 1 0.45,-0.87 c 0.08,-0.12 0.15,-0.25 0.23,-0.35 0.08,-0.1 0.23,-0.24 0.34,-0.35 a 3.7,3.7 0 0 1 0.28,-0.28 4.1,4.1 0 0 1 0.4,-0.29 c 0.1,-0.07 0.2,-0.15 0.3,-0.21 0.1,-0.06 0.31,-0.16 0.47,-0.24 l 0.31,-0.16 0.54,-0.2 0.3,-0.11 a 5.94,5.94 0 0 1 0.6,-0.18 l 0.28,-0.09 0.51,-0.13 0.38,-0.1 0.47,-0.11 0.65,-0.15 0.48,-0.11 0.63,-0.13 0.49,-0.09 0.62,-0.1 0.5,-0.07 0.59,-0.09 0.5,-0.05 0.59,-0.05 h 0.49 0.58 1.05 c 0.17,0 0.33,0 0.49,0 h 0.56 l 0.48,0.07 a 5,5 0 0 1 0.54,0.08 l 0.48,0.1 0.53,0.12 0.47,0.14 0.52,0.16 0.46,0.18 0.51,0.21 0.45,0.23 c 0.16,0.08 0.33,0.16 0.49,0.26 l 0.45,0.27 0.48,0.31 0.43,0.32 c 0.16,0.12 0.32,0.23 0.47,0.36 l 0.42,0.38 c 0.13,0.11 0.25,0.21 0.37,0.33 v 0 l 0.16,0.14 a 0.37215588,0.37215588 0 0 1 -0.38,0.64 z m -2.1,9.46 c -3.8,0 -14.83,-1.79 -15.33,-3.54 -0.44,-3.65 12.36,-3.55 16.3,-1.54 2.16,1.22 2.1,4.02 -0.99,5.08 z M 843,707.64 c -0.31,-3.7 1,-5.68 4.22,-7.54 6.33,-3.68 6.45,-4.06 4,-10.62 -2,-3.28 -3.28,-6.54 -5.46,-9 -5.85,-5.54 -11.57,-11 -17,-16.12 -3.31,-2.57 -5.18,-5.41 -7.43,-7.43 v 0 a 31.07,31.07 0 0 1 -3.67,-3.09 c -9.28,-8.55 -18.46,-17.21 -27.76,-25.75 -6.18,-5.67 -12.08,-11.76 -18.84,-16.65 -6.29,-4.54 -5.67,-10.33 -5.16,-16.45 0.51,-6.12 1.24,-12.46 1.89,-18.68 0.3,-2.87 0.51,-5.76 1,-8.6 1.63,-9.51 -4,-16.83 -7.38,-24.83 -2.28,-5.46 -4.93,-10.77 -6.66,-16.65 4.7,3.45 9.5,6.78 14.08,10.39 11.45,9 22.81,18.17 34.2,27.27 21,16.75 42,33.38 62.89,50.28 17.2,13.94 33.94,28.48 51.32,42.2 7.85,6.19 16.9,10.85 25.19,16.5 6.32,4.32 12.33,9.09 18.45,13.7 1.89,1.43 3.7,3 6.11,4.92 -21,13.37 -41.34,26.23 -61.57,39.24 -7.65,4.92 -15.27,9.94 -22.54,15.4 -4.56,3.42 -7.83,2.71 -12,-0.73 -8.59,-7.18 -17.63,-13.81 -26.31,-20.88 -1.08,-0.88 -1.45,-3 -1.52,-4.64 -0.16,-4.1 0.28,-8.2 -0.05,-12.24 z M 724.8,558.5 731.71,575 c -10.98,-5.1 -11.07,-5.33 -6.91,-16.5 z m 1.6,28.88 c -7,6.08 -13.93,12.35 -21.53,17.61 -5.47,3.78 -11.85,6.31 -18,9.09 -1.39,0.63 -11.44,-9 -6.4,-12.74 9.86,-7.27 20.23,-13.86 30.37,-20.76 2,-1.35 3.88,-2.84 6.1,-4.48 a 111.66,111.66 0 0 1 9.16,7.08 c 0.81,0.73 0.98,3.61 0.3,4.2 z m 4.54,-47.81 c 12,4.47 4.48,12.71 3.8,19.68 -2.82,-6.32 -8.83,-12.04 -3.8,-19.68 z m -99.1,68.94 c 9.42,-1.5 13.83,7.45 21,11.41 -5.82,1 -11.63,2.12 -17.47,3 -5.84,0.88 -12,1.7 -18.66,2.64 l -7.57,-9.48 c 6.58,-6.02 14.86,-6.32 22.7,-7.57 z m -27.71,1.34 c -7.92,-6.12 -16,-12.11 -23.74,-18.52 -2.2,-1.83 -3.39,-4.88 -5,-7.37 l 1.57,-1 c 5.42,3.85 10.86,7.7 16.27,11.57 5.41,3.87 10.77,7.73 16.77,12.05 z m 45.64,-2.72 c 6.17,-0.89 12.13,-1.84 18.12,-2.51 0.82,-0.09 2.09,1.08 2.64,2 1.48,2.43 2.68,5 4,7.6 -7.1,5.61 -18.19,2.51 -24.76,-7.09 z M 567,579.53 c -7.09,-5 -7.09,-5 -7,-8.2 6.67,3.53 7,3.93 7,8.2 z m 271,123.81 c -0.44,6.71 -1.29,13.39 -1.65,20.1 0,0 -8.62,-0.18 -16.69,-0.07 -5.88,0.08 -11.47,0.77 -13.23,-0.45 -5.11,-5.86 -10.44,-11.52 -16,-17.57 8,-5.55 16.1,-11.09 24.09,-16.8 4.11,-2.94 6.44,-0.43 9.92,2.18 4.14,3.11 7.7,6.13 11.92,9.28 a 4.52,4.52 0 0 1 1.64,3.33 z M 574.42,657.4 c 11.72,3 23.4,6.06 35.1,9.05 a 17.2,17.2 0 0 0 4.28,0.54 c 13.36,0 26.73,0.12 40.09,0 5.21,-0.05 10.4,-0.52 15.58,-1.08 7.15,-0.77 12.83,2.33 18.66,6 19.44,12.17 39.1,24 58.6,36.09 10.14,6.29 46,26.06 46.29,26.21 1.33,0.82 5.27,0 5.22,-0.17 a 20.93,20.93 0 0 0 5.07,-2.46 28.73,28.73 0 0 1 6.53,-2.54 c 3,-0.92 22.66,-1.67 30.09,-0.5 v 0 q 14.77,11.64 29.71,23.07 a 2.33,2.33 0 0 1 -0.61,3 l -79.5,65.87 c -6.44,-3 -12,-7.47 -17.8,-11.45 -5.8,-3.98 -10.14,-9.81 -15.15,-14.81 -4.83,-4.81 -9.15,-10.33 -14.61,-14.26 -17.36,-12.49 -35.17,-24.34 -52.76,-36.49 q -42.75,-29.52 -85.42,-59.16 c -13.35,-9.3 -26.48,-18.93 -40.9,-29.25 4.74,0.94 8.17,1.49 11.53,2.34 z M 884,752.31 c 23.71,-15.64 47.57,-31.08 71.41,-46.53 4.79,-3.1 9.71,-6 14.55,-9 5,16.05 10.18,32.05 14.74,48.24 a 20.63,20.63 0 0 0 7.55,10.81 c 8.07,6.41 16,13.1 24.84,18.4 4.62,2.79 10.78,3.54 16.36,4.09 10.84,1.07 21.74,1.52 32.64,2 9.65,8.48 46.06,40.38 52.41,45.1 6.68,5 39.29,33.31 45.09,38.36 -0.15,1.46 93,86.7 98,91.75 1.93,2.14 1,1.47 -0.34,1.2 -7.54,-1.9 -11.82,2.9 -16.31,7.25 a 25.21,25.21 0 0 1 -2.13,2 c -2.69,2.06 -2.81,7.87 -0.11,10 3.79,2.94 7.39,6.23 11.53,8.57 2.57,1.45 6.82,2.92 8.85,1.77 5.46,-3.08 10.12,-7.55 15.25,-11.6 4.87,3.59 5.08,9.85 6.84,15.39 1.43,4.49 2.34,9.3 4.61,13.32 2.13,3.77 5.68,6.75 8.73,10 19.32,20.34 38.76,40.57 58,61 7.28,7.74 14.8,15.42 20.92,24 10.75,15.19 22.64,29.66 31.61,46.07 1,1.84 2.69,6 -2,5.81 -5.22,-0.19 -522.61,-397.63 -523.04,-398 z m 384.38,222.41 c -3,2 -6,5.76 -8.95,5.68 -2.95,-0.08 -5.29,-2.88 -8.59,-5.41 -0.74,-0.56 -2.7,-2.1 -2.7,-2.1 9.55,-8.21 10.63,-8.11 20.19,1.83 z M 1007.79,706.43 c -8.86,-1 -13.51,-8.08 -19.59,-13.11 -0.49,-0.4 -1,-0.77 -2.12,-1.63 4.16,-1.35 8,-3.34 12,-3.61 2.32,-0.16 5.11,2.07 7.21,3.8 q 21.33,17.64 42.43,35.55 c 10,8.54 19.89,17.32 29.91,25.89 4.74,4.06 9.68,7.88 14.56,11.77 1.24,1 2.54,1.91 3.83,2.84 a 1.46,1.46 0 0 1 -0.75,2.63 c -5,0.36 -9.93,0.76 -14.91,1 a 3.46,3.46 0 0 1 -2.07,-1 c -4.77,-4.06 -11.46,-7.32 -13.71,-12.5 -2.66,-6.14 -7.6,-7.12 -11.81,-10.18 -5.3,-3.86 -10.2,-8.29 -15.18,-12.58 -0.58,-0.5 -0.42,-1.78 -0.9,-2.5 -1,-1.51 -2.05,-3.94 -3.36,-4.14 -7.84,-1.19 -11.69,-8 -17.58,-11.87 -2.85,-1.88 -6.19,-3.62 -5.68,-8.12 0.04,-0.67 -1.42,-2.14 -2.28,-2.24 z m -45.85,-126.84 13.62,13.06 q 9,8.57 18,17 c 8.31,7.74 16.77,15.33 25,23.14 4.76,4.51 18.57,18.75 23.81,24.08 0.68,0.68 1.35,1.38 2.06,2 0.93,0.85 1.49,2.09 2.36,3 q 25.23,26.26 50.49,52.49 18.72,19.64 37.35,39.29 c 0.45,3.42 15.59,31.4 20.67,41.82 a 0.66,0.66 0 0 1 -1,0.77 c -20.18,-19.45 -86.15,-93.44 -130.44,-139.58 -35.43,-36.91 -74.87,-71.88 -80.94,-76.91 8.08,0.04 19.02,-0.16 19.02,-0.16 z M 894,552.1 c 1.15,0.87 33.52,24.45 40.37,27.43 3.58,2.14 83.22,78.82 83.22,78.82 46.18,47.25 126.49,135.52 144.07,154.57 3.06,7 -35.64,-25.59 -38.56,-27.52 -4.46,-2.93 -11.84,-10.75 -17.75,-15.9 q -9.19,-8.6 -18.74,-16.8 c -7.44,-6.37 -15.09,-12.49 -22.6,-18.77 -16,-13.39 -49.11,-41.47 -56.21,-47.89 v 0 c -3.95,-3.8 -7,-6.4 -10.24,-5.61 -6.56,1.57 -13.21,2.67 -19.49,4.84 -4.59,1.59 -8,0.71 -11.06,-2.43 -9.31,-9.48 -20.48,-16.42 -31.32,-23.85 -6.72,-16.54 -36.87,-90.74 -44.49,-107.37 -0.88,-1.96 1.14,-0.78 2.8,0.48 z M 651.87,376.72 c 23.67,10.72 47.37,21.37 71,32.21 10.53,4.83 20.79,10.27 31.33,15.07 25,11.37 50.17,22.38 75.11,33.9 5.13,2.37 9.55,6.3 14.24,9.6 11.39,8 14.8,21 20.14,32.71 6.12,13.47 12.35,26.91 17.83,40.64 0,0 33.43,88.65 43.37,110 -4.27,-3.6 -8.37,-7.44 -12.66,-11 Q 893.15,624 874,608.25 c -9.53,-7.87 -19,-15.75 -28.65,-23.54 -10.46,-8.47 -21,-16.83 -31.52,-25.25 -9.13,-7.31 -18.22,-14.68 -27.39,-21.93 Q 773.26,527.12 759.91,516.9 c -11,-8.49 -22.12,-16.89 -33.14,-25.38 -4.82,-3.72 -9.24,-8.07 -14.4,-11.21 -5.88,-3.59 -8.8,-8.8 -11.15,-14.84 -4.11,-10.51 -8.41,-21 -12.8,-31.35 a 18.85,18.85 0 0 0 -3.62,-5 C 673.56,416.79 662.2,404.6 651,392.27 c -7.44,-8.19 -14.67,-16.58 -21.49,-25.61 q 11.19,5.04 22.36,10.06 z m -5.3,18.94 c 7.82,8.63 15.92,17 23.62,25.74 3,3.38 9.23,10 11.33,14.65 4.41,9.73 5.59,12.11 9.27,20.56 1.47,3.38 2.86,6.88 4.25,10.35 -47.3,-31.83 -96.29,-61 -140.38,-98.57 18,-4.32 35,-8.21 51.88,-12.63 2.91,-0.77 4.2,0 5.73,1.73 11.44,12.72 22.82,25.51 34.3,38.17 z M 528.41,359 c -15.22,-13 -30.12,-26.38 -45.68,-38.93 -14.79,-11.93 -30.19,-23.11 -45.48,-34.41 -7.56,-5.58 -15.54,-10.58 -23.16,-16.09 -1.63,-1.17 -2.56,-3.31 -3.77,-5.06 a 0.66,0.66 0 0 1 0.7,-1 c 12,3.32 32,19.77 47.28,30.81 14.89,10.77 32.66,27.28 49.58,41 15.57,12.59 31.16,27.13 46.63,39.84 10.35,8.5 20.51,17.24 30.8,25.81 1.7,1.41 3.49,2.73 5.3,4 a 0.63,0.63 0 0 1 -0.55,1.12 42.88,42.88 0 0 1 -9.13,-3.36 c -4.13,-2.32 -7.71,-5.68 -11.37,-8.77 Q 548.93,376.54 528.41,359 Z m 0.32,8.72 Q 500.14,348 471.56,328.28 c -9.34,-6.42 -18.52,-13.12 -28.18,-19 -9.12,-5.57 -16.13,-12.63 -20.3,-22.51 -0.78,-1.85 -2.25,-3.41 -3.44,-5.16 -4.53,-9.47 45.07,30.17 55.37,39.22 17.84,15.69 36.14,30.84 54.23,46.25 a 0.42,0.42 0 0 1 -0.51,0.64 z M 496.21,306 429.39,261.68 c 4.37,-1.23 8.22,-2.51 12.16,-3.36 3.94,-0.85 6.52,1.21 10.6,3.4 44.65,23.92 45.85,39.28 48.92,43.58 a 44.18,44.18 0 0 1 -4.86,0.7 z m 14.31,4.63 c 2.42,-0.54 17.54,-3.34 21.64,-4.92 3.24,-1.24 6.89,-1.37 10.17,-2.53 6.22,-2.19 8.73,3 12.15,6 6.84,5.85 13.44,12 19.85,18.35 6.41,6.35 21.67,22.47 22.6,23.26 -13.91,3.85 -29.81,8.17 -43.82,12.65 a 8.29,8.29 0 0 1 -6.61,-1.54 c -18.66,-15.44 -37.14,-31.1 -55.71,-46.73 6.53,-1.52 13.12,-3.1 19.73,-4.56 z M 357.82,233.8 A 73.34,73.34 0 0 0 377,222.64 c 9.42,2.65 18.81,5.46 28.2,8.22 10.37,3 20.61,6.51 31.06,9.23 12,3.11 24.14,5.63 36.23,8.35 8.08,1.82 16.15,3.67 24.26,5.31 11.12,2.25 22.25,4.25 33.36,6.46 3.52,0.69 7,1.59 11.33,2.61 a 0.19,0.19 0 0 1 0,0.38 14.86,14.86 0 0 0 -4,1 c -1.58,0.82 -3.38,1.87 -4.13,3.32 -0.34,0.65 1.35,2.85 2.56,3.75 7.44,5.52 15.06,10.8 22.5,16.32 4.41,3.28 9.32,1.86 14,1.73 4.27,-0.11 8.51,-1.26 12.79,-1.6 1.25,-0.09 2.74,0.83 3.87,1.64 9.6,6.89 19.13,13.9 28.73,20.79 5.18,3.72 10.49,7.27 15.7,10.94 2.36,1.66 3.64,10.59 1.54,13.52 -4.83,6.75 -10,13.28 -14.85,19.7 -5.61,-2 -7.6,-8.09 -16.14,-5.15 -12.09,-12.06 -22.79,-22.82 -34.67,-34.55 -4.72,-4.66 -9.86,-8.91 -14.49,-13.65 -3.41,-3.51 -7,-4.84 -11.83,-3.61 Q 528.73,301 514.28,304 a 5.61,5.61 0 0 1 -4.56,-1.69 224.93,224.93 0 0 1 -14.18,-18.72 c -4.92,-7.57 -13.21,-10.45 -20,-15.44 A 253.73,253.73 0 0 0 451.82,253 a 12.15,12.15 0 0 0 -8.13,-1.49 174.13,174.13 0 0 0 -21,4.94 c -1.93,0.58 -3.28,3.1 -4.13,4 -4.37,-1.12 -8.49,-3.27 -12.42,-3 -8.56,0.68 -14.7,-2.82 -21.31,-7.73 -8.37,-6.18 -17.83,-10.84 -27.01,-15.94 z m 25,96.93 a 0.54,0.54 0 0 1 -0.84,-0.54 c 1.83,-9.38 20.15,-11.55 23.56,-1.43 a 0.54,0.54 0 0 1 -0.76,0.64 c -7.86,-3.9 -15.03,-3.26 -21.96,1.31 z m 21.52,2.93 c -2.88,5.19 -14.09,7.65 -18.9,3.52 -1,-1.18 -1.81,-2.87 -0.57,-3 4.19,-0.34 13.21,-0.91 18.92,-1.35 a 0.58,0.58 0 0 1 0.55,0.81 z M 362.7,305.3 c -2.12,-5.47 4.66,-9.72 11.41,-9.87 4,-0.09 12.37,0 12.37,6.39 -8.18,-1.82 -16.15,-3.97 -23.78,3.48 z m 21.76,3.17 c -4,2.11 -13.12,3 -17.85,1.8 a 2.36,2.36 0 0 1 -1.3,-1.8 c 4.14,-2.66 14.4,-5 19.15,-2 0.76,0.66 0.76,1.46 0,2 z M 352,292 c 1.33,-1.37 6.18,-5.62 7.14,-6.48 a 6.89,6.89 0 0 1 3,-1.75 c 0.47,-0.08 1.4,1.24 1.77,2.08 1.42,3.24 3.95,6.44 -2.05,8.44 -2.6,0.88 -4.63,4 -6.49,6.45 -2.26,3 0.3,10.49 4.11,13 7.82,5.16 20.57,5 28,-0.29 l 4.23,3.45 c -4.46,2.29 -10,4 -14,7.44 -6.77,5.87 -5.13,13.49 2.84,17.55 10.88,5.56 20.93,3.15 30.35,-3.37 1.56,-1.08 2,-3.73 3.45,-6.49 4.6,3.17 9,6.43 13.56,9.44 37,24.49 44.47,36.6 48.11,41.19 1.4,0.46 93,31.8 103.28,33.21 6.51,4.58 13,9.11 19.66,13.53 3,2 5.15,1.16 5.82,-2.92 11.8,8.22 24.43,16.16 37.12,25 3.38,2.35 -4,0.59 -4.65,0.31 -9.89,-4 -19,1.41 -28.5,2.17 a 7.28,7.28 0 0 1 -4.27,-0.73 c -7.64,-4.93 -15.22,-10 -22.67,-15.18 -1.93,-1.36 -3.05,-4 -5.05,-5.13 -2.38,-1.37 -5.38,-2.6 -8,-2.43 -8.79,0.58 -15.44,-4.78 -23,-7.55 -12.38,-4.52 -24.43,-10.1 -37.06,-13.75 -8.93,-2.58 -18.74,-1.87 -27.54,-5.77 q -25.29,-11.2 -50.6,-22.34 c -1.45,-0.65 -2.87,-1.36 -4.4,-2.08 a 18.82,18.82 0 0 1 1.63,-1.26 c 5.88,-3.56 5.91,-5 0.21,-8.94 -8.38,-5.76 -16.66,-11.7 -25.21,-17.2 -1.56,-1 -4.53,-0.92 -6.35,-0.16 -4,1.66 -7.46,4.35 -11.39,6.07 a 7.47,7.47 0 0 1 -5.58,-0.31 c -10.23,-5 -20.28,-10.45 -30.51,-15.49 -2,-1 -4.61,-0.94 -7.69,-1.51 -2.3,-9.7 -4.82,-20.34 -7,-29.65 6.48,-6.79 12.02,-12.71 17.73,-18.55 z m -71.5,-2.63 c 4.24,2.82 8.87,6.15 13.72,9.1 7.49,4.55 11.93,11.76 16.95,18.53 2.37,3.2 4.33,6.56 9.71,3.12 3.45,-2.2 3.64,-3.44 1.56,-6.11 -3.4,-4.36 -6.87,-8.65 -10.31,-13 l 0.48,-0.61 c 4.71,3.06 9.49,6 14.07,9.26 a 3.78,3.78 0 0 1 0.86,3.45 c -1.88,5 -0.46,9.39 1.82,13.8 1.81,3.51 3.4,7.14 5.13,10.82 -4.17,2.6 -8.23,5.43 -12.59,7.67 -1.24,0.64 -3.72,0.05 -5,-0.85 -14.31,-9.88 -28.5,-19.94 -42.74,-29.93 -3.36,-2.36 -6.8,-4.6 -10.3,-7 z m -50.92,31 c 1.4,-4.38 1.81,-4.49 5.8,-1.52 a 102.4,102.4 0 0 0 8.69,5.93 c 7.23,4.28 11.71,11.22 17.08,17.3 2,2.27 3.7,4.81 5.66,7.13 0.44,0.52 1.63,1.05 2.08,0.81 a 25.66,25.66 0 0 0 6.41,-4.12 c 0.52,-0.52 -0.49,-3.19 -1.4,-4.43 -7.85,-10.74 -16.17,-21 -28.87,-28 l 7.22,-4 c 8.75,1.23 13.53,7 18.29,10.24 14.13,9.58 28,19.53 42,29.36 0.22,0.16 0.29,0.54 0.57,1.07 -4,2.45 -7.86,5.08 -12,7.26 a 8.68,8.68 0 0 1 -4,1.08 65.85,65.85 0 0 1 -10.75,-1.22 c -1.25,-0.29 -13.82,-1.35 -18.34,-1.35 -9.06,0 -16.37,-6.15 -22.52,-10.42 -6.81,-4.74 -13.44,-9.73 -20.45,-14.82 0.95,-2.2 2.61,-5.54 4.48,-10.26 z m 5,23.84 -13.71,7.95 c -0.94,-5.94 -1.75,-11 -3,-19.14 z m -24.85,41 c 9.66,-2.7 15.26,0.58 22.13,5.27 15,10.23 30.48,19.73 45.42,30 4.54,3.13 8.21,7.64 11.87,11.88 6.44,7.46 12.57,15.19 18.83,22.81 1,1.46 0.41,1.95 -0.75,1.18 -1.3,-1 -2.51,-2 -3.75,-3 -4.2,-3.58 -11.91,-6.65 -19.29,-9.27 -5.23,-1.85 -8.46,-3.21 -13.82,-4.6 -1.81,-0.48 -6,0 -8,0.18 -1,0.11 -2.24,0.38 -2.93,-0.08 q -20,-13.51 -39.94,-27.22 c -0.75,-0.52 -1.89,-1.69 -1.72,-2.16 2.46,-7.08 -4,-8.27 -7.49,-11.11 -4.16,-3.39 -8.88,-6.11 -14.33,-9.77 5.13,-1.47 7.1,-2.23 13.69,-4.07 z m 32.26,59.24 c 5.1,9.21 9.81,17.77 16.13,27.71 a 0.49,0.49 0 0 1 -0.7,0.65 l -83.75,-60.53 a 0.41,0.41 0 0 1 0.15,-0.73 c 6,-1.48 10.72,-3.13 15.56,-3.49 2.88,-0.21 10.36,0.9 12.93,2.57 11.5,7.47 19.08,12.29 30.15,20.37 3.34,2.54 6.26,7.73 9.45,13.49 z m 26,132.57 a 5.22,5.22 0 0 1 -2.44,3.81 c -13.66,6.45 -27.42,12.69 -41.16,19 q -26.47,12.1 -53,24.18 a 64.68,64.68 0 0 1 -9,3.81 c -6.63,1.87 -10.81,-3.2 -15.41,-6.34 -11.61,-7.91 -22.9,-16.3 -34.4,-24.39 -13.32,-9.36 -26.74,-18.59 -40.1,-27.9 -3,-2.11 -4.83,-12.07 -3.4,-16.61 3.85,-12.27 7.52,-24.6 11.28,-36.9 3,-9.71 6,-19.41 8.93,-29.13 3.87,-12.77 7.9,-25.5 11.21,-38.41 0.37,-1.43 1.8,-8.1 -4.88,-6.5 -0.45,0.11 -1.48,-1.48 -2,-2.43 -8.6,-16.41 -17.42,-32.7 -25.54,-49.35 -0.46,-0.94 -0.88,-1.91 -1.26,-2.92 a 1.07,1.07 0 0 1 1.73,-1.16 c 2.9,2.71 6,5.58 7.92,7.18 7,6.78 11.91,8.25 16.55,8.25 4.64,0 10.48,-12.49 14.74,-13.53 4.26,-1.04 14.22,-13.1 14.22,-15.33 0,-2.23 -35.63,-18.07 -35.63,-18.07 a 3.93,3.93 0 0 1 0.9,-2.81 c 3.35,-3.45 6.78,-3.89 11.31,-2.15 13.21,5.07 26.57,9.72 39.88,14.52 6.39,2.31 13.15,3.92 19.1,7 6.53,3.43 12.28,8.32 18.45,12.45 9,6 18.09,11.93 27.16,17.87 0.81,0.53 1.73,0.87 2.12,1.9 0.21,1.25 -3.63,1.52 -8.5,-0.31 a 20.12,20.12 0 0 0 -8.18,-1.09 c -2.91,0.74 -15.32,3.67 -22.77,5.36 a 5.18,5.18 0 0 0 -2.44,2.51 4.71,4.71 0 0 0 1.87,3.33 c 5.59,4.26 11.43,8.17 17.07,12.37 13.09,9.73 26.07,19.6 39.16,29.32 14.25,10.57 28.6,21 42.83,31.6 a 6,6 0 0 1 1.79,3.52 c 2,11 4.38,19.19 5.15,30.27 -0.05,2.93 -3.25,54.27 -3.37,57.12 z m 1.12,-97 c -3.5,-4.28 -1.72,-6.36 -4.86,-10.89 -6.54,-9.4 -12.69,-19.08 -19.27,-29.13 a 0.48,0.48 0 0 1 0.67,-0.66 l 89.33,59.93 c 1.33,1.09 1.18,4.79 2.85,6 18.8,13.78 37.83,27.27 56.61,41.08 15.74,11.65 31.33,23.65 47.06,35.45 6.65,5 13.39,9.85 20.06,14.8 a 10.52,10.52 0 0 1 3.38,3.79 c -2.31,0 -10.41,-0.56 -14.9,-2.49 -26.11,-11.24 -52,-23 -78,-34.56 q -28.32,-12.62 -56.63,-25.26 c -7.26,-3.25 -20.13,-9.18 -27.69,-11.34 -6.83,-2 -6.93,-7 -7.95,-11.84 -1.87,-8.88 -3,-17.92 -5.2,-26.72 -0.72,-2.99 -3.48,-5.57 -5.57,-8.13 z m 269.44,300.42 c -10.68,-0.22 -21.36,-0.67 -32,-0.93 q -22.86,-0.57 -45.73,-1 c -18.5,-0.35 -37,-0.62 -55.5,-1 -3.35,-0.07 -33.46,0.16 -33.46,0.16 q -7.87,-15 -15.13,-30.27 -9.15,-19.2 -17.9,-38.59 c -7.43,-16.54 -14.55,-33.22 -22,-49.77 -5.59,-12.48 -11.47,-24.83 -17.17,-37.26 -4.65,-10.15 -9,-20.44 -13.93,-30.46 -1.57,-3.2 -3.65,-7 -5.26,-10 -4.26,-7.95 -3,-11.18 -3.65,-15.9 -0.11,-0.77 0.29,-19.52 0.45,-33.9 a 22,22 0 0 0 4.64,2.71 c 15,6.6 29.71,13.76 44.58,20.59 17.63,8.11 35.33,16.07 53,24.18 q 22.56,10.39 45,21 c 12.76,6 25.82,10.43 40.22,10.46 9,0 18,1.07 27,2 1.92,0.2 3.87,1.51 5.53,2.7 12.21,8.75 24.27,17.72 36.53,26.41 19.28,13.65 38.7,27.09 58,40.69 21.41,15.08 42.73,30.29 64.16,45.34 q 23.5,16.5 47.21,32.7 c 12.89,8.85 26.26,17 38.65,26.53 -11.98,-2.47 -203.24,-6.39 -203.24,-6.39 z m 346.39,221.37 v 0 c -26.58,-2.9 -91.29,-8.56 -93.46,-8.46 l -8.39,-3.74 c -11.92,-5.34 -23.71,-11 -35.59,-16.41 -26.22,-12 -52.74,-23.35 -78.61,-36 -19.1,-9.38 -37.85,-19.46 -56.65,-29.46 v 0 A 143.28,143.28 0 0 0 621,878.66 c 2.24,-4.55 3.38,-12.73 3.84,-19.44 3.55,-4.1 3,-0.47 6.16,2.27 3.16,2.74 231.07,124.58 239.71,128.51 8.64,3.93 26.47,13.09 14.23,11.81 z m 25.5,2.81 c -12.92,-5.57 -274.12,-148.07 -285.59,-156 -0.59,-1.75 -16.23,-12.94 -33.56,-27.12 -18.59,-13.38 -30.68,-26.73 -39.55,-34.42 11.68,0.8 32.51,2.31 40.91,2.18 16.49,-0.27 155.69,4.29 156,4.3 3.14,3.62 6,7.54 9.27,11.08 a 49.38,49.38 0 0 0 7.51,7.31 c 8,5.71 16.32,11.09 24.93,16.88 -11.29,3 -15.81,13.21 -23.45,19.77 a 51.39,51.39 0 0 0 -5.42,6.14 c -2.18,2.57 -2.81,4.7 0.66,7.12 13,9 25.72,18.42 38.68,27.48 q 28.43,19.85 57,39.42 c 6.83,4.7 35.1,23.54 37.24,24.9 3.19,2 9.17,31.19 18,51 a 6.85,6.85 0 0 1 -2.63,-0.04 z m 16.28,48.18 c -1.83,-0.69 0.39,-4.09 2.84,-9.55 a 159.77,159.77 0 0 1 12.12,-21.82 l 42.54,51.13 c -6.62,-0.42 -54.31,-18.56 -57.5,-19.76 z m 13.92,-41.15 a 51.56,51.56 0 0 0 -12.17,-6.88 c -5.62,0 -8.9,0.27 -9,0 -6.32,-24.2 -17.22,-49.62 -18.46,-53.46 -1.24,-3.84 -11.81,-8.28 -15,-10 5.2,-7.65 9,-13.29 14,-21.05 4,-6.23 2,-10.08 -4.06,-14.18 -4.35,-3 -8.39,-6.45 -13,-9 -3.39,-1.85 -7.44,-2.51 -11.59,-3.82 1.18,-4.59 -3.75,-6.27 -7.24,-8.83 a 175.78,175.78 0 0 0 -14.61,-10 c -2.18,-1.28 -5.15,-1.22 -8.41,-1.91 0.35,-4.28 -3.64,-6.62 -7.33,-9.11 -3.3,-2.23 -6.82,-4.14 -10,-6.48 -3.88,-2.82 -7.47,-6.15 -12.76,-3.6 0.36,-2.83 -3.31,-5.44 0.56,-10.42 8.52,5.68 16.93,11.2 25.24,16.86 9.62,6.56 19.11,13.33 28.75,19.87 10.86,7.36 155,99 156.24,99.25 0,0 1.3,-0.56 2.68,-1.26 2,-1.06 5.22,-0.36 6.91,0.66 14.07,8.45 27.94,17.26 41.86,26 14.73,9.22 29.57,18.28 44.09,27.82 a 34.64,34.64 0 0 1 10.24,10.22 c 2.57,4.14 5,7.4 9.68,9.54 7.52,3.4 14.88,7.15 22.24,10.91 a 0.63,0.63 0 0 1 -0.3,1.2 c -51.42,-1.4 -124.48,10.8 -168.29,8.23 -0.01,0 -47.82,-58.36 -50.27,-60.56 z m 201.09,130.9 c -5.7,-2.22 -11.46,-4.29 -17.09,-6.68 q -46.86,-19.89 -93.65,-39.93 c -10.62,-4.56 -21.08,-9.5 -31.73,-14 -3,-1.27 -3.71,-1.57 -6.31,-2.7 a 0.48,0.48 0 0 1 0.22,-0.92 c 3.73,0.26 9.65,0.23 17.13,0 1,1.31 1.87,2.75 3.16,3.31 22.14,9.6 44.3,19.14 66.58,28.41 20,8.31 40,16.56 60.27,24.19 6.15,2.34 1.83,8.04 1.42,8.32 z m 308.79,59.61 a 167.25,167.25 0 0 1 -16.48,15.37 c -2.53,2 -6.5,2.32 -9.9,2.9 -8.82,1.51 -17.8,2.26 -26.52,4.19 -9.25,2.05 -17.77,-0.18 -26.44,-2.57 -18.54,-5.12 -37.14,-10 -55.64,-15.27 -11.77,-3.34 -23.43,-7.06 -35.07,-10.84 -1,-0.32 -2.08,-2.42 -2,-3.64 0.44,-9.33 1.22,-18.63 1.76,-28 0.22,-3.6 0.22,-7.21 0.12,-10.81 -0.1,-3.26 -2.06,-4.74 -5.1,-6 -16.09,-7 -32.14,-14 -48,-21.54 -7.3,-3.46 -14.5,-1.29 -21.71,-0.88 -15.11,0.85 -49,3.53 -49.13,3.61 -8,5.67 -14.89,0.21 -21.75,-2.53 -26.84,-10.71 -53.57,-21.73 -80.27,-32.8 -11.13,-4.62 -22.13,-9.55 -33.23,-14.24 a 0.62,0.62 0 0 1 0.21,-1.2 c 45.88,-2.1 126.85,-8.77 153.53,-8 0.07,0 13.23,0 23.65,-0.2 5.25,-0.11 9,0.26 13.47,2.72 q 31.13,17.22 62.63,33.75 35.77,18.88 71.74,37.38 c 16.27,8.42 32.75,16.31 50.27,21.92 10,3.2 16.55,1.37 22.12,-7.71 0.92,-1.5 1.67,-3.88 1.14,-5.36 -2.6,-7.16 -4.69,-14.78 -8.73,-21.1 -15.68,-24.54 -31.16,-49.3 -51,-70.81 q -24.57,-26.61 -49.77,-52.64 c -8.94,-9.18 -14.92,-19.3 -20.49,-31.33 -1.88,-4.08 -42,-89.12 -46.05,-101.15 v 0 c 2.17,2.64 4.35,5.28 6.63,7.82 17,18.92 34.11,37.64 51.07,56.56 6.23,6.95 12.31,14 18.35,21.14 5.43,6.41 11.11,12.78 15.13,20 4.02,7.22 6.63,15.9 8.43,24.23 2.08,9.58 7.62,16.67 13.56,23.78 q 11.89,14.25 23.68,28.55 c 3.64,4.41 8.94,5.26 14,6.6 3.38,0.9 6.87,1.4 10.26,2.26 a 5.06,5.06 0 0 1 2.83,1.71 c 5.79,8.51 11.47,17.11 17.65,26.39 -7.85,0 -14.51,0 -21.17,-0.06 -1.17,0 -8.83,1.41 -8.19,2.63 q 7.41,14.22 15.46,28.11 a 4.32,4.32 0 0 0 4.22,2.35 l 29.85,2.74 c 2.05,2.17 4.45,3.87 6.76,6.92 4.8,6.33 4.34,17.59 4.81,29.52 0.6,16.59 -5.21,33.99 -6.69,35.53 z"
         id="path8"
         style="display:inline;fill:#333333;fill-opacity:1;stroke:#cccccc;stroke-opacity:0.811765"
         inkscape:label="path8" />
    </g>
    <g
       id="Thrusters">
      <path
         d="m 101.7,372.9 c -0.66,-4.76 -5.77,-6.24 -13.07,-6.95 -6.58,-0.64 -11.32,5.53 -10.65,10.29 0.67,4.76 5.31,6.58 11.86,5.66 6.55,-0.92 12.53,-4.24 11.86,-9 z M 100,554 c -6.08,-0.69 -10.74,4.45 -10.31,8.52 0.43,4.07 4.65,5.73 10.77,5.1 6.12,-0.63 11.81,-3.33 11.38,-7.4 -0.43,-4.07 -5.06,-5.5 -11.84,-6.22 z M 346,215.78 c -5.62,-2.16 -11.21,-1.14 -11.73,0.9 -0.52,2.04 3.11,4.09 9.07,5.63 5.96,1.54 12,2 12.5,-0.06 0.5,-2.06 -3.63,-4.09 -9.84,-6.47 z m 214.88,53.46 c -5,-1.83 -9.93,-0.29 -10.41,1.9 -0.48,2.19 2.74,4.08 8,5.22 5.26,1.14 10.61,1.13 11.08,-1.07 0.47,-2.2 -3.18,-4.03 -8.69,-6.05 z m 356.93,751.17 c -5.17,-1.68 -12,-1.39 -11.72,3.27 0.26,3.86 1.82,8.66 7,10.33 0,0 10.42,-0.23 11.72,-4.26 1.3,-4.03 -1.81,-7.67 -7.02,-9.34 z M 1185,817 c -4.92,-2.28 -8.5,-5.4 -10.41,-3.49 -1.91,1.91 0.62,5.6 4.47,9.44 3.85,3.84 7.52,6.38 9.44,4.47 1.92,-1.91 3.79,-7.04 -3.5,-10.42 z m 159.55,350.15 c -5.69,-2.49 -11.25,4.27 -11.25,9.53 0,5.26 5,9.54 11.25,9.54 11.24,0 11.24,-4.27 11.24,-9.54 0,-5.27 -2.12,-5.54 -11.25,-9.53 z M 1427.2,1104 c -4.52,-2.61 -9.56,-2.36 -11.25,0.57 -1.69,2.93 14.69,12.37 16.37,9.45 1.68,-2.92 -0.6,-7.37 -5.12,-10.02 z"
         style="fill:#007aff"
         id="path9" />
    </g>
  </g>
</svg>
