<?xml version="1.0" encoding="UTF-8" standalone="no"?>
<svg
   width="1194.8527"
   height="932.55542"
   viewBox="0 0 1194.8527 932.55542"
   version="1.1"
   id="svg147"
   sodipodi:docname="Type_9.svg"
   inkscape:version="1.2.2 (b0a8486541, 2022-12-01)"
   xmlns:inkscape="http://www.inkscape.org/namespaces/inkscape"
   xmlns:sodipodi="http://sodipodi.sourceforge.net/DTD/sodipodi-0.dtd"
   xmlns="http://www.w3.org/2000/svg"
   xmlns:svg="http://www.w3.org/2000/svg">
  <defs
     id="defs151" />
  <sodipodi:namedview
     id="namedview149"
     pagecolor="#505050"
     bordercolor="#ffffff"
     borderopacity="1"
     inkscape:showpageshadow="0"
     inkscape:pageopacity="0"
     inkscape:pagecheckerboard="1"
     inkscape:deskcolor="#505050"
     showgrid="false"
     inkscape:zoom="0.71578459"
     inkscape:cx="264.74445"
     inkscape:cy="564.41561"
     inkscape:window-width="2560"
     inkscape:window-height="1391"
     inkscape:window-x="0"
     inkscape:window-y="24"
     inkscape:window-maximized="1"
     inkscape:current-layer="svg147" />
  <g
     id="Type_9_Heavy"
     data-name="Type 9 Heavy"
     transform="matrix(0.96664632,0,0,0.96664632,-123.11333,-309.20221)">
    <g
       id="Colour"
       style="display:inline">
      <path
         d="m 1317.78,775 c -3.8,-8 -7.81,-16.61 -13.92,-22.82 -13.65,-13.87 -28.61,-26.44 -43.06,-39.52 -3.27,-3 -6.66,-5.8 -10,-8.69 -6.68,-5.79 -12.15,-11.62 -10.65,-22 1.41,-9.68 -1.29,-19 -6.32,-27.77 -6.47,-11.18 -12.38,-22.68 -18.47,-34.08 q -19.77,-37 -39.46,-74 -23.36,-43.76 -46.7,-87.49 c -11.69,-22 -23.25,-44 -35,-66 -3.19,-6 -5.4,-13.59 -10.4,-17.26 -12.42,-9.11 -26.1,-16.52 -39.44,-24.33 -12.5,-7.31 -25.27,-14.16 -37.8,-21.42 -6.83,-4 -13.94,-7.29 -21.83,-5 q -31.34,9.18 -62.38,19.34 c -3,1 -5.89,4.08 -7.71,6.91 -3,4.74 -5.28,10 -7.64,15.16 -1.44,3.13 -2.8,4 -6.6,2.79 -12.61,-4.08 -25.39,-7.72 -38.23,-11 -13.4,-3.46 -26.91,-6.45 -40.44,-9.36 a 11.9,11.9 0 0 0 -7,1.07 c -9.1,4.28 -18.22,8.58 -26.95,13.55 -2.26,1.29 -4.29,4.95 -4.44,7.63 -0.54,9.35 -0.25,18.76 -0.2,28.14 0,8.87 -2,18.24 6.22,25.67 a 52.15,52.15 0 0 1 -12.74,-1.11 c -8.61,-2 -17,-5.61 -25.71,-6.36 -12.46,-1.09 -20,-7.26 -25.64,-17.75 -1.85,-3.46 -5.59,-6.18 -9,-8.49 -5,-3.41 -10.52,-6.1 -15.77,-9.17 -16,-9.34 -32.13,-18.4 -47.78,-28.25 -5.59,-3.52 -10.39,-4.09 -15.46,-0.52 -9.58,6.75 -18,3.4 -25.85,-2.82 -5,-4 -10.06,-3.78 -15.48,-1.72 -4.82,1.83 -6.08,5.8 -3.2,9.95 0.85,1.22 1.89,2.3 2.94,3.57 -0.91,1 -1.43,2 -2.11,2.13 -12.1,2 -24.21,4 -36.36,5.63 -2.2,0.3 -4.59,-1.35 -6.93,-1.51 a 27.27,27.27 0 0 0 -8,0.54 c -8.82,2 -17.58,4.29 -26.38,6.41 a 3.3,3.3 0 0 1 -1.94,-0.37 c -8.75,-3.88 -17.36,-8.17 -26.28,-11.62 -7.95,-3.07 -15.86,-7.69 -25,-4.07 -2.58,1 -5.26,1.8 -7.88,2.71 -9,3.13 -18.16,6 -27.07,9.52 -3.74,1.46 -5.67,4.17 -1.91,8.2 2.27,2.43 3.75,5.59 6,9.09 -5.81,0 -10.53,-0.37 -15.17,0.11 -4.64,0.48 -9.39,0.88 -13.32,2.88 -11.23,5.72 -21.9,12.53 -33.1,18.34 -9.07,4.7 -15.76,10.59 -16.93,21.51 -0.7,6.54 -4,11.69 -11,13.46 -2.21,0.55 -4.88,2.86 -6.35,2.19 -9,-4.12 -18.19,-2.88 -27.1,-0.81 A 287.5,287.5 0 0 0 276.4,456 c -3.22,1.16 -6.56,4.76 -7.82,8 -3.77,9.79 0.18,18.2 6.37,25.89 a 13,13 0 0 1 2.68,5.67 c 1.95,11.43 2.86,23.11 5.82,34.24 1.35,5.07 0,8.68 -2.49,11.33 -5.2,5.44 -10.94,10.84 -17.51,14.24 -2.33,1.2 -7.53,-4.36 -11.74,-5.14 -2.63,-0.49 -7.46,1.42 -8.47,3.58 -2.16,4.62 -2.47,10.09 -3.87,16.85 -3.26,2 -8.23,5.19 -13.33,8.16 -7.85,4.57 -10.38,10.16 -8.16,18.7 0.54,2.11 1.81,4.21 1.71,6.26 -0.14,3.1 -0.41,6.66 -2,9.13 -3.28,5.09 -3.38,10.18 -2.27,15.75 2.13,10.71 3.08,21.78 6.39,32.09 2.86,8.91 6.45,19.06 13,25 15.72,14.25 33.39,26.3 50.29,39.25 8.65,6.65 17.2,13.32 28.5,15.18 1.32,0.22 3.24,4.23 2.88,6.08 -2.55,12.88 -5.62,25.65 -8.58,38.66 -6.87,-5.35 -13.53,-10.37 -20,-15.61 -16.58,-13.41 -33.07,-26.92 -49.61,-40.37 -2.19,-1.78 -4.51,-4.87 -6.74,-4.84 -4.69,0.08 -7.62,-2 -10.14,-5.2 -3.42,-4.4 -7,-3.69 -10.9,-0.83 -12.86,9.51 -25.87,18.84 -38.48,28.66 -2.17,1.69 -4.18,5.71 -3.75,8.21 1.68,9.65 4.38,19.11 6.71,28.64 5,20.6 10,41.19 15.21,62.31 -4.3,-1.55 -8,-2.79 -11.58,-4.22 -3.58,-1.43 -28.86,-2.24 -30.95,-2.61 -7.84,-1.41 -18.15,5.58 -15.91,13.64 1.57,5.67 2.23,11.62 4.2,17.13 1.47,4.14 3.61,8.59 6.75,11.51 18.31,17 36.93,33.75 55.6,50.41 9.54,8.51 18.89,17.38 29.23,24.85 22.87,16.54 46.27,32.34 69.53,48.34 19.64,13.51 39.41,26.84 59.08,40.32 q 60.86,41.7 121.66,83.45 c 11.16,7.64 22.54,14.94 33.71,22.54 21.5,14.63 42.83,29.49 64.41,44 10.13,6.8 21.81,7.83 33.59,6.87 10.72,-0.87 21.38,-2.51 32.08,-3.65 5.7,-0.61 11.47,-0.66 17.16,-1.33 12.4,-1.44 22.63,-0.47 33.53,9 13.63,11.86 29,23.57 48.88,24.62 2.7,0.14 5.45,1.57 8,2.85 6.36,3.28 12.59,6.82 18.89,10.23 8.78,4.75 16,8 25.43,-1.67 13.91,-14.2 31.89,-24.42 43,-41.5 4.16,-6.37 9.6,-7.59 16.17,-7.61 8.29,0 16.74,1 24.86,-0.23 14.24,-2.1 28.29,-5.53 42.42,-8.38 25.69,-5.18 51.37,-10.43 77.08,-15.49 18,-3.54 36.1,-6.18 53.31,-13.18 7,-2.84 14.73,-4 17.74,-11.58 a 1.37,1.37 0 0 1 2.45,-0.15 c 1.27,2.22 3.5,2.44 7.13,1 a 12.63,12.63 0 0 1 8.45,0 c 4.52,2 7.74,0.78 11,-2.1 8.72,-7.83 17.63,-15.48 26.06,-23.61 3.47,-3.35 6.12,-3.71 9.92,-0.91 5.46,4 10.74,9.38 16.93,11 7.23,1.92 16.21,2.58 22.85,-0.1 7.36,-3 13,-10.27 19.28,-15.84 6.63,-5.9 12.73,-12.45 19.74,-17.84 4.86,-3.74 7.76,-8 7.2,-13.82 -1.37,-14.47 -0.78,-29.5 -11.38,-42 10.46,-6.45 10.72,-14.64 5.39,-24.1 -0.56,-1 0.58,-3.93 1.77,-4.75 9.6,-6.61 15.62,-17.81 27.51,-21.5 a 3.81,3.81 0 0 0 2,-2.5 c 2.84,-13.23 5.87,-26.42 8.2,-39.74 2.49,-14.24 4.5,-28.58 6.33,-42.92 1.36,-10.7 2.72,-21.47 3,-32.23 0.24,-10.38 -1,-20.78 -1.46,-31.17 a 3.91,3.91 0 0 1 0.8,-2.8 c 4.66,-4.2 9.48,-8.21 14.18,-12.36 6.31,-5.56 12.89,-10.85 18.74,-16.85 7.4,-7.59 14.46,-15.55 21.07,-23.84 1.92,-2.62 3.8,-7.61 2.65,-10.07 z"
         style="display:none;fill:#353a4a"
         id="path126" />
      <path
         d="m 1317.78,775 c -3.8,-8 -7.81,-16.61 -13.92,-22.82 -13.65,-13.87 -28.61,-26.44 -43.06,-39.52 -3.27,-3 -6.66,-5.8 -10,-8.69 -6.68,-5.79 -12.15,-11.62 -10.65,-22 1.41,-9.68 -1.29,-19 -6.32,-27.77 -6.47,-11.18 -12.38,-22.68 -18.47,-34.08 q -19.77,-37 -39.46,-74 -23.36,-43.76 -46.7,-87.49 c -11.69,-22 -23.25,-44 -35,-66 -3.19,-6 -5.4,-13.59 -10.4,-17.26 -12.42,-9.11 -26.1,-16.52 -39.44,-24.33 -12.5,-7.31 -25.27,-14.16 -37.8,-21.42 -6.83,-4 -13.94,-7.29 -21.83,-5 q -31.34,9.18 -62.38,19.34 c -3,1 -5.89,4.08 -7.71,6.91 -3,4.74 -5.28,10 -7.64,15.16 -1.44,3.13 -2.8,4 -6.6,2.79 -12.61,-4.08 -25.39,-7.72 -38.23,-11 -13.4,-3.46 -26.91,-6.45 -40.44,-9.36 a 11.9,11.9 0 0 0 -7,1.07 c -9.1,4.28 -18.22,8.58 -26.95,13.55 -2.26,1.29 -4.29,4.95 -4.44,7.63 -0.54,9.35 -0.25,18.76 -0.2,28.14 0,8.87 -2,18.24 6.22,25.67 a 52.15,52.15 0 0 1 -12.74,-1.11 c -8.61,-2 -17,-5.61 -25.71,-6.36 -12.46,-1.09 -20,-7.26 -25.64,-17.75 -1.85,-3.46 -5.59,-6.18 -9,-8.49 -5,-3.41 -10.52,-6.1 -15.77,-9.17 -16,-9.34 -32.13,-18.4 -47.78,-28.25 -5.59,-3.52 -10.39,-4.09 -15.46,-0.52 -9.58,6.75 -18,3.4 -25.85,-2.82 -5,-4 -10.06,-3.78 -15.48,-1.72 -4.82,1.83 -6.08,5.8 -3.2,9.95 0.85,1.22 1.89,2.3 2.94,3.57 -0.91,1 -1.43,2 -2.11,2.13 -12.1,2 -24.21,4 -36.36,5.63 -2.2,0.3 -4.59,-1.35 -6.93,-1.51 a 27.27,27.27 0 0 0 -8,0.54 c -8.82,2 -17.58,4.29 -26.38,6.41 a 3.3,3.3 0 0 1 -1.94,-0.37 c -8.75,-3.88 -17.36,-8.17 -26.28,-11.62 -7.95,-3.07 -15.86,-7.69 -25,-4.07 -2.58,1 -5.26,1.8 -7.88,2.71 -9,3.13 -18.16,6 -27.07,9.52 -3.74,1.46 -5.67,4.17 -1.91,8.2 2.27,2.43 3.75,5.59 6,9.09 -5.81,0 -10.53,-0.37 -15.17,0.11 -4.64,0.48 -9.39,0.88 -13.32,2.88 -11.23,5.72 -21.9,12.53 -33.1,18.34 -9.07,4.7 -15.76,10.59 -16.93,21.51 -0.7,6.54 -4,11.69 -11,13.46 -2.21,0.55 -4.88,2.86 -6.35,2.19 -9,-4.12 -18.19,-2.88 -27.1,-0.81 A 287.5,287.5 0 0 0 276.4,456 c -3.22,1.16 -6.56,4.76 -7.82,8 -3.77,9.79 0.18,18.2 6.37,25.89 a 13,13 0 0 1 2.68,5.67 c 1.95,11.43 2.86,23.11 5.82,34.24 1.35,5.07 0,8.68 -2.49,11.33 -5.2,5.44 -10.94,10.84 -17.51,14.24 -2.33,1.2 -7.53,-4.36 -11.74,-5.14 -2.63,-0.49 -7.46,1.42 -8.47,3.58 -2.16,4.62 -2.47,10.09 -3.87,16.85 -3.26,2 -8.23,5.19 -13.33,8.16 -7.85,4.57 -10.38,10.16 -8.16,18.7 0.54,2.11 1.81,4.21 1.71,6.26 -0.14,3.1 -0.41,6.66 -2,9.13 -3.28,5.09 -3.38,10.18 -2.27,15.75 2.13,10.71 3.08,21.78 6.39,32.09 2.86,8.91 6.45,19.06 13,25 15.72,14.25 33.39,26.3 50.29,39.25 8.65,6.65 17.2,13.32 28.5,15.18 1.32,0.22 3.24,4.23 2.88,6.08 -2.55,12.88 -5.62,25.65 -8.58,38.66 -6.87,-5.35 -13.53,-10.37 -20,-15.61 -16.58,-13.41 -33.07,-26.92 -49.61,-40.37 -2.19,-1.78 -4.51,-4.87 -6.74,-4.84 -4.69,0.08 -7.62,-2 -10.14,-5.2 -3.42,-4.4 -7,-3.69 -10.9,-0.83 -12.86,9.51 -25.87,18.84 -38.48,28.66 -2.17,1.69 -4.18,5.71 -3.75,8.21 1.68,9.65 4.38,19.11 6.71,28.64 5,20.6 10,41.19 15.21,62.31 -4.3,-1.55 -8,-2.79 -11.58,-4.22 -3.58,-1.43 -28.86,-2.24 -30.95,-2.61 -7.84,-1.41 -18.15,5.58 -15.91,13.64 1.57,5.67 2.23,11.62 4.2,17.13 1.47,4.14 3.61,8.59 6.75,11.51 18.31,17 36.93,33.75 55.6,50.41 9.54,8.51 18.89,17.38 29.23,24.85 22.87,16.54 46.27,32.34 69.53,48.34 19.64,13.51 39.41,26.84 59.08,40.32 q 60.86,41.7 121.66,83.45 c 11.16,7.64 22.54,14.94 33.71,22.54 21.5,14.63 42.83,29.49 64.41,44 10.13,6.8 21.81,7.83 33.59,6.87 10.72,-0.87 21.38,-2.51 32.08,-3.65 5.7,-0.61 11.47,-0.66 17.16,-1.33 12.4,-1.44 22.63,-0.47 33.53,9 13.63,11.86 29,23.57 48.88,24.62 2.7,0.14 5.45,1.57 8,2.85 6.36,3.28 12.59,6.82 18.89,10.23 8.78,4.75 16,8 25.43,-1.67 13.91,-14.2 31.89,-24.42 43,-41.5 4.16,-6.37 9.6,-7.59 16.17,-7.61 8.29,0 16.74,1 24.86,-0.23 14.24,-2.1 28.29,-5.53 42.42,-8.38 25.69,-5.18 51.37,-10.43 77.08,-15.49 18,-3.54 36.1,-6.18 53.31,-13.18 7,-2.84 14.73,-4 17.74,-11.58 a 1.37,1.37 0 0 1 2.45,-0.15 c 1.27,2.22 3.5,2.44 7.13,1 a 12.63,12.63 0 0 1 8.45,0 c 4.52,2 7.74,0.78 11,-2.1 8.72,-7.83 17.63,-15.48 26.06,-23.61 3.47,-3.35 6.12,-3.71 9.92,-0.91 5.46,4 10.74,9.38 16.93,11 7.23,1.92 16.21,2.58 22.85,-0.1 7.36,-3 13,-10.27 19.28,-15.84 6.63,-5.9 12.73,-12.45 19.74,-17.84 4.86,-3.74 7.76,-8 7.2,-13.82 -1.37,-14.47 -0.78,-29.5 -11.38,-42 10.46,-6.45 10.72,-14.64 5.39,-24.1 -0.56,-1 0.58,-3.93 1.77,-4.75 9.6,-6.61 15.62,-17.81 27.51,-21.5 a 3.81,3.81 0 0 0 2,-2.5 c 2.84,-13.23 5.87,-26.42 8.2,-39.74 2.49,-14.24 4.5,-28.58 6.33,-42.92 1.36,-10.7 2.72,-21.47 3,-32.23 0.24,-10.38 -1,-20.78 -1.46,-31.17 a 3.91,3.91 0 0 1 0.8,-2.8 c 4.66,-4.2 9.48,-8.21 14.18,-12.36 6.31,-5.56 12.89,-10.85 18.74,-16.85 7.4,-7.59 14.46,-15.55 21.07,-23.84 1.92,-2.62 3.8,-7.61 2.65,-10.07 z"
         style="display:inline;fill:none;stroke:#ffffff;stroke-width:8px;stroke-linecap:round;stroke-linejoin:round"
         id="path128" />
    </g>
    <g
       id="Paint"
       style="display:inline">
      <path
         d="m 932.49,1126.1 -26.27,-50.58 -34.1,-30.37 L 818,1033.35 762.14,956 649.55,872.37 l 6.62,-70.53 -90.68,-69.4 -22,14.62 91,66.93 -5.77,71.58 109.28,84.1 71.33,102.33 32.67,-6 28.69,25.84 39.63,69.87 128.06,-25 -9.05,-10.69 z m 320.69,-263.1 -51.06,-79 -1.64,-30.65 -67.3,-94.77 -108,-61.34 -46,-4.6 -42.41,-7 -80.93,-47 -17.23,6.09 84.34,53.33 56.23,7.4 17.55,-7.4 129.27,82.81 57.21,78.54 3.27,24.57 7.88,18 45,63.19 v 72 l 6.79,12.06 12.7,-62.77 z"
         style="display:inline;fill:#d43515"
         id="path131" />
    </g>
    <g
       id="Canopy"
       style="display:inline">
      <polygon
         points="1205.53,1040.44 1174.06,1014.41 1159.43,1003.03 1137.34,1017.78 1137.34,1047.08 1155.01,1079.69 1141.59,1100.23 1178.95,1122.21 1217.81,1084.88 "
         style="display:inline;fill:#82b3d1"
         id="polygon134" />
    </g>
    <g
       id="Grey"
       style="display:inline">
      <path
         d="m 715.39,1176.89 c 1,3.2 0.93,7.42 3,9.41 8.47,8 17.6,15.34 26.72,23.12 1.69,-2.68 2.87,-4.57 3.8,-6.06 L 717,1176.57 Z m 318.19,-215.66 -8.45,-5.48 -13.43,7.75 2.2,10.58 11.23,19.16 4.66,13.29 -36.67,-22.72 -52.8,-69.13 -8.08,7 -1.73,5 57.85,91.18 54.63,13.07 61.6,71.9 9.9,-25 V 1065 l -17.6,-10.67 z m -194.65,109.65 -16.67,4.55 -5.73,4.26 56.05,85.06 33.64,-7.7 -37.15,-63.32 z m 340,-171.31 -3.63,-31.21 -15.87,-20.36 -6.32,4.41 2.58,9.86 7.24,37.32 -23.14,-29.59 -9.66,-5.5 -4.17,8.14 66.44,99.83 v 22.75 l 10.88,13 26,-12.19 -51.69,-77.09 z m 124,-140.16 -49.78,48.38 -6.41,13 -3.58,-3.34 -32.12,-40.62 -9,7.8 50,73.56 5,-20.9 58.3,-60.46 z m -916.37,-268.92 17.88,-11.61 -32.25,-23.57 85.6,-47.61 33.82,17.65 17.6,-10.61 -49.7,-31.09 -12.41,6.88 -32.21,1 -54.18,27.47 -6.87,25.86 -20.59,8.14 6.29,4.13 z M 650,564.05 648.63,538.69 638.18,527.18 596.65,503.27 569.7,490.49 523,516.2 l 4.69,21.18 51.69,35.82 36.85,2.68 z m -208.32,238.53 -91.86,-70.14 -19.71,69.4 c 0,0 54.07,47.7 54.57,47.7 0.5,0 57,-46.96 57,-46.96 z M 892,498 948.14,469.47 908.44,442.58 808,441.22 Z M 244,741 c -1.14,-4 -25.56,-18.58 -30,-18 -2.5,0.33 -35.5,24 -38.44,28.83 -2.46,2 -4,4.08 -0.9,5.71 a 48.59,48.59 0 0 0 0.78,7.37 c -1.16,2.3 0.06,4.78 1.79,7.31 1.36,4.16 3.13,7.49 5.05,8.26 a 1.21,1.21 0 0 1 0.05,0.18 l 0.15,-0.09 a 2.36,2.36 0 0 0 0.52,0.09 c 4.87,0.28 47.29,-26.26 58.39,-36.27 l 2.63,-1.68 -0.6,-0.4 c 0.46,-0.58 0.68,-1.03 0.58,-1.31 z m 198.65,-96.52 c -0.34,-5.19 -113,-85.47 -119.17,-85.47 -2.67,0 -17,7.83 -16.69,12.33 0.31,4.5 113.21,89.33 117.54,89.16 4.33,-0.17 18.67,-10.83 18.34,-16.03 z m 96.44,-4.25 c -4,-1.33 -12.89,-1.78 -13.22,0.56 -0.33,2.34 30.22,81 34,81.78 3.78,0.78 13.89,-6.67 14.33,-9.89 0.44,-3.22 -31.65,-71.31 -35.09,-72.46 z M 721.78,470.3 c 4.44,0.19 12.89,-6.19 12,-9.52 -0.89,-3.33 -112.26,-73.33 -117.11,-72.78 -4.85,0.55 -13.11,3.85 -13.11,7.18 0,3.33 113.77,74.93 118.22,75.12 z m 76,-42.88 c 4.44,2.19 18.89,1.36 20,0 1.11,-1.36 0.89,-40.42 2.69,-43.77 1.8,-3.35 21.31,-15.54 27.31,-19.34 6,-3.8 0.44,-6.2 -3.78,-7.8 -4.22,-1.6 -23.38,-3.28 -26.22,-3.29 -2.45,0 -26.88,8.25 -29.11,13.56 -2.23,5.31 -2.23,36.66 -2,41.3 0.23,4.64 6.66,17.14 11.11,19.34 z M 802.5,610 c 3.33,3.67 120.67,51.33 130.67,55.83 10,4.5 9.66,-1.83 7.83,-3.83 -1.83,-2 -105.4,-69.39 -111.83,-71.17 -1.81,-0.5 -30,15.5 -26.67,19.17 z m -19,177.5 c -1.84,-3 -90.71,-102.93 -95.32,-102.25 -2.84,0.42 -34.5,20.25 -31.84,22.58 2.66,2.33 105.84,76.5 120.5,85.49 14.66,8.99 8.49,-2.82 6.65,-5.82 z m -272.39,223.94 c -4.67,0.89 -134.44,23.34 -143.11,24.67 -8.67,1.33 -9.11,0.45 -7.11,5.56 2,5.11 44.22,32.89 48.74,33.82 4.52,0.93 115.26,-20.71 124.59,-22.49 9.33,-1.78 7.56,-6.89 6.45,-9.51 -1.11,-2.62 -24.28,-33.05 -29.56,-32.05 z M 829,1164.75 c -4,2.41 -39.67,32.25 -43.67,36.25 -4,4 -26.33,31.33 -26.33,35 0,3.67 21.67,8.67 25,8.67 3.33,0 20.67,-22.34 22,-26.34 1.33,-4 23.71,-21 29.54,-25.33 5.83,-4.33 6.5,-8.33 6.5,-11.58 0,-3.25 -11.04,-17.9 -13.04,-16.67 z m 306.41,-183.31 c -2.49,-0.22 -10.74,2.78 -11.89,5.89 -1.15,3.11 5.37,11.56 6.37,14.23 1,2.67 4.22,11.33 9.89,8.44 5.67,-2.89 7.11,-8.44 8,-11.62 0.89,-3.18 -10.78,-16.79 -12.37,-16.94 z M 748.22,590.82 c 1.34,-4 6,-13.82 4.89,-16.71 -1.11,-2.89 -20,-14.22 -24.55,-14.22 0,0 -20.34,12.67 -22.34,16 -2,3.33 2.45,5.34 3.56,10 1.11,4.66 -49.34,35.33 -53.61,37.55 -4.27,2.22 -12.61,-4.66 -16.39,-4.22 -3.78,0.44 -24.22,12.89 -25.11,15.34 -0.89,2.45 20,16.22 22.22,17.11 2.22,0.89 20.44,-0.67 24.22,-1.56 3.78,-0.89 85.78,-55.33 87.11,-59.29 z m 410.89,-18.34 c 1.33,-2.3 2.45,-44.37 1.78,-47 -0.67,-2.63 -22.9,-39.63 -23.55,-38.22 -1.33,2.89 -0.9,53.11 0,58.45 0.9,5.34 20.44,29.07 21.77,26.77 z"
         style="display:inline;fill:#707070"
         id="path137" />
    </g>
    <g
       id="Shadows"
       style="display:inline;opacity:0.2">
      <path
         d="m 226.58,855.94 57.34,50.3 4.41,-19.24 -61.75,-34.34 z m -9.93,-222.58 9.93,40.47 73.76,58.61 21.08,8.56 12.19,-50.73 -113.45,-77 z m 408,415.4 -15.82,-3.61 36.38,153 34,-5.16 21.34,20.14 76.62,34.87 28.83,-29.67 -19.2,-18.71 z m -265.28,-8.32 225.6,157.18 h 8.16 L 415.82,1025.85 Z M 1146,1026 l -10.56,-0.1 1.93,21.23 -106.66,-91.13 -22.21,4.65 5.4,13.44 11.23,19.16 4.66,13.29 -36.33,-26.09 -65.68,-89.08 10,-15 L 847.2,812.78 816.53,802 v 7.31 l 79.77,82 -12.12,47.95 141,219.54 21.62,-5.35 83.38,-37.93 42.51,13.75 25.66,-26.57 c 0,0 7.52,3.3 -5.35,-30.13 -12.87,-33.43 -47,-46.57 -47,-46.57 z m 125,-252.74 -103.94,-108.76 -9.22,25.5 44.28,70.85 55,76.46 28.9,-30 z m -301.95,-349.94 -2.5,12.19 13,7.09 c 0,0 44.11,25.84 57.64,32.86 13.53,7.02 16.55,6.51 26.07,6 9.52,-0.51 46.62,-14 46.62,-14 0,0 -32.58,-72.23 -44.61,-79.45 -12.03,-7.22 -100.76,-53.61 -100.76,-53.61 l -42.61,16.1 -17.2,21.78 v 32.51 l 1.95,6.3 z m -111.28,4.1 h 26.42 v -9.1 l -96.35,-55.15 v 49.13 l 5.27,17.21 z"
         style="display:inline;fill:#111111"
         id="path140" />
    </g>
    <g
       id="Outline"
       style="display:inline">
      <path
         d="m 335.88,869.88 a 3.09,3.09 0 0 0 0.56,-3 c -3.26,-5 -5.83,-11 -10.32,-14.63 -15.05,-12 -31.08,-22.73 -46.16,-34.67 -5.41,-4.28 -9.84,-2.25 -13.6,0.34 -10.08,7 -19.67,14.66 -29.24,22.35 a 56.73,56.73 0 0 0 -10,10.19 c -0.72,0.95 -0.58,2.53 -0.39,4.16 a 2.22,2.22 0 0 0 2.85,1.86 c 1.34,-0.41 5.73,-4 6.91,-4.93 11.3,-9.06 22.59,-18.13 34.1,-26.92 1.15,-0.88 4.21,-0.61 5.53,0.32 13.16,9.34 26.13,18.93 39.8,28.92 -10.5,8.14 -20.44,15.36 -29.82,23.25 -10.34,8.68 -11,13.87 -4.84,25.39 2.14,4 4.33,6.35 9.36,3.93 5.03,-2.42 10.69,-3.67 15.73,0 8.4,6.06 12.18,-2.12 19.91,-9.18 a 22.21,22.21 0 0 1 4.34,-3 c 7.32,-4 9,-5.54 5.69,-10.93 -2.41,-3.96 -7.4,-8.76 -0.41,-13.45 z m -21.94,28.26 c -2.59,1.53 -7.36,-0.17 -11,-1 -2.49,-0.58 -4.73,-2.23 -7,-3.36 L 322,872.37 c 2.18,4.51 4.22,8.75 6.35,13.17 -4.75,4.33 -9.02,9.46 -14.41,12.6 z M 605.53,965 c 1.12,0.85 3.76,1.38 4.56,0.71 5.59,-4.7 11.24,-9.44 16,-14.92 1.26,-1.43 0.58,-6.76 -1,-8.14 -8.33,-7.09 -17.24,-13.51 -26,-20.09 a 61.5,61.5 0 0 0 -5.28,-3.25 c -0.49,-0.3 -1.85,0.58 -2.3,1 -5.42,4.91 -11,9.65 -16,15 -1.08,1.15 -0.75,5.58 0.5,6.62 9.59,7.94 19.54,15.52 29.52,23.07 z m -7.27,-33.3 c 5.63,4.53 15.71,11.56 20.72,15.59 a 70.9,70.9 0 0 1 -9.72,8.72 c -6.55,-5.58 -25.14,-10.42 -11,-24.33 z M 483.74,834.9 a 95,95 0 0 0 8.16,-9.5 c 2,-2.88 -3.62,-5.07 -6.68,-7.73 -2.86,-2.49 -7.53,-5.54 -11.58,-8.52 A 66.51,66.51 0 0 0 461.1,821 c -5.05,6.22 -7.18,6.51 0.64,12.85 2.22,1.8 4.63,3.39 6.68,5.37 4.48,4.31 8.29,2.59 12,-1 1.12,-1.12 2.26,-2.22 3.32,-3.34 z m -75.35,149 a 65.4,65.4 0 0 1 7.52,6 c 5,4.86 9.33,2.92 13.52,-1.16 1.26,-1.23 2.55,-2.43 3.73,-3.73 3.22,-3.5 8,-6.58 9.2,-10.7 1.92,-6.41 -5.7,-6.81 -9.14,-9.81 -3.22,-2.81 -6.87,-5.14 -11.43,-8.48 -6.19,4.7 -12.5,8 -16.61,13 -5.69,6.98 -4.54,9.3 3.21,14.81 z m 663.75,-479.35 a 50.88,50.88 0 0 1 5.77,3.4 c 3.88,2.73 7.17,1.64 10.38,-0.65 1,-0.69 2,-1.37 2.86,-2.1 a 62.81,62.81 0 0 0 7.06,-6 c 1.43,-1.62 -4.37,-3.84 -7,-5.52 -1.93,-1.23 -4.06,-2.3 -6.56,-3.6 a 4.76,4.76 0 0 0 -4.39,0 c -4,2.07 -7.91,3.75 -10.57,6.15 -4.38,3.86 -3.5,5.15 2.45,8.25 z M 228.94,827.9 c 8.07,-4.67 15.21,-11 22.41,-17.07 0,0 1,-4 0,-5.42 l -14.59,-13.07 c -1.08,-0.93 -3.51,-1.39 -4.42,-0.74 -7.51,5.32 -14.9,10.82 -22.08,16.57 -3.26,2.61 -3.53,6.11 -0.36,9.19 2.36,2.28 4.77,4.73 7.6,6.27 3.63,2 9.15,5.59 11.44,4.27 z m 651.17,-18.78 a 39.31,39.31 0 0 0 4.69,-1.34 c 1.14,-0.42 2,-1.78 2.88,-2.74 3.67,-3.76 7.58,-3.18 11.49,-0.51 3.23,2.21 6.35,4.58 9.72,7 -2.23,2.82 -5.11,5.44 -6.56,8.69 -0.62,1.41 -0.25,3.26 0.14,5.12 a 2,2 0 0 0 2.79,1.37 9.71,9.71 0 0 0 3,-2 c 6.12,-6.77 11.6,-14.16 18.1,-20.53 5.45,-5.35 5.89,-7.52 -0.49,-11.89 -6.38,-4.37 -11.5,-7.83 -18.86,-12.91 -5.31,-3.66 -7.38,-2.47 -11.76,0.34 -8.26,5.31 -12.77,13.18 -16.9,21.42 a 15.28,15.28 0 0 0 -1.19,5.37 2.43,2.43 0 0 0 2.95,2.61 z m 89.57,-77.43 a 190.33,190.33 0 0 0 21.85,14.41 c 2.6,1.42 7.33,1.21 10,-0.25 4.65,-2.59 8.76,-5.38 14.51,-4.85 0.85,0.07 1.81,-1 2.77,-2.15 a 2.84,2.84 0 0 0 -0.16,-3.8 4.66,4.66 0 0 0 -2.58,-1.68 c -5.47,-0.47 -11.14,-1 -15.37,4 -0.67,0.79 -3,1 -4.09,0.48 -3.73,-1.72 -7.25,-3.88 -11.71,-6.35 4,-3.31 7,-5.57 9.79,-8.06 2.55,-2.3 2.66,-4.8 -0.81,-6.17 -8.51,-3.36 -21.76,0.55 -26.13,8.07 -0.82,1.38 0.44,5.25 1.93,6.35 z m -46.35,34.19 a 2.69,2.69 0 0 0 3.3,0.59 21.44,21.44 0 0 0 2.32,-1.39 c 6.68,-4.9 13.37,-9.77 19.95,-14.8 2.23,-1.72 5,-3.59 1.94,-7 -2.76,-3.06 -5.33,-5.13 -9.46,-1.53 -4.75,4.15 -10.33,7.4 -14.88,11.74 -2.45,2.33 -6.4,5.16 -5,9.34 a 9.07,9.07 0 0 0 1.83,3.05 z m -10.5,274.83 c -3.29,-4.87 -8.39,-6.59 -13.88,-5.68 -8.15,1.37 -16.19,3.37 -24.25,5.22 -5.85,1.35 -7.74,6.59 -4.27,11.45 5.71,8 11.78,15.8 17,24.14 3.36,5.41 7.82,7.23 15.24,7.39 6.75,-1.57 15,-3.47 23.26,-5.44 6.5,-1.55 8,-4.87 4.52,-10.3 -5.81,-8.99 -11.64,-17.94 -17.62,-26.78 z m -6.15,-629.59 a 10.17,10.17 0 0 0 2.94,-0.9 c 8.33,-4.34 16.47,-9.05 24.84,-13.3 1.21,-0.61 3.37,0.33 5,0.88 13.8,4.68 27.58,9.44 42.43,14.54 -3.92,2.11 -7.11,3.93 -10.38,5.58 -11.32,5.71 -14.38,13.88 -10.1,25.95 1.15,3.23 2.25,4 5.71,3.1 3.46,-0.9 8,-1.94 10.43,-0.36 7.16,4.7 12.83,2.13 18.81,-1.66 a 28.79,28.79 0 0 1 4.38,-2.26 c 6.35,-2.62 6.6,-4.22 2.25,-9.49 a 11.87,11.87 0 0 1 -2.45,-7.18 c 0.19,-11.46 -2.7,-16.62 -12.2,-19.9 -15.83,-5.46 -31.62,-11.09 -47.63,-15.95 -3.65,-1.11 -8.36,0 -12.23,1.2 -4.51,1.42 -8.71,3.92 -12.88,6.25 -3.79,2.13 -7.71,4.28 -10.85,7.2 -0.79,0.74 -1,2.15 -1,3.66 a 2.55,2.55 0 0 0 2.93,2.64 z m 88,25.2 c -5.94,6.39 -12.58,3.66 -19.5,1.32 9.6,-8.88 12.93,-9.03 19.5,-1.32 z m 64.69,150.73 c 6.85,4.25 13.61,8.66 20.46,12.91 5.76,3.58 12.37,5.93 18.62,0.53 1.78,-1.54 6.55,-4.88 7.23,-5.8 a 2.73,2.73 0 0 0 -0.26,-3.55 18.34,18.34 0 0 0 -3.17,-2.71 c -5.76,-3.54 -9.5,-5.53 -17.39,-10.4 -9.07,-5.6 -16.09,-8.68 -24.56,-0.77 -0.29,0.27 -1.87,1.63 -2.19,1.92 -3.11,2.97 -3.91,4.66 1.26,7.87 z M 1075,581 l 19.1,11.8 c -4.85,4 -8.81,3 -18.09,-4.92 -1.08,-0.97 -1.33,-3.61 -1.01,-6.88 z m 133.23,230.45 q -7.54,-12.61 -15.78,-24.81 c -2.94,-4.35 -9.84,-5.39 -10.34,-2.06 -1.46,9.67 -6,19.49 -0.61,29.3 1.46,2.67 3.49,5 5.21,7.56 4.38,6.44 8.46,13.12 13.21,19.29 3,3.89 7.24,2.79 8.17,-1.89 1.12,-5.62 1.78,-11.33 2.77,-18.18 a 6.06,6.06 0 0 0 -0.15,-2.47 27.42,27.42 0 0 0 -2.47,-6.78 z M 451.48,639.89 c -5.54,-4.57 -11.61,-8.49 -17.42,-12.74 Q 410.75,610.08 387.5,592.93 c -19.76,-14.51 -39.63,-28.87 -59.18,-43.65 -3.63,-2.74 -6.09,-2.36 -9.35,-0.27 -7,4.47 -14.15,8.67 -21,13.28 -3.6,2.41 -4.24,5.76 -0.59,8.8 3.65,3.04 7.31,5.58 11,8.36 l 61.22,46.47 c 12.91,9.79 25.8,19.61 38.77,29.32 4.32,3.24 8.81,6.26 12.35,8.71 a 4.73,4.73 0 0 0 2.46,0.83 c 1.76,0.08 2.61,0.26 3.11,-0.08 8.78,-6.1 17.59,-12.17 26.06,-18.69 0.81,-0.67 0.36,-5.1 -0.87,-6.12 z M 424.72,656 c -1.31,0.69 -4.58,-1.57 -6.54,-3 q -29.71,-22.23 -59.27,-44.68 c -16.35,-12.38 -32.65,-24.84 -49.08,-37.35 3.16,-2.31 6.05,-4.57 9.08,-6.61 4,-2.68 7.24,-2.56 11.56,0.76 21,16.08 42.37,31.62 63.62,47.35 L 439.37,646 c -5.16,3.69 -9.63,7.39 -14.65,10 z m 378.93,502.42 c 0.48,-7.15 7,-4.47 -4.3,-15.2 -11.3,-10.73 -63.17,-59.26 -67.19,-60 -4.02,-0.74 -43.73,-6.13 -43.73,-2 0,4.13 90.08,97.36 94.84,95.33 4.76,-2.03 19.91,-10.95 20.38,-18.1 z M 1317.78,775 c -3.8,-8 -7.81,-16.61 -13.92,-22.82 -13.65,-13.87 -28.61,-26.44 -43.06,-39.52 -3.27,-3 -6.66,-5.8 -10,-8.69 -6.68,-5.79 -12.15,-11.62 -10.65,-22 1.41,-9.68 -1.29,-19 -6.32,-27.77 -6.47,-11.18 -12.38,-22.68 -18.47,-34.08 q -19.77,-37 -39.46,-74 -23.36,-43.76 -46.7,-87.49 c -11.69,-22 -23.25,-44 -35,-66 -3.19,-6 -5.4,-13.59 -10.4,-17.26 -12.42,-9.11 -26.1,-16.52 -39.44,-24.33 -12.5,-7.31 -25.27,-14.16 -37.8,-21.42 -6.83,-4 -13.94,-7.29 -21.83,-5 q -31.34,9.18 -62.38,19.34 c -3,1 -5.89,4.08 -7.71,6.91 -3,4.74 -5.28,10 -7.64,15.16 -1.44,3.13 -2.8,4 -6.6,2.79 -12.61,-4.08 -25.39,-7.72 -38.23,-11 -13.4,-3.46 -26.91,-6.45 -40.44,-9.36 a 11.9,11.9 0 0 0 -7,1.07 c -9.1,4.28 -18.22,8.58 -26.95,13.55 -2.26,1.29 -4.29,4.95 -4.44,7.63 -0.54,9.35 -0.25,18.76 -0.2,28.14 0,8.87 -2,18.24 6.22,25.67 a 52.15,52.15 0 0 1 -12.74,-1.11 c -8.6,-2 -17,-5.61 -25.71,-6.36 -12.46,-1.09 -20,-7.26 -25.64,-17.75 -1.85,-3.46 -5.59,-6.18 -9,-8.49 -5,-3.41 -10.52,-6.1 -15.77,-9.17 -16,-9.34 -32.13,-18.4 -47.78,-28.25 -5.59,-3.52 -10.39,-4.09 -15.46,-0.52 -9.58,6.75 -18,3.4 -25.85,-2.82 -5,-4 -10.06,-3.78 -15.48,-1.72 -4.82,1.83 -6.08,5.8 -3.2,9.95 0.85,1.22 1.89,2.3 2.94,3.57 -0.91,1 -1.43,2 -2.11,2.13 -12.1,2 -24.21,4 -36.36,5.63 -2.2,0.3 -4.59,-1.35 -6.93,-1.51 a 27.27,27.27 0 0 0 -8,0.54 c -8.82,2 -17.58,4.29 -26.38,6.41 a 3.3,3.3 0 0 1 -1.94,-0.37 c -8.75,-3.88 -17.36,-8.17 -26.28,-11.62 -7.95,-3.07 -15.86,-7.69 -25,-4.07 -2.58,1 -5.26,1.8 -7.88,2.71 -9,3.13 -18.16,6 -27.06,9.52 -3.75,1.46 -5.68,4.17 -1.92,8.2 2.27,2.43 3.75,5.59 6,9.09 -5.81,0 -10.53,-0.37 -15.17,0.11 -4.64,0.48 -9.39,0.88 -13.32,2.88 -11.23,5.72 -21.9,12.53 -33.1,18.34 -9.07,4.7 -15.76,10.59 -16.93,21.51 -0.7,6.54 -4,11.69 -11,13.46 -2.21,0.55 -4.88,2.86 -6.35,2.19 -9,-4.12 -18.19,-2.88 -27.1,-0.81 A 287.5,287.5 0 0 0 276.4,456 c -3.22,1.16 -6.56,4.76 -7.82,8 -3.77,9.79 0.18,18.2 6.37,25.89 a 13,13 0 0 1 2.68,5.67 c 1.95,11.43 2.86,23.11 5.82,34.24 1.35,5.07 0,8.68 -2.49,11.33 -5.2,5.44 -10.94,10.84 -17.51,14.24 -2.33,1.2 -7.53,-4.36 -11.74,-5.14 -2.63,-0.49 -7.46,1.42 -8.47,3.58 -2.16,4.62 -2.47,10.09 -3.87,16.85 -3.26,2 -8.23,5.19 -13.33,8.16 -7.85,4.57 -10.38,10.16 -8.16,18.7 0.54,2.11 1.81,4.21 1.71,6.26 -0.14,3.1 -0.41,6.66 -2,9.13 -3.28,5.09 -3.38,10.18 -2.27,15.75 2.13,10.71 3.08,21.78 6.39,32.09 2.86,8.91 6.45,19.06 13,25 15.72,14.25 33.39,26.3 50.29,39.25 8.65,6.65 17.2,13.32 28.5,15.18 1.32,0.22 3.24,4.23 2.88,6.08 -2.55,12.88 -5.62,25.65 -8.58,38.66 -6.87,-5.35 -13.53,-10.37 -20,-15.61 -16.58,-13.41 -33.07,-26.92 -49.61,-40.37 -2.19,-1.78 -4.51,-4.87 -6.74,-4.84 -4.69,0.08 -7.62,-2 -10.14,-5.2 -3.42,-4.4 -7,-3.69 -10.9,-0.83 -12.86,9.51 -25.87,18.84 -38.48,28.66 -2.17,1.69 -4.18,5.71 -3.75,8.21 1.68,9.65 4.38,19.11 6.71,28.64 5,20.6 10,41.19 15.21,62.31 -4.3,-1.55 -8,-2.79 -11.58,-4.22 -3.58,-1.43 -28.86,-2.24 -30.95,-2.61 -7.84,-1.41 -18.15,5.58 -15.91,13.64 1.57,5.67 2.23,11.62 4.2,17.13 1.47,4.14 3.61,8.59 6.75,11.51 18.31,17 36.93,33.75 55.6,50.41 9.54,8.51 18.89,17.38 29.23,24.85 22.87,16.54 46.27,32.34 69.53,48.34 19.64,13.51 39.41,26.84 59.08,40.32 q 60.86,41.7 121.66,83.45 c 11.16,7.64 22.54,14.94 33.71,22.54 21.5,14.63 42.83,29.49 64.41,44 10.13,6.8 21.81,7.83 33.59,6.87 10.72,-0.87 21.38,-2.51 32.08,-3.65 5.7,-0.61 11.47,-0.66 17.16,-1.33 12.4,-1.44 22.63,-0.47 33.53,9 13.63,11.86 29,23.57 48.88,24.62 2.7,0.14 5.45,1.57 8,2.85 6.36,3.28 12.59,6.82 18.89,10.23 8.78,4.75 16,8 25.43,-1.67 13.91,-14.2 31.89,-24.42 43,-41.5 4.16,-6.37 9.6,-7.59 16.17,-7.61 8.29,0 16.74,1 24.86,-0.23 14.24,-2.1 28.29,-5.53 42.42,-8.38 25.69,-5.18 51.37,-10.43 77.08,-15.49 18,-3.54 36.1,-6.18 53.31,-13.18 6.4,-2.6 13.44,-3.78 16.89,-9.8 a 2.77,2.77 0 0 1 4.15,-0.86 c 1.34,1.17 3.36,1.08 6.28,-0.1 a 12.63,12.63 0 0 1 8.45,0 c 4.52,2 7.74,0.78 11,-2.1 8.72,-7.83 17.63,-15.48 26.06,-23.61 3.47,-3.35 6.12,-3.71 9.92,-0.91 5.46,4 10.74,9.38 16.93,11 7.23,1.92 16.21,2.58 22.85,-0.1 7.36,-3 13,-10.27 19.28,-15.84 6.63,-5.9 12.73,-12.45 19.74,-17.84 4.86,-3.74 7.76,-8 7.2,-13.82 -1.37,-14.47 -0.78,-29.5 -11.38,-42 10.46,-6.45 10.72,-14.64 5.39,-24.1 -0.56,-1 0.58,-3.93 1.77,-4.75 9.6,-6.61 15.62,-17.81 27.51,-21.5 a 3.81,3.81 0 0 0 2,-2.5 c 2.84,-13.23 5.87,-26.42 8.2,-39.74 2.49,-14.24 4.5,-28.58 6.33,-42.92 1.36,-10.7 2.72,-21.47 3,-32.23 0.24,-10.38 -1,-20.78 -1.46,-31.17 a 3.91,3.91 0 0 1 0.8,-2.8 c 4.66,-4.2 9.48,-8.21 14.18,-12.36 6.31,-5.56 12.89,-10.85 18.74,-16.85 7.4,-7.59 14.46,-15.56 21.07,-23.84 1.92,-2.59 3.8,-7.58 2.65,-10.04 z m -19.24,-17 -19.7,17.79 -6.68,-6 c 3.67,-3.46 6.31,-7 6.39,-9.34 0.23,-7 -66.64,-71.24 -76.58,-75.86 0,0 -9.77,-6.65 -4,11.9 5.77,18.55 0.08,20.86 9.61,29.09 9.53,8.23 37.69,47.52 42.38,53.35 2.63,3.26 9.82,0.3 16.34,-4.33 0.53,0.47 5.72,4.8 6.78,5.67 l -22.5,24.91 c -7.72,-11.87 -14.84,-22.8 -21.94,-33.74 -16.3,-25.09 -31.81,-50.75 -49.25,-75 -7.25,-10.09 -8.58,-20.53 -10.06,-31.68 -1.2,-9.09 -2.66,-18.13 -4.31,-29.25 z M 1167,545.83 q 3.27,6.38 6.52,12.78 c -1.64,10.93 -0.34,29.31 -0.31,34.11 0,5.07 14.92,18.68 17.43,22.48 2.51,3.8 3.08,-17.6 1.28,-21 12,22.57 24.39,44.92 36.75,67.29 4.38,7.93 5.33,16.33 5,25.85 -4.35,-3.55 -8.21,-6.39 -11.71,-9.62 -13.54,-12.49 -27.22,-24.85 -40.3,-37.81 -5.24,-5.19 -9.06,-11.81 -13.54,-17.76 -1.06,-1.4 -2.33,-2.67 -3.31,-4 -3.31,-4 -1.09,-68.47 -1.09,-68.47 -0.31,-9.6 1.51,-6.83 3.28,-3.85 z m -9.27,-17.83 -0.84,39.57 -16.61,-23.68 c -0.23,-8.7 -0.47,-39.34 -2.08,-52.73 q 9.87,18.36 19.53,36.84 z m -20.1,113.2 c -0.05,-1.71 1.72,-53.26 2.26,-77.3 0.06,-2.37 -0.44,-9.4 0.67,-7.1 l 16,24.16 c 0,0 -0.77,38.87 -0.36,42.86 0.76,7.71 1.8,15.38 2.8,23.06 1.62,12.4 2.93,21.55 5.13,33.85 0.8,4.47 3.29,8.87 5.83,12.76 19.34,29.68 38.91,59.2 58.35,88.82 q 7.74,11.79 15.1,23.82 c 1.32,2.18 4,6 4.93,8.39 0.88,2.7 -1.65,5.21 -3.43,2.66 -5.54,-9.2 -10.91,-18.51 -16.68,-27.56 -2.65,-4.16 -6.46,-7.57 -9.12,-11.73 -7.22,-11.28 -13.77,-23 -21.18,-34.14 -11.5,-17.3 -23.41,-34.34 -35.31,-51.38 -7.89,-11.3 -16.82,-22 -23.76,-33.82 -2.6,-4.49 -1.06,-11.49 -1.23,-17.35 z m 112.31,211.19 c -10.66,-17.61 -12.39,-17 -6.89,-25.44 11.95,17.36 12.39,16.5 6.89,25.44 z M 1234.39,827 c -4.09,-6.2 -6.07,-9.73 -9.21,-15.05 2,-3.09 2.86,-4.6 4.4,-6.68 9.32,14.73 9.07,15.73 4.81,21.73 z m -14.33,-22 c -4.42,-7.11 -6.56,-11.21 -10.83,-18.73 0.56,-0.21 3.83,-3.49 4.4,-3.7 10.65,15.54 12.91,16.12 6.43,22.43 z M 951.19,506.68 c -4.25,-2.61 -8.4,-5.41 -12.84,-7.66 -4.77,-2.42 -16.69,1.88 -17.75,6.88 -0.5,2.38 1.73,6.09 3.79,8.11 4.71,4.65 10.35,8.36 15.12,13 a 118.23,118.23 0 0 1 11.41,13 0.86,0.86 0 0 1 -1,1.32 c -11.59,-4.93 -36.33,-19.76 -42.07,-23.83 -7.31,-5.19 -8.55,-5.07 -13.49,-15.47 8.69,-4.7 17.37,-9.53 26.18,-14.11 11.42,-5.94 23,-11.55 34.41,-17.56 13.14,5.5 81.61,50.81 93,56.88 11.39,6.07 9.17,2.87 19,2.26 9.83,-0.61 23.69,-1.88 27.88,-2.26 4.19,-0.38 38.35,22.67 38.35,22.67 0,1.87 -0.81,46.27 -1.43,68.75 -0.3,11 -1.14,22.07 -1.78,34 -9.8,-5.86 -19.37,-11.45 -28.8,-17.25 -18.62,-11.47 -37.08,-23.18 -55.76,-34.54 -13.7,-8.32 -27.83,-15.95 -41.46,-24.4 -20.2,-12.53 -36.25,-29.7 -51.74,-47.45 -2.9,-3.33 -6.61,-6 -10.15,-9.08 3.88,-2.72 6.84,-4.58 9.54,-6.76 2.7,-2.18 2.68,-4.59 -0.41,-6.5 z M 843.81,456.42 c 2.3,1.88 9.84,6 12.36,7.63 12.47,8 20.59,13.27 35,23.38 -1,0.48 -5.45,2.11 -6.28,2.52 -21.71,-17.51 -46.1,-29.42 -70.82,-47.35 13.44,0.94 29,0.06 41.67,0.74 5.89,0.32 12,1.62 17,5.11 3.64,2.58 5.69,4 11.5,7.49 5.13,3.08 17.31,-1.31 23.76,-4.77 1.61,-0.87 5.45,-3.09 8,-1.72 a 241.59,241.59 0 0 1 26.79,19.08 l -5.41,3.57 c -2.28,-2.19 -10.47,-8.75 -12.52,-10.22 -5,-3.57 -9.67,-5.08 -13.92,-3.06 -1.25,0.59 -4.61,1.85 -5.85,2.62 -3.1,1.95 -1.22,4.42 3.09,7.64 5.38,4 8.11,6 13.12,10 -3.6,2.7 -13.53,6.23 -17.74,9.39 -2.06,-4.92 -2.06,-4.94 -3.81,-8.7 -0.56,-1.21 -3,-3 -4.38,-4.17 -7.29,-5.91 -11.59,-7 -19.17,-12.6 -7.21,-5.33 -10.12,-7.11 -18.32,-12.86 -4.18,-2.93 -8.11,-4.65 -11.3,-3.23 -5.26,2.36 -8.98,4.4 -2.77,9.51 z M 936.32,348 c 13.85,-2.38 27.34,-7.4 40.65,-12.19 6.94,-2.5 12.54,-1.39 18.51,1.92 q 32.92,18.28 66,36.35 c 12,6.52 21.57,14.71 27.64,27.66 10,21.32 21.49,41.94 32.35,62.86 0.65,1.26 1.24,2.56 2.63,5.46 -11.87,-6.53 -22.39,-12.1 -32.71,-18 -21.71,-12.51 -43.3,-25.22 -65,-37.81 -18.89,-11 -37.57,-22.35 -56.86,-32.55 -6.28,-3.32 -14.15,-4.41 -21.4,-4.91 -11.76,-0.81 -23.77,0.73 -35,-5.35 4.38,-11.22 8.87,-20.99 23.19,-23.44 z m -61.54,23.1 c 3.84,1.14 6.06,2.32 12.67,4.5 -4.33,2.08 -7.6,3.13 -10.2,5.07 -1.87,1.38 -3.74,3.87 -3.93,6 -0.14,1.62 4,5.57 4.26,5.87 10.51,10.55 20.95,4.13 30.44,-1.56 2,-1.18 2.45,-3.43 2.63,-6.09 0,-0.78 -2.63,-2.94 -3.1,-3.32 a 41.07,41.07 0 0 1 8.48,-0.85 c 12,1.13 24,2.32 36,3.95 a 37.15,37.15 0 0 1 12.81,3.82 c 22.68,12.54 45.15,25.45 67.69,38.24 q 45.88,26 91.73,52.16 c 2.13,1.34 5.5,6.5 5.5,9.13 0,2 1.88,34.14 2.87,51.36 -10.43,-6.6 -35.21,-22 -38.48,-21.19 -4.17,1 -38.71,5.12 -38.71,5.12 l -100.5,-62.23 c -15.89,-9.63 -31.94,-19 -47.86,-28.57 -7.69,-4.62 -15.16,-9.63 -22.89,-14.19 -2.72,-1.6 -6.18,-5.73 -8.9,-1.18 -1,1.75 1.69,5.75 2.47,8.08 h -55.23 c -3.28,-14 -3.07,-27.15 3.85,-38.89 2.59,-4.39 7.15,-6.93 11.73,-10.1 12.89,-8.96 19.71,-10.18 36.67,-5.13 z M 818.17,357 a 5.44,5.44 0 0 1 1.82,-0.52 c 15.07,0.84 18.75,0.2 28.49,5.3 -4.39,2.76 -16.46,10.2 -20.29,12.33 -7.11,3.95 -10.58,3.78 -17.71,0 -6.47,-3.41 -8.37,-4.43 -13.76,-7.14 7.87,-3.62 14.65,-6.79 21.45,-9.97 z m -28.28,15.28 c 8.46,4.56 15.82,8.36 23,12.56 1,0.57 1.13,3.08 1.14,4.7 0.09,11.47 0,22.95 0,35.78 -4.93,0 -11.83,0.44 -14.2,-1.78 a 36.32,36.32 0 0 1 -9.54,-15.2 c -1.59,-5.11 -0.38,-11.09 -0.39,-16.69 -0.01,-5.75 -0.01,-11.53 -0.01,-19.34 z m 0.38,59.2 c 1.54,0 35.23,-0.16 52.84,0.06 10.18,0.12 20.36,0.71 30.52,1.38 a 17.92,17.92 0 0 1 5.56,1.81 1.68,1.68 0 0 1 1,1.91 l -0.15,0.75 c -12.48,-0.63 -24.95,-1.55 -37.44,-1.82 -14.94,-0.31 -29.89,0 -44.83,-0.17 -2.29,0 -4.58,-0.93 -6.84,-1.7 -3.6,-1.21 -2.19,-2.19 -0.66,-2.19 z m -58.06,-12.39 c 8.16,5 15.12,5.63 25.58,7 4.06,0.52 8.41,1.35 11.77,3.41 36.71,22.5 73.11,45.49 110,67.72 4.91,3 6.48,7.07 9.21,11.06 2.73,3.99 5.19,8.79 9,11.34 16.55,11 33.47,21.48 50.42,31.87 21.67,13.28 43.5,26.31 65.27,39.45 a 0.9,0.9 0 0 1 -0.58,1.66 c -3.5,-0.44 -7,-0.93 -10.51,-1.26 -7.68,-0.73 -16,0.23 -22.91,-2.41 C 969,585 959.31,578.87 949.69,573 c -30.14,-18.4 -60.11,-37.09 -90.11,-55.73 -6.08,-3.78 -12,-7.83 -18.39,-12 3.22,-6.48 -0.34,-10.83 -6.14,-14.37 -9.33,-5.69 -18.54,-11.57 -27.9,-17.18 -1.81,-1.08 -4.26,-2.16 -6.15,-1.81 -6.2,1.14 -10.54,-1.77 -15.48,-4.88 C 760,451 734.27,435.34 708.63,419.54 695.88,411.67 669.14,395.33 663.96,392.25 a 1.46,1.46 0 0 1 1.1,-2.68 101.7,101.7 0 0 0 11.88,3 c 21.94,3.15 37.39,15.62 55.27,26.55 z m -77,-54.33 c 12.32,7.24 24.34,14.97 37.79,23.24 -23,-3 -41.86,-11.3 -58.33,-24.93 8.94,-4.68 9.09,-4.94 20.52,1.72 z m -49,3.1 c 5.36,2.26 10,3.56 14,6 21.77,13.41 43.3,27.18 65,40.65 20.8,12.89 41.77,25.52 62.62,38.33 11.06,6.79 22,13.72 34.16,21.28 l -59.46,4.59 a 1.16,1.16 0 0 1 -0.7,-2.15 c 7,-4.26 13.83,-8.73 21,-12.74 5.27,-3 5.83,-6 0.85,-9.34 -5.59,-3.73 -11.42,-7.1 -17.11,-10.69 -14.61,-9.19 -29.12,-18.55 -43.81,-27.61 -18.74,-11.56 -37.87,-22.53 -56.33,-34.52 -7.06,-4.59 -8.34,-6.32 -20.29,-1.37 -5.88,2.43 -13.16,4.06 -15.4,12.59 -5,-3.18 -15.7,-9.76 -22,-13.75 10.39,-1.76 25.91,-6.57 37.41,-11.24 z m 0.64,26.74 c 5,-3.29 9.45,-4.51 15.13,-0.88 20.62,13.18 41.55,25.87 62.36,38.76 15.42,9.55 30.82,19.13 46.62,28.93 l -9.63,6.05 z m -66.42,-16.78 c 10.16,-2.88 17.31,3.27 24.89,8.06 q 31.23,19.71 62.38,39.55 c 13.47,8.55 26.91,17.17 40.42,25.68 15.91,10 32.64,18.94 47.56,30.27 10.55,8 20.67,2.63 30.93,3.1 6.06,0.27 12.19,-1.4 18.31,-2 9.42,-1 18.84,-2 28.29,-2.56 3.2,-0.21 7,-0.22 9.63,1.22 8.92,4.81 17.47,10.31 27,16.05 -5.48,3.32 -10.11,6 -14.62,8.9 -5.24,3.35 -5.35,5.61 -0.28,8.87 18,11.57 36.09,23 54.06,34.58 2.09,1.35 15.84,9.57 18.33,11.11 15.42,9.58 30.44,19.84 46.21,28.79 5.34,3 12.41,3.37 18.78,4.21 10.56,1.4 21.2,2.2 33.84,3.46 -5.32,3.12 -9.22,4.93 -12.48,7.53 -1,0.77 -1.34,2.25 -1.72,3.75 a 2,2 0 0 0 1.68,2.45 7.47,7.47 0 0 0 3.7,-0.15 c 4.61,-1.9 8.89,-4.6 13.49,-6.53 a 6.9,6.9 0 0 1 5.34,0.37 c 8.35,4.75 16.53,9.8 23.68,14.1 -1.65,5.7 -3.27,10.79 -4.43,16 -0.2,0.87 1.73,3.18 2.55,3.12 a 28.23,28.23 0 0 0 7.82,-2 c 1.38,-0.52 3.09,-2.91 3.59,-2.62 4.52,2.64 7.26,-1.32 7.85,-3.59 0.75,-2.87 -0.16,-7.5 -2.19,-9.5 -4.15,-4.06 -9.45,-7 -14.43,-10.17 -5.33,-3.37 -10.85,-6.46 -16.85,-10 29.88,-3.5 49.17,17.24 72.34,29 -6,3.19 -6.3,6.05 -0.91,9.48 10.71,6.8 21.46,13.52 32.34,20 4.61,2.76 8,1.33 8.84,-3.82 a 43.2,43.2 0 0 1 13.84,7.8 c 0,0.08 -3.67,9.89 -8.66,22.85 v 0 c -3.46,-4.23 -23,-12.18 -58.61,-32.67 -3.27,-1.89 -15.41,18.74 -21.61,26.3 q -5.7,-8.25 -11.42,-16.49 c -1.74,-2.5 -4.88,-4.13 -7.58,-5.84 -20.8,-13.24 -41.59,-26.52 -62.52,-39.57 -27,-16.82 -70.11,-41.58 -96.77,-58 0,-0.25 -21.14,-17.06 -28.15,-21.11 -10,-5.78 -17.75,-9 -27.77,-11.07 C 789.51,523.1 772,519.56 754.4,516 c -9.42,-1.92 -19.37,-2.51 -28.13,-6.06 -9.15,-3.69 -17.22,-10.09 -25.63,-15.51 -19.29,-12.46 -38.45,-25.12 -57.76,-37.57 q -37.11,-23.91 -74.38,-47.6 c -13.83,-8.8 -27.8,-17.38 -41.69,-26.09 a 13.83,13.83 0 0 1 -1.82,-1.64 c 5.38,-1.28 10.44,-2.28 15.38,-3.68 z M 1172.75,920 c -0.17,0.3 -2.45,2.1 -3.74,3.19 a 1.94,1.94 0 0 1 -2,0.34 c -1.61,-0.61 -3.39,-1.1 -4.21,-2.26 q -16.2,-23 -31.89,-46.39 c -1,-1.41 -0.82,-3.38 -0.82,-5.58 0,-1.72 0.52,-3 2.21,-0.94 a 489.61,489.61 0 0 1 40.45,51.64 z m -14.91,-66.77 c 13.42,14.3 19.77,21.07 16,46.34 -13.3,-6.39 -7.25,-7.03 -16,-46.34 z m -12.36,19.88 c -4.45,-7.86 -10.42,-13 -19.29,-15.44 -15,-4.21 -23.92,-15.72 -31.62,-28.39 -2,-3.35 -4.93,-6.19 -6.83,-9.6 -1.45,-2.59 -3,-5.84 -2.7,-8.6 1.44,-13.21 3.48,-26.36 5.54,-41.18 l 22.19,32.1 c 10.94,15.8 21.45,31.91 33,47.25 5.27,7 5.76,14.83 7.46,22.58 1,4.43 1.53,8.94 2.48,14.71 -3.96,-5.12 -7.71,-8.94 -10.23,-13.43 z M 955.73,664.76 q -20.26,-13.39 -40.62,-26.65 c -26.2,-17.07 -52.69,-33.69 -78.5,-51.33 -0.48,-0.32 -1,-0.61 -1.44,-0.91 v 0 l -62.75,-38.53 c 0,0 5.22,1.06 7.09,1.37 27.45,4.56 74.36,12.21 81.22,15.8 q 59.84,37.75 119.66,75.54 c 12.4,7.81 25.74,14.33 37.27,23.23 7.71,6 13.51,14.7 19.24,22.85 12.69,18.08 24.54,36.75 37.34,54.76 2.52,3.55 6.26,6.24 9.74,9.48 a 1.36,1.36 0 0 1 -1.27,2.3 22.16,22.16 0 0 1 -7.08,-2.82 c -11.05,-7.69 -21.38,-16.41 -32.48,-24 -12,-8.22 -24.59,-15.65 -36.94,-23.39 -13.67,-8.57 -27.42,-17 -41,-25.74 -2.7,-1.75 -6.46,-3.29 -5.43,-8.18 0.22,-0.94 -2.45,-2.73 -4.05,-3.78 z M 655,696.53 640.71,655.88 c 5.92,-1 11.44,-2.66 16.94,-2.59 11,0.14 18.86,-6.54 27.12,-11.84 17.65,-11.34 34.54,-23.86 52.16,-35.25 9.34,-6 17.22,-12.71 19.18,-24.15 0.68,-3.93 2.73,-4.86 6,-4.34 10.56,1.69 21.1,3.54 31.66,5.3 6.45,1.07 12.9,2.09 19.36,3.14 a 1.22,1.22 0 0 1 0.49,2.21 z m 39.73,-2.45 c 6.09,7.58 13,14.5 19.45,21.78 9.83,11.06 19.45,22.32 29.41,33.26 12.24,13.44 24.75,26.64 37.11,40 a 39.6,39.6 0 0 1 2.54,3.37 c 0.39,0.75 0.3,1.22 -0.62,0.51 L 660.15,707.7 c 7,-4.81 21.31,-14.41 22.14,-15.09 6.91,-5.61 7.05,-5.3 12.47,1.47 z m -95.1,60.83 a 6.94,6.94 0 0 0 3.69,-0.41 c 4.63,-2.4 8.82,-5.65 13.28,-8.62 11.7,8.48 23.77,17.22 35.83,26 17.88,13 35.69,26.12 53.63,39 11.54,8.3 23.31,16.27 34.89,24.5 7.15,5.07 13.85,10.84 21.29,15.41 3.37,2.19 8.79,6 4.32,5 -4.47,-1 -82.12,-17.5 -87.06,-20.79 -16.63,-11.82 -42.41,-29.73 -47.61,-33.27 h -0.06 c -7.53,-6.06 -15.4,-11.72 -23.13,-17.54 q -39.13,-29.49 -78.27,-59 c -3.86,-2.9 -7.79,-5.72 -11.45,-8.86 A 13.72,13.72 0 0 1 515.1,711 c -1.61,-4.18 -4.15,-4.28 -7.19,-2.07 A 133.06,133.06 0 0 0 495,719.15 c -4.95,4.67 -11.66,5.09 -16.92,0.67 a 199.3,199.3 0 0 0 -18.83,-14.38 c -3.47,-2.28 -3.59,-4.15 -2.33,-7.59 6.08,-16.56 11.68,-33.32 18.08,-49.77 1.83,-4.74 0,-7.1 -3,-9.5 -5.84,-4.65 -11.73,-9.24 -17.78,-13.61 -25.18,-18.22 -50.48,-36.29 -75.64,-54.53 -23.23,-16.85 -46.33,-33.87 -69.52,-50.75 -2.59,-1.89 -21.88,-16.56 -21.92,-19.89 -0.14,-9.17 -0.54,-16.2 3.33,-21.64 4,2.69 36,25.69 39.95,28.53 28.8,21 57.5,42.19 86.37,63.12 20.38,14.79 41,29.28 61.48,43.89 13.54,9.65 27.81,18.46 40.31,29.3 5.23,4.53 7,13.26 9.88,20.26 8.65,20.75 17,41.63 25.69,62.35 3,7.1 4.13,7.08 10.89,2.7 4.22,-2.73 8.56,-5.29 13,-7.64 a 4.74,4.74 0 0 1 4.13,0.06 c 3.08,2.09 5.86,4.63 9.34,7.47 -2.55,3.11 -5.33,5.83 -7.23,9.06 a 9.62,9.62 0 0 0 -0.94,4.28 2,2 0 0 0 2.43,2.1 23.53,23.53 0 0 0 3.46,-0.94 c 1,-0.35 1.64,-1.48 2.41,-2.29 6.93,-7.29 6.93,-7.3 14.1,-2.49 -2.51,3.1 -5.48,6.21 -7.75,9.77 a 9.41,9.41 0 0 0 -1.16,3.49 3.19,3.19 0 0 0 2.83,3.73 z m 118,161.26 c 7.87,5.26 43.62,30.42 49.74,35 -12.68,6.14 -23.49,11.33 -30.45,14.67 -4.07,-3.54 -9.06,-6.42 -13.37,-9.76 q -34.87,-27 -69.8,-53.89 l -19.33,-14.93 c 0,0 5.25,-59.2 5,-65.15 a 8.1,8.1 0 0 0 -1.52,-3.93 0.77,0.77 0 0 1 1.07,-1.07 c 19.9,13.79 51.28,35 60.62,41.79 -9.33,4.75 -9.58,12.31 -8.82,20.09 0.14,1.49 1.21,3.62 2.39,4.07 a 5.6,5.6 0 0 0 4.74,-1.12 c 1.55,-1.34 2.17,-3.71 3.62,-5.23 a 58.28,58.28 0 0 1 6.44,-5.36 c 1.8,-1.4 4.75,-2.34 5.29,-4.08 0.66,-2.11 0.2,-5.79 -1.28,-7.14 -6,-5.44 -11.27,-8.66 -14.62,-11.9 -11.87,-7.21 64.35,13.74 96.93,19.26 -22.59,9.2 -86.51,34.9 -87.25,37.86 -0.88,3.53 -0.03,3.65 10.64,10.82 z M 474,919.29 c -3,-2.48 -62.34,-47.54 -86.08,-66.66 11.41,-9.28 23.08,-18.33 34.56,-27.63 14.72,-11.87 29.33,-23.89 44,-35.83 a 5.16,5.16 0 0 1 1.66,-0.91 c 7.43,-2.08 18.43,-4.15 31.63,3.38 a 32.36,32.36 0 0 1 -2.73,3.7 2.58,2.58 0 0 0 -0.18,2.83 19.32,19.32 0 0 0 4.56,5.24 c 2.36,2 5.47,5.86 10.46,2.34 1,-0.74 4.47,1.09 6.3,2.42 7.28,5.26 14.36,10.79 20.54,15.47 -2.1,3.18 -2.4,5.79 -1.24,6.85 9,8.18 9.22,10.16 14.94,5.74 0.77,-0.6 3.53,0.61 4.86,1.64 7.83,6 15.51,12.19 23.26,18.34 -3.45,6.35 2.53,8.69 5.77,11.45 1.91,1.63 9,0.25 9.12,-0.29 8.18,6.25 16.45,12.38 24.45,18.84 1.4,1.13 2.08,3.63 2.33,5.6 1,7.75 8.52,11.71 15.09,7.75 l 91.26,70.23 c -19.74,3.11 -37.61,5.78 -55.42,8.79 -12.92,2.19 -25.75,4.91 -38.65,7.23 -19.17,3.46 -38.38,6.73 -57.55,10.16 -16.35,2.93 -32.67,6 -49,8.94 -4.54,0.8 -9.27,0.74 -13.67,2 0,0 -45.1,-27.63 -46.28,-32.15 -1.18,-4.52 9.74,-52.34 6.01,-55.47 z m -108.18,-104 c 4.84,-4.29 6.27,-4.91 1.75,-8.91 -5.94,-5.25 -11.52,-9.25 -18.36,-15.05 -5,-4.28 -7.39,-6.54 -5.86,-12.78 3.32,-13.47 6.09,-27.09 9.23,-41.28 l 67.2,53.34 -3.25,3.32 L 379,764.11 c -2.41,-1.92 -4.75,-3.92 -7.19,-5.8 -6.6,-5.07 -9.83,-4.71 -15.67,1.66 -3.57,3.88 -2.48,6.51 1.91,9.61 8,5.71 15.58,12.13 23.27,18.33 7.69,6.2 14.93,12.33 22.53,18.31 a 11.27,11.27 0 0 0 5.45,2 c 5.86,0.68 11.75,1 19.5,1.7 l -18.33,14.68 c -5.17,-4.12 -10.66,-8.1 -15.67,-12.62 -4,-3.62 -7.6,-4.86 -12.05,-0.9 -1.78,1.58 -4.06,2.57 -6,4 -5.14,3.69 -3.49,6.59 1.63,10.42 2.75,2 14.72,12.22 14.72,12.22 l -8.08,7 -28,-22.74 a 93.7,93.7 0 0 0 8.75,-6.72 z M 354.7,814 c -20.07,-15.75 -20.07,-15.75 -18.8,-23.14 l 23.42,18.72 z m 49,15.9 -4.59,3.49 -15.26,-13.33 c 6.2,-3.5 11.2,-0.94 19.85,9.83 z m -8.36,-367.07 c -5.42,-3.57 -6.38,-4.41 -9.88,-6.74 13.55,-7.72 27,-15.34 40.4,-23 9.48,-5.45 19,-10.81 28.29,-16.58 3.21,-2 5.66,-2.52 8.81,-0.2 4.94,3.62 10.08,7 15.14,10.43 -4,1.05 -8.25,1.46 -11.83,3.27 -8.33,4.22 -16.35,9.08 -24.45,13.76 -4.55,2.62 -9.25,5.07 -13.43,8.19 a 129.8,129.8 0 0 0 -12.28,10.95 c -7.01,6.71 -12.35,5.46 -20.77,-0.09 z M 549.21,694.6 c -6.89,-17.29 -13.7,-34.38 -20.74,-52.07 11.2,-1.24 10.91,-1.12 14.84,8.5 3.44,8.45 7.69,16.58 11.51,24.88 5.18,11.16 6.18,8.99 -5.61,18.69 z m 13.41,-0.86 8.49,18.2 -10.49,7.63 L 553,704.19 Z M 586,659.65 v 0 l -1.53,-1 v 0 c -6.27,-7 -171.07,-115.62 -174.12,-119.91 -2.09,-2.93 0.59,-9.84 3.37,-17.91 0,0 32.66,13.25 44.15,16.63 16.06,4.71 27.83,16.14 41.14,25.1 18.69,12.59 36.84,26 55.38,38.81 2,1.37 5,1.68 7.55,1.73 9.83,0.2 19.87,-1.18 29.45,0.37 15.45,2.51 27.36,-3.88 39.2,-11.95 15.21,-10.37 30.65,-20.41 45.66,-31.06 a 12.83,12.83 0 0 0 4.73,-8.94 207.63,207.63 0 0 0 -1.19,-26.52 c -0.26,-2.64 -1.77,-6.11 -3.84,-7.49 -20.74,-13.81 -41.59,-27.49 -62.69,-40.76 -15.37,-9.66 -29,-20.94 -38.23,-36.82 -0.32,-0.56 -7.69,-13.4 -6.17,-12.45 7.7,5 175,114.33 232.37,149 h -0.22 c -12,-2.41 -24.12,-4.55 -36.29,-5.81 -11.3,-1.16 -18.76,-8.88 -27.51,-14.35 -5,-3.13 -9,-3.56 -13.81,0 -7.56,5.61 -15.41,10.82 -23,16.39 -6.15,4.51 -6,5.83 0.11,10.17 1.2,0.85 2.38,1.74 4.46,3.27 -16.56,10.88 -32.53,21.48 -48.7,31.74 -1.32,0.84 -4.71,0.06 -6.1,-1.15 -5.47,-4.76 -10.22,-5.3 -16.41,-0.65 -7.12,5.36 -15.28,9.32 -22.8,14.18 -6.26,4 -6.28,6.88 -0.6,11.29 3.81,3 7.31,6.64 11.58,8.62 9.65,4.46 11,13.34 13.91,22 2.36,6.93 6.45,17.23 8.49,22.48 1.44,3.66 -40.51,-23.33 -58.34,-35.01 z m 83.79,-127.86 c 0.18,13.84 -2.06,21.33 -16.4,25.25 -0.54,-7.09 -0.94,-14.31 -1.72,-21.49 -0.24,-2.22 -0.88,-5.07 -2.41,-6.36 a 159.22,159.22 0 0 0 -15.86,-11.7 c -11.68,-7.61 -23.53,-14.95 -35.33,-22.36 -2.38,-1.5 -4.86,-2.82 -5.58,-3.24 -1.65,-3.81 -2.16,-6.91 -4,-8.7 a 42,42 0 0 0 -11,-8.18 c -2.11,-1 -5.67,-0.23 -8.07,0.86 -3.34,1.51 -6,4.56 -9.35,6 a 10.46,10.46 0 0 1 -7.45,-0.16 c -3.65,-1.55 -6.2,-2.37 -10.19,0.31 -10.32,6.95 -21.13,13.2 -32,19.21 -5.53,3 -6.52,6.09 -1.39,11.2 l -10.27,6.27 c -5.2,3.19 -5.55,8.32 -0.62,11.74 6.36,4.42 12.34,10.87 20.64,5.13 2.54,2.82 4.56,6.06 7.43,8.08 15.56,11 30.88,22.38 47.26,32 6.47,3.8 15.43,3.68 23.34,4.6 5.8,0.67 11.75,0.13 19.17,0.13 -7.93,9.35 -15.84,10.42 -25.31,8.6 a 71.11,71.11 0 0 0 -20.66,-0.4 c -9.91,1.05 -15.83,-5.95 -22.75,-10.43 -13,-8.45 -25.37,-18 -38.1,-26.86 -7.51,-5.26 -15.28,-10.17 -22.85,-15.35 -3.94,-2.7 -6.74,-5.4 -3.69,-11.15 3.44,-6.51 4.77,-14.17 8.44,-20.51 2.09,-3.63 6.83,-5.91 10.66,-8.34 9.61,-6.08 19,-12.65 29.21,-17.57 7.09,-3.42 15.24,-5 23.1,-6.36 a 242.72,242.72 0 0 1 28.25,-2.76 16.27,16.27 0 0 1 9.07,2.62 c 24.57,16 48.91,32.33 73.49,48.3 3.5,2.27 5.07,3 5,8.54 -0.03,0.62 -0.04,2.42 -0.03,3.08 z M 549.7,528.1 c 12.42,-7.73 24.79,-15.54 37.39,-23 2.37,-1.39 5.73,-1.09 8.57,-0.26 l -32.75,20.21 c -3.34,2.06 -6.73,4 -10,6.15 -3.82,2.42 -5.3,6.13 -4.11,10.29 0.43,1.51 2.9,2.72 4.69,3.49 1.79,0.77 4.24,0.27 5.79,1.28 5.32,3.45 10.29,7.46 15.57,11 3.06,2 6.51,3.34 6.19,8.11 -0.06,0.86 2.29,2.46 3.7,2.68 1.15,0.18 3.66,-1.2 3.66,-1.88 0,-7.57 7,-8.53 11.18,-11.76 a 174.44,174.44 0 0 1 19.83,-12.78 c 2.27,-1.3 5.39,-1.07 8.09,-1.66 1.22,-0.27 3.29,-0.69 3.4,-1.32 A 23.1,23.1 0 0 0 631,531 c -0.19,-1.12 -1.53,-2.05 -2.55,-3 a 0.5,0.5 0 0 1 0.62,-0.78 c 4.28,2.6 8.74,5 12.72,8 1.66,1.25 2.82,3.85 3.19,6 1.79,10.35 -1.16,17.54 -11.13,23.52 -12.37,7.43 -24.28,8.83 -38.53,8.47 -15,-0.39 -24.08,-9.12 -35,-15.79 -9.09,-5.58 -17.56,-12.18 -27,-18.84 5.56,-3.58 10.93,-7.1 16.38,-10.48 z m -16.37,-8.87 c 8.37,-8.45 26.94,-21.45 34.54,-13.45 l -28.94,17.55 c -0.29,-0.51 -5.3,-3.59 -5.6,-4.1 z M 597,517 c 7.72,4.7 15.23,9.74 23.11,14.86 -10.12,6.49 -19.77,12.06 -28.67,18.64 -5.39,4 -9,3.66 -13.93,-0.54 -5.6,-4.78 -12.06,-8.56 -18.71,-13.15 11.29,-7 21.95,-13.67 32.79,-20.07 A 6.28,6.28 0 0 1 597,517 Z m 115.9,61 c -1,-0.75 -2.19,-1.33 -3.6,-2.17 6.36,-4.5 12.34,-8.86 18.49,-13 a 4.37,4.37 0 0 1 3.78,0.23 c 5.81,3.46 11.49,7.14 17.65,11 -1.31,4.43 -2.44,8.38 -3.67,12.29 a 3.84,3.84 0 0 1 -1.4,1.89 c -24.64,16 -49.35,32 -73.9,48.17 -3.21,2.12 -5.61,5.46 -8.48,8.13 A 5.77,5.77 0 0 1 659,646 c -5.82,1 -11.64,2.16 -17.5,2.57 -2.11,0.15 -4.61,-1.27 -6.49,-2.6 -5.13,-3.6 -10,-7.54 -15.38,-11.63 6,-3.8 11.48,-7.81 17.48,-10.83 2.11,-1.06 5.93,-0.56 8.1,0.71 5.71,3.32 10.37,3.77 16.25,-0.31 16.86,-11.72 34.19,-22.75 51.3,-34.11 6.31,-4.23 6.32,-7.4 0.17,-11.86 z m 114.51,15.34 c 1.12,-0.69 3.71,0.09 5.12,1 q 34,21.68 67.78,43.57 c 12.44,8 24.86,16.06 36.95,24.78 a 1.029563,1.029563 0 0 1 -1,1.8 L 803.65,608.78 c 8.49,-5.61 16.02,-10.78 23.79,-15.5 z m -300.16,-159.15 27.22,-3.62 22.37,29.52 c -8.44,1.23 -16.67,3.85 -24.66,3.28 -16.19,-1.14 -28.57,6.63 -41.26,14.48 -6.69,4.14 -13.13,9 -20.33,11.92 -10.52,4.27 -13.84,13.08 -17.12,22.42 -1.66,4.72 -3.64,9.33 -5.88,15 l -49.35,-17.07 c 5.07,-18.5 16.79,-34 19.77,-54.28 8.37,-4.92 18.3,-10.7 28.16,-16.6 2.37,-1.43 4.08,-0.94 6.78,-0.27 5,1.23 10.61,0.77 15.88,0.19 12.84,-1.41 25.62,-3.28 38.42,-4.97 z M 502,414.7 c 0,0.07 0,0.25 -0.14,0.35 -8.94,9.05 -15.96,1.15 -22.86,-3.05 -8.69,-5.31 -16.75,-11.64 -25.61,-17.89 l 9.33,-5.48 z m -42.8,-45.31 c 1.53,8.71 -2.38,13.27 -14.21,17.41 -3.91,1.37 -5.75,-0.13 -10.31,-8.89 z m -10,29.67 c 0.87,0.73 1.21,2.16 0.43,2.9 -12.13,7.27 -9.81,7.08 -29.08,-7.79 0.16,-0.6 15.61,-4.17 28.67,4.89 z m -36.59,-2.66 c 7.42,4.81 13.9,10 21.07,14.65 -19.45,11.11 -19.41,11.24 -28.89,3.69 -3.55,-2.82 -7.47,-5 -11.92,-8.26 4.68,-2.78 16.47,-8.12 19.76,-10.08 z M 382,412.8 c 2.77,-0.51 6.32,1.43 9.07,3.05 4.85,2.86 9.36,6.32 15.37,10.47 -4.1,2.23 -7.42,3.91 -10.59,5.83 -2.29,1.39 -5.3,-1 -8.85,-3.38 -2.52,-1.69 -5.15,-3.25 -7.67,-5 -2.52,-1.75 -4.89,-3.43 -7.63,-5.36 3.5,-2.02 6.68,-4.96 10.3,-5.61 z m -16.69,11.28 c 5.81,4 14.28,9.7 20.17,13.79 -3.39,1.86 -9.76,5.62 -12.18,6.95 -13.78,-9.19 -11.12,-12.39 -8.01,-20.74 z m -4.12,30.18 c 10.64,8 21.68,15.52 32.79,23.4 l -7.9,4.92 L 346.84,455 c 5.16,-4.82 9.29,-4.55 14.33,-0.74 z m -43.78,8.26 c 17.64,12.2 43,30.76 61,43.25 -2.84,4.2 -10.31,2.42 -13.69,0 -10.65,-7.62 -39.6,-26.27 -48.83,-35.53 -2.18,-2.18 -3.17,-4.73 1.5,-7.72 z m -9.75,9.32 55,40.38 c 1.75,1.21 2.75,2 0.2,2 -2,0 -8.7,-0.17 -11.79,-2.19 -10.21,-6.67 -35.37,-23.31 -44.52,-31.34 -5.4,-4.69 -2.23,-5.46 1.09,-8.85 z m -3.32,-16.53 c -1.09,6 -2,11.12 -3,16.35 a 1.19,1.19 0 0 1 -2.35,0 c -0.85,-4.71 -1.7,-9.38 -2.6,-14.34 z m -23.08,31.47 c -12.28,-17.58 -5.47,-22.95 8.9,-26.74 1.37,1.44 1.31,3.95 1.37,5.66 0.06,1.71 0,3.5 -1.07,4.8 -0.79,0.46 -1.31,1 -1.89,1.06 -4.29,0.51 -7.51,7.32 -7.33,15.22 z m 3.67,62.52 c 5.22,-8.06 9.85,-17.47 15.43,-25.85 52.38,37.08 115.36,84 167.63,121 -6.5,18.17 -12.66,35.36 -19.2,53.64 L 274.6,566.78 a 172,172 0 0 1 10.31,-17.48 z m -34.77,8.79 c 9.95,7.51 19.87,15.08 29.87,22.53 9.65,7.18 19.46,14.15 29.08,21.37 11.75,8.82 23.37,17.82 35.06,26.7 q 19.38,14.73 38.78,29.4 c 21.81,16.57 43.56,33.21 65.41,49.71 9.61,7.26 19.61,14 29.05,21.47 4.33,3.42 7.31,8.57 11.66,12 18.5,14.44 37.24,28.55 56,42.69 12.24,9.25 24.65,18.27 36.86,27.55 9,6.87 17.84,14.09 26.88,21 6.57,5 13.25,9.87 19.93,14.71 l -3.19,33.15 Q 613,870.64 600.42,861 580.92,846 561.34,831.14 c -18.92,-14.45 -37.92,-28.81 -56.7,-43.45 -3,-2.31 -4.42,-6.95 -7.57,-8.52 -3.15,-1.57 -7.82,-1.35 -11.75,-1.06 -20.77,1.57 -31.83,-14.9 -46,-25.07 -21.74,-15.58 -42.61,-32.38 -63.78,-48.75 -7.13,-5.52 -14.28,-11 -21,-17.08 -2.24,-2 -3.62,-5.54 -4.32,-8.62 -0.7,-3.08 0,-6.68 -0.22,-10 -0.35,-4.43 -1.67,-7.94 -5.91,-10.91 -11.13,-7.82 -21.69,-16.46 -32.37,-24.91 a 10.67,10.67 0 0 1 -3.14,-4.57 c -2.8,-7.78 -1.46,-7.25 -4.6,-14.88 -1.59,-3.85 -4,-7.93 -7.18,-10.45 -13.73,-10.87 -32.77,-24.59 -46.72,-35.2 -0.99,-0.83 -0.16,-7.52 0.06,-9.58 z m 0.48,19.81 c 6.31,3.64 42.19,28.49 43.28,32.05 2.79,9.12 6,18.14 9.36,27 0.73,1.92 2.1,3.58 3.38,5.71 a 1.17,1.17 0 0 1 -1.44,1.69 c -5.13,-2 -10.5,-3.79 -14.84,-6.94 -17.38,-12.61 -34.23,-26 -52.46,-39.9 3.73,-5.68 6.23,-14.75 12.7,-19.61 z m 63.75,212 c 7,-31.73 14.29,-63.41 21.2,-95.17 a 5,5 0 0 0 -0.53,-3 3.19,3.19 0 0 0 -5.25,-0.92 4.08,4.08 0 0 0 -1,1.73 c -3.46,13.27 -6.52,26.65 -10.18,41.93 -7.47,-3.36 -15.25,-5.39 -21.24,-9.83 -18,-13.33 -35.15,-27.8 -52.91,-41.44 -10.92,-8.39 -15.6,-19.35 -16.46,-32.72 -0.4,-6.06 -1.06,-12.53 -3.54,-17.94 -4,-8.81 -1,-15.2 4.45,-21.57 1,-1.16 1.82,-2.45 3.06,-4.13 q 20.61,15.62 41.25,31.28 c 6.46,4.93 12.27,11 19.35,14.73 5.34,2.8 12.26,2.53 18.43,3.87 9.63,2.1 19.48,2.17 27.82,9.88 4.75,4.39 4.27,9.66 4,12.9 -1.32,16.89 10.86,24.54 21.23,32.95 21.13,17.13 42.91,33.45 64.45,50.08 9.89,7.63 19.83,15.21 30.53,23.41 -7.23,6 -11.11,10.43 -15.81,7.06 -4.7,-3.37 -9.37,-7.28 -14,-11 q -30,-23.76 -59.91,-47.49 c -5.51,-4.36 -11.19,-8.49 -16.56,-13 -6,-5.07 -8.76,-4.37 -10.53,3.58 -3.74,16.84 -7.05,33.77 -10.93,50.58 -1.64,7.13 -4.32,14 -6.35,21.06 -0.38,1.32 0.08,2.89 0.18,5 -3.37,-2.58 -6.58,-4.73 -9.35,-7.34 a 5.7,5.7 0 0 1 -1.42,-4.47 z m -135.25,-39 c 11.13,-8.1 22.24,-16.22 33.47,-24.18 1.19,-0.84 3.57,-1.46 4.59,-0.84 7.83,4.72 15.45,9.78 24.47,15.6 L 183.09,779 c -1.25,-5.72 -7.54,-25.51 -3.97,-28.11 z m 103.11,232.91 c -22.43,-16.7 -47.62,-30.78 -68.11,-49.88 -18.64,-17.37 -40.72,-41.49 -60.5,-57.53 -7.54,-6.12 -14.85,-23.17 -4.83,-27.71 12.16,-4 33.43,-2.62 43.88,7.09 2.7,2.51 -2.62,17.47 -3.82,20.4 -2.18,5.36 -0.8,8.45 4.1,12 8.52,6.23 16,13.84 24,20.87 q 29,25.67 58.09,51.32 c 10.17,9 68.78,57.63 78.26,67.59 -0.03,0.04 -8.95,2.1 -71.07,-44.15 z m 33.14,2.19 c -12.82,-11.21 -25.35,-22.75 -38.15,-34 -16.76,-14.7 -33.71,-29.17 -50.46,-43.88 -9.57,-8.39 -19,-16.94 -28.22,-25.74 -1.36,-1.3 -1.73,-4.54 -1.32,-6.64 1,-5.33 1.88,-11 4.46,-15.68 6.62,-11.89 3.69,-23 -1,-34.32 -1.57,-3.81 -2.41,-7.92 -4,-11.74 -3.65,-9 -7.52,-17.92 -11.44,-27.18 12.65,-8 24.22,-15.34 35.74,-22.72 7.36,-4.72 14.76,-9.39 21.91,-14.42 3.82,-2.68 6.52,-2.15 9.94,0.81 4.83,4.17 10.22,7.69 15.35,11.52 0.71,0.53 195.25,160.61 196.21,163.15 1.18,3.07 -7.7,49.71 -5.44,53.34 1.81,2.91 32.27,22.44 44.42,30.16 -33,5.31 -130,20.91 -131.16,20.91 -1.34,0 -4.52,1.83 -8.37,-1.54 -16.05,-14.11 -32.37,-27.95 -48.47,-42.03 z m 64.93,66 c -5.45,-3.76 -10.49,-8.11 -15.58,-12.21 L 512.1,1015 c 8.35,9.45 21.87,24.72 23.25,26.1 2,2 4.19,6.53 2,8 -1.72,1.19 -91.82,16.71 -127.84,22.79 Q 394.9,1062 380.32,1052 Z m 314.41,135.66 c -7.26,0.65 -14.58,0.76 -21.84,1.44 -22.34,2.12 -44.63,5 -67,6.31 a 42.93,42.93 0 0 1 -26.79,-7.36 q -54.2,-37.14 -108.37,-74.33 c 14.23,-1.2 51.19,-10.35 55.42,-11 4.92,-0.73 37.1,-4.64 38.44,-7.77 1.34,-3.13 -17.43,-24.13 -21,-27.71 -3.57,-3.58 -104.59,19.25 -111.18,20.27 l 0.09,0.09 q -6.6,-4.5 -13.21,-9 L 547,1055 c 6.23,-1.08 54.22,-8.63 61.74,-9.86 a 12.1,12.1 0 0 0 1.4,3.58 c 5.8,10 12.9,19.25 19.32,28.9 10.26,15.44 20.24,31.07 30.68,46.39 9.75,14.28 20,28.22 29.91,42.4 3.12,4.47 5.87,9.2 8.75,13.83 3.1,4.91 0.58,7.01 -4.07,7.42 z m -77.41,-145.51 c 2.82,-0.26 4.45,-0.55 6.09,-0.55 15.64,0 31.28,0.15 46.91,-0.08 12.21,-0.17 24.41,-1.12 36.6,-1.08 2.94,0 5.82,0.86 10.66,5.91 20.69,21.54 41.81,42.67 62.68,64.05 15.17,15.54 45.63,47.39 45.83,47.65 -7,6.78 -35.46,32.76 -40.57,36.79 z m 102.61,127.36 c -5.13,-3.89 -3,-9.75 -5.16,-14.36 -0.81,-1.75 -6.41,-1.42 -6.51,0.41 -0.35,6.74 -0.18,13.51 -0.16,21.68 a 0.58,0.58 0 0 1 -1.05,0.33 l -76.83,-111.94 a 0.54,0.54 0 0 1 0.8,-0.71 l 126,114.44 -12,10.57 c -8.33,-6.85 -16.5,-13.93 -25.09,-20.42 z m 24.13,54.1 c 1.62,-3.78 11.75,-14.11 12.8,-18 0.49,-1.8 -0.1,-5.12 -1.37,-6 -4.8,-3.1 7.19,-10.66 10.34,-14.06 l 14.39,14.62 c -4.7,5.14 -19.36,24.84 -23.18,29 -2.31,-0.78 -10.79,-4.72 -12.98,-5.56 z m 37.18,18.21 -17.61,-9.17 c 6.92,-8.3 13.88,-16.82 21.06,-25.15 2.08,-2.41 4.72,-3.21 7,0.14 2.48,3.59 5,7.13 7.63,10.79 -5.95,7.72 -11.84,15.32 -18.08,23.39 z M 835,1190 c -8.08,7.14 -16.51,13.89 -24.64,21 -2.9,2.53 -4.77,3.48 -7.19,-0.68 -2.52,-4.34 -5.87,-8.2 -9,-12.46 9.38,-7.72 25.38,-21.68 35,-30.08 a 0.89,0.89 0 0 1 1.43,0.37 c 0.33,0.87 0.68,1.73 1.08,2.56 a 29.66,29.66 0 0 0 4.85,7.77 c 4.47,4.68 2.01,8.35 -1.53,11.52 z m 14.18,-3.94 c -3.3,-5.79 -6.55,-11.14 -9.42,-16.69 -1.35,-2.6 -1.79,-5.67 -3,-8.39 -1.09,-2.55 -2.14,-5.38 -4,-7.31 -20,-20.67 -40.78,-40.62 -60,-62 -12,-13.29 -21.71,-28.6 -32.36,-43.07 -2.19,-3 -4.65,-6.23 -6.81,-9.19 -4.11,-5.62 -5.19,-9.43 -11.88,-6 a 6,6 0 0 1 -2.19,0.14 q -50.47,0.67 -101,1.33 c -1,0 -61.87,8.22 -72.68,12.23 a 26.34,26.34 0 0 0 -1.82,-6.37 c -1.57,-3.58 -14.91,-18.59 -22.61,-27.16 8.37,-1.34 16.71,-2.93 25.06,-4.44 16.78,-3 33.54,-6.12 50.33,-9.09 19.16,-3.4 38.35,-6.69 57.52,-10 16.8,-2.92 33.61,-5.81 50.4,-8.77 8.82,-1.56 17.6,-3.41 26.45,-4.74 2,-0.29 5.18,0.37 6.15,1.75 q 26.25,37.69 52,75.73 17.65,26 34.92,52.21 c 14.28,21.68 28.58,43.36 42.34,65.37 2.07,3.31 1.26,8.42 1.81,12.92 z m -3.48,-72.45 c -1.17,0.19 -3,-1 -3.87,-2.09 -3.84,-5 -7.44,-10.22 -11.18,-15.43 19.5,-4.84 26.13,-10.17 38.46,13.06 -8.11,1.58 -15.77,3.2 -23.45,4.45 z m 27.2,2 a 2.77,2.77 0 0 1 2.14,1.22 c 3,4.66 5.83,9.41 9.18,14.88 -8.47,1.85 -15.79,3.63 -23.21,4.93 -1.35,0.24 -3.49,-1.15 -4.49,-2.41 -3.09,-3.92 -5.81,-8.13 -9.33,-13.19 9.16,-2.04 17.4,-3.8 25.67,-5.46 z M 820.59,1079 c 14.72,-3.37 24.32,0.85 26.56,5.68 -12.27,2.43 -22.79,3.76 -26.56,-5.68 z m 54.31,82.8 -12.46,-17.9 c 8.39,-1.56 16.2,-3.07 24,-4.4 1.24,-0.21 3.26,0 3.85,0.75 3.86,5.14 7.42,10.51 11.48,16.37 z m 167.75,-12.1 c -0.63,-2.34 -1.17,-4.68 -1.9,-7 -2.93,-9.19 -4.33,-9.63 -13.2,-7.33 -10.13,2.63 -20.44,4.59 -30.69,6.74 -16.23,3.39 -32.35,7.61 -48.75,9.74 -11.11,1.45 -12.19,9.14 -14.86,16.83 -0.72,2.1 -2.52,5.19 -4.1,5.37 -4.28,0.47 -43.33,6.79 -47.56,7.37 -0.54,-3.69 -1.12,-7.71 -1.85,-12.77 7.14,-1.53 15.31,-3.39 23.53,-4.94 1.26,-0.24 12.14,-2.73 10.78,-4.86 -10.1,-15.86 -19.5,-33.38 -29.84,-49.09 q -7.53,-11.44 -14.92,-23 c -0.69,-1.06 -21,-18.47 -25.68,-21.16 -7.09,-4.07 -14.1,-1.64 -21.15,-0.81 -4.1,0.48 -8.11,1.8 -12.21,2.07 -1.4,0.09 -3.39,-1.59 -4.35,-3 -21.17,-30.66 -42,-61.59 -63.54,-92 v 0 c 0,-1 11.86,-7.45 29,-16.12 L 793.4,985 c 0,0 95.2,-43.5 97.88,-45 1.89,-1.06 3.5,-1.28 5.82,1.39 a 38.27,38.27 0 0 0 4.13,7.4 c 12.82,19 25.89,37.92 38.9,56.83 8.06,11.72 15.89,23.6 24.39,35 a 24.92,24.92 0 0 0 10.39,7.53 c 11.51,4.66 23.34,8.5 34.92,13 a 14.51,14.51 0 0 1 6.2,5 c 7.22,10.43 14.09,21.09 21.18,31.61 6.73,10 14.13,19.55 20.1,30 2.56,4.45 2.25,10.54 3.26,16 z m 36.4,-31.75 -12.3,5.78 c -5.93,-8.35 -12.17,-16.71 -17.94,-25.37 -8.84,-13.29 -17.2,-26.88 -26.13,-40.1 a 17.78,17.78 0 0 0 -7.78,-5.83 c -10.43,-4.3 -21.1,-8 -31.57,-12.22 -2.5,-1 -5.25,-2.58 -6.75,-4.69 Q 953,1002.35 929.9,968.93 c -7.09,-10.23 -13.79,-20.73 -20.84,-31 -1,-1.47 -3,-2.26 -3.87,-2.89 1.21,-9.4 2.63,-18.54 3.42,-27.73 a 15.77,15.77 0 0 0 -2.17,-8.42 c -2.43,-4.38 -4.81,-9.36 -8.61,-12.26 -4.47,-3.42 -10.26,-5.47 -15.78,-7.11 -11.69,-3.49 -23.59,-6.26 -35.36,-9.45 -21.45,-5.79 -43,-11.28 -64.23,-17.75 -7.08,-2.16 -13.78,-6.32 -19.93,-10.6 -19.4,-13.52 -38.5,-27.47 -57.63,-41.38 q -35.08,-25.5 -70,-51.25 c -5.73,-4.24 -10.76,-9.44 -16.56,-13.57 q -0.83,-0.59 -1.68,-1.14 c 0,0 -1.23,-9.69 -3,-14.81 -1.29,-3.64 -12.25,-30.35 -19.24,-46.15 26,17.76 84.21,56.06 96.39,64.57 29.24,20.41 58.7,40.54 87.68,61.33 6,4.33 9,0.51 12.43,-2.31 4,-3.29 0.9,-6.09 -1.57,-8.88 -8.93,-10.08 -17.62,-20.36 -26.56,-30.43 q -27.88,-31.38 -56,-62.57 c -4,-4.39 -8.73,-8.07 -13.06,-12 4.83,-1.69 8.11,-3.2 11.56,-3.87 a 9.17,9.17 0 0 1 5.8,1.29 q 30.92,18 61.67,36.22 c 7.9,4.66 15.74,9.4 23.91,14.29 -2.91,5.1 -0.29,7.71 4.08,9.65 6.57,2.9 13.07,5.94 19.87,9 -2.52,3.59 -5.32,6.77 -7.07,10.45 -0.55,1.15 0.15,2.9 0.73,4.59 a 1.91,1.91 0 0 0 2.21,1.25 c 1.58,-0.32 3.23,-0.61 4,-1.58 3.12,-4.12 5.6,-8.73 8.32,-13.16 2,-3.35 2.38,-5.7 -2.29,-7.52 -7.63,-3 -15,-6.74 -22.81,-10.35 2.05,-4.55 0.63,-7.11 -3.6,-9.54 -15.11,-8.66 -29.83,-18 -44.84,-26.8 -14.66,-8.61 -29.49,-16.91 -44.91,-25.73 11.75,-7.87 22.83,-15.05 33.65,-22.6 13.82,-9.64 27.83,-19.09 41,-29.6 6.49,-5.19 12.13,-5.24 19,-2.36 27.56,11.67 55.28,23.24 82.99,34.88 6.22,2.63 12.27,5.68 19,8.8 -5.1,1.52 -9.9,2.85 -14.62,4.45 -1.28,0.44 -3.28,1.78 -3.21,2.55 a 5.51,5.51 0 0 0 2.46,4 c 9.43,4.53 18.67,9.89 28.61,12.71 6.19,1.76 13.54,-0.14 20.29,-1 4.49,-0.57 8.79,-2.47 13.27,-3.19 1.59,-0.25 3.64,1 5.17,2 20,13.26 39.88,26.75 60,39.89 17.76,11.6 35.63,23 53.73,34.08 6.32,3.86 2.55,8.79 2.07,12.75 -2,16.93 -5,33.75 -7.4,50.64 -0.2,1.41 1.16,3 1.27,3.31 -7.45,6.46 -14.88,12.58 -21.82,19.21 -1.34,1.28 -1,4.57 -1,6.93 -0.14,8.5 -4.09,11.32 -12.65,10.79 a 21.44,21.44 0 0 0 -12.77,3.26 c -6.86,4.35 -12.93,9.94 -19.38,15.07 -18.64,-2.53 -38.52,-4.92 -58.27,-8.1 -4.93,-0.8 -9.88,-3.53 -14.07,-6.46 -19.29,-13.52 -37.91,-28 -57.57,-41 -15.22,-10 -31.6,-18.31 -47.48,-27.34 -4.75,-2.7 -9.44,-5.57 -14.4,-7.82 a 4.35,4.35 0 0 0 -5.92,4.34 4.39,4.39 0 0 0 0.68,2.1 c 14.54,20.56 35.49,33.53 55.95,47.14 10.58,7 26.43,18.63 32.6,23.23 6.37,4.75 8.82,6.49 12.18,-0.46 2.5,-5.18 4.37,-4.73 8.14,-1.7 4.59,3.69 9.61,6.85 12.9,9.15 -2.51,7.49 -5,14.55 -7.16,21.7 -0.29,1 0.74,3.33 1.26,3.36 8.54,0.48 9.82,8.67 14.34,13.33 2.21,2.28 2.65,4.21 1.06,5 -5,2.46 -11.36,11.25 -6,17.36 5.21,5.88 7,8.35 9.43,12.75 6.74,12.18 44.8,69 48.07,75.45 1,1.93 42.84,12.66 50.28,14.86 4.32,6.33 8.41,11.76 11.81,17.59 1.21,2.08 0.9,5.13 1,7.75 0.14,3.7 -1.17,8.45 5.55,6.14 0.56,-0.2 1.64,-0.34 1.78,-0.09 2.89,4.93 7.73,9.8 8,14.92 0.4,7.36 -0.34,8.16 6.72,6.5 l 12,17.82 c -1.38,4.3 -2.36,7.59 -3.85,12.49 z M 1021.7,992.54 a 20.32,20.32 0 0 1 3.43,5.84 c -12.64,-7.32 -26.35,-12.41 -35.41,-25.64 -17.78,-26 -36.84,-51 -56.61,-78.19 14.55,1.73 27.64,3.12 40.66,5 a 11.71,11.71 0 0 1 7,4.05 c 5.93,7.85 10.86,16.48 17.09,24 6.05,7.35 7.23,16.14 7.55,24.54 a 62.23,62.23 0 0 0 16.29,40.4 z m -7.8,-26.84 c 5,-2.2 8.45,-4.26 12.13,-5 1.65,-0.34 4.52,1.43 5.67,3.07 11.45,16.26 22.65,32.69 31.16,45.06 -3.5,5.82 -6.55,10.91 -10.22,17 -12.24,-21.75 -28.23,-39.21 -38.74,-60.13 z m 19.68,60.25 c -9.2,-2.81 -32.37,-9.39 -40.06,-11.87 a 5.65,5.65 0 0 1 -2.41,-2.23 c -10.88,-15.34 -46.24,-68.57 -57,-84 -0.52,-0.75 -5.87,-3.88 6.42,-9 3.46,3.35 41,54.39 42.89,58.46 6.6,14.43 20.33,20.08 32.51,27.38 3.93,2.35 6.92,4.61 9.18,8.39 2.26,3.78 4.97,7.63 8.47,12.92 z M 893,855.78 q -32.82,-23.21 -65.43,-46.3 l 1,-1.69 c 3,1.56 6,3 8.87,4.7 18.73,11.55 37.39,23.2 56.12,34.75 4,2.46 3.44,4.9 -0.56,8.54 z m 219.1,219.32 a 46,46 0 0 1 -11.66,22.65 c -7.51,-11.65 -41.28,-63.41 -42.43,-65.64 l 11.31,-13.4 c 7.62,11.6 14.59,23.1 22.53,33.88 a 39.85,39.85 0 0 0 13.54,11.47 c 5.12,2.62 8.23,3.69 6.71,11.04 z m -3.72,-18.28 c -5.91,-1.23 -8.53,-5.48 -11.5,-9.92 -18,-26.89 -35.78,-54 -54.49,-80.36 -7.82,-11 -10.8,-23 -10.84,-35.71 0,-11.47 -5.09,-20 -11.51,-28.48 -4.86,-6.41 -9.35,-13.08 -13.75,-19.28 5.38,-4.31 10.67,-8.24 15.59,-12.59 3.57,-3.15 7.12,-4.18 11.78,-2.82 8.66,2.55 20.21,-6.59 20.44,-15.7 0.07,-2.75 0,-6.42 1.55,-8.05 4.13,-4.19 9.08,-7.62 14,-10.92 0.52,-0.35 3.32,1.81 4.39,3.29 4.6,6.38 9.44,12.66 13.26,19.51 4.83,8.66 13.25,12.58 21.47,15 11.9,3.53 19,11.29 25.29,20.9 17.58,26.67 35.8,52.93 52.64,80 3.68,5.92 4.68,15.11 3.37,22.14 -1.65,8.85 -15.86,11.24 -25,8.21 -14.16,-4.66 -13.91,-17.13 -16.93,-27.57 -5.14,-17.77 -8.85,-35.77 -21.54,-50.53 -8,-9.37 -14.1,-20.43 -21.43,-30.45 -0.89,-1.22 -2.79,-1.71 -4.63,-2.23 a 1.48,1.48 0 0 0 -1.9,1.48 c 0.06,1.65 0.11,3.31 0.89,4.48 8.81,13.31 17.63,26.64 27,39.54 8.17,11.22 8.82,24.87 13.3,37.26 0.65,1.81 0.88,3.76 1.72,7.43 -6.24,-9.07 -7.6,-9.18 -14.89,-2.47 -1,0.87 -2.57,2.22 -3.59,3 -6.42,4.91 -6.25,6.48 -1.16,14 a 4.33,4.33 0 0 1 1.1,3.56 c -7.75,-5.87 -16.45,-10.85 -23,-17.84 -8.58,-9.11 -15.61,-19.72 -23,-29.88 -4,-5.46 -7.23,-11.46 -11.18,-17 -2.58,-3.57 -5.5,-7.23 -10.92,-6 -3.42,0.79 -4.5,2.58 -2.42,5.66 10.95,16.31 21.17,33.18 33.19,48.65 6,7.78 15.36,13 23.22,19.37 6.67,5.38 13.93,10.19 19.81,16.31 2.51,2.62 2.18,8 3.17,12 3.45,14.23 -5.68,22.16 -15.42,30.13 -2.54,-1.19 -5.13,-3.51 -8.08,-4.12 z m 83.72,22.38 c -4.54,0.57 -28,2.09 -32.69,2.68 -2,-5.78 -4.14,-12.17 -6.3,-18.52 7.89,3 33.26,11 39.29,13.33 2.97,1.04 2.2,2.23 -0.3,2.51 z m 2.5,13.15 c -4,0.86 -15.17,5 -20.8,-3.37 16.34,-1.52 18.79,-2.44 20.8,3.37 z m -53,-60.79 c 12.72,5.18 22.27,13 23,27.88 -16.19,-3.88 -23.23,-12.33 -23,-27.88 z m 16.1,-1.24 c -5.19,-2.62 -9.87,-6.26 -15.29,-9.84 4.06,-3.42 10.32,-9 14.25,-12.3 6.09,4.07 11.85,8.25 19.8,13.57 -3.14,2.28 -8,6.72 -10.94,8 -2.32,1 -5.78,1.6 -7.82,0.57 z m -20.49,-23.79 c -2.84,-4.11 -8.16,-13.36 -11.15,-17.68 l 7.13,-5 c 14.67,14.53 14.67,17.5 4.02,22.68 z m -18.82,81.6 c 0,-4.87 0,-9.73 0,-14.6 a 0.5,0.5 0 0 1 0.92,-0.26 l 14.21,23.34 c -12.34,4.01 -15.11,2.02 -15.13,-8.48 z m 5.13,-21.38 11.81,-12.51 15.58,24.77 -11.64,11.14 z m 63.19,41.21 c -1.82,1.57 -10.27,8.71 -11.35,9.49 -9.11,-7.12 -18.7,-12.81 -27.5,-19.7 0.16,-0.6 7.47,-8.26 7.64,-8.85 1.93,0.53 4.17,0.63 5.74,1.69 4,2.7 7.31,4.33 11.2,7.16 6,4.35 14.23,4.34 23.27,1.55 -2.71,2.88 -7.19,7.08 -9,8.7 z m 17,-15.61 c -7.41,-18.69 -3.71,-16.25 5.8,-20.15 5.97,11.88 3.97,12.17 -5.85,20.15 z m 4.7,-32 c -0.13,2.61 -14.35,7.56 -21.21,4.93 -8.38,-3.21 -12.76,-7.18 -16,-15.34 -3,-7.44 -3.18,-12.55 3.63,-17.26 a 61.33,61.33 0 0 0 7.65,-6.84 c 5.81,4.23 16.45,10.21 19.23,15.33 3.2,6.04 6.99,12.07 6.65,19.19 z m -5,-28.8 -21.7,-19 12.7,-9.51 c 4.56,7.3 8.92,14 12.79,20.86 3.87,6.86 -0.55,10.64 -3.86,7.66 z m 2.19,-28.53 c -13.77,-10.45 -2.25,-19.22 -16.75,-40.13 -0.1,-0.14 -16.34,-27.87 -17.46,-30.62 -0.89,-2.18 5.59,-4.95 7.34,-5.68 8.1,12.3 36.87,54.77 44.26,66 z m 30.21,-17.27 c -2.56,-1.1 -10.12,-8.76 -11.51,-10.7 -7.67,-10.73 -34.67,-49.62 -39.15,-59.2 -2.17,-4.63 -4.6,-8.12 -3.44,-15.21 3.22,-19.65 -2.57,-36.22 -5.18,-39.7 -15.3,-20.3 -24.31,-31.84 -39.36,-52.32 -3.08,-4.19 -4.48,-9.61 -6.69,-14.45 -0.44,-1 -10.06,-14.53 -15,-20.82 -0.82,-1 -3.58,-2.64 -5.27,-2.41 -2.21,0.3 -4.2,2.14 -6.9,3.66 -2.15,-3.13 -5.15,-7.37 -8,-11.72 -0.46,-0.71 -0.58,-2.47 -0.18,-2.74 a 4.53,4.53 0 0 1 3.28,-0.65 c 5.69,1.41 11.79,2.17 16.86,4.84 4.36,2.29 8.21,6.36 11.1,10.47 12.32,17.53 45.21,66.05 49.52,72.57 11.61,17.56 12.91,22.29 13.51,35.38 0.82,17.86 10.71,31.39 20,45.35 8.69,13.1 21.6,33.34 29.6,46.9 1.28,2.18 -2.06,7.1 -3.26,10.76 z m 16.37,-79.09 c -2.31,16.05 -2.77,18.27 -5.65,39.75 -1.93,14.4 -2.9,20.38 -7.81,12.42 -4.91,-7.96 -28.61,-43.12 -36.43,-57.22 a 46,46 0 0 1 -5.59,-20.79 c -0.64,-18.12 -10.07,-31.83 -19.87,-45.8 -12.56,-17.91 -24.55,-36.22 -36.77,-54.36 -4.24,-6.3 -8,-13 -12.84,-18.77 a 12.49,12.49 0 0 0 -3,-2.48 v 0 c 0,-4.39 15.18,-45.22 18.26,-48.79 2.48,-2.89 -10.39,-14.86 -17.29,-21.6 3.78,-9.61 7.18,-17.85 9.44,-22.52 a 110.22,110.22 0 0 1 11.56,14.71 q 23.72,34.65 47.76,69.07 c 2.35,3.36 3.73,6.53 2.3,10.62 -2.77,7.93 0.28,13.81 3.38,22.06 4.8,12.77 9.67,17.57 19.35,32.21 10.93,16.53 23,32.53 32,50.17 5.67,11.06 2.02,35.07 1.13,41.33 z m 21.19,-91.13 c -5.26,5.55 -11.68,9.77 -16.76,15.54 -7.3,-14.66 -2.94,-24.44 15.39,-38.36 7.21,10.91 10,13.65 1.3,22.83 z M 1288.43,803 c -3.56,-5 -8.54,-12.7 -11.43,-16.78 l 26.44,-21.32 8.33,13.18 z"
         id="path143"
         style="fill:#333333;stroke:#cccccc" />
    </g>
  </g>
</svg>
